<svg width="120" height="120" viewBox="0 0 120 120" fill="none" xmlns="http://www.w3.org/2000/svg">
<path d="M22.7297 84.3076L15.0648 96.9502C14.6813 97.6411 14.578 98.453 14.7762 99.218C14.9744 99.9829 15.459 100.642 16.1298 101.06C16.8813 101.529 17.7798 101.702 18.6516 101.546C19.5234 101.391 20.3066 100.918 20.85 100.219L29.7947 87.4501L22.7297 84.3076Z" fill="#D5D7D8"/>
<path d="M21.8211 89.4385L16.5996 97.993C16.2995 98.4848 16.1253 99.0489 16.1352 99.6247C16.1481 100.364 16.4394 101.24 17.6425 101.585L21.8211 89.4385Z" stroke="#818E95" stroke-width="1.22131" stroke-linecap="round" stroke-linejoin="round"/>
<path d="M22.7297 84.3076L15.0648 96.9502C14.6813 97.6411 14.578 98.453 14.7762 99.218C14.9744 99.9829 15.459 100.642 16.1298 101.06C16.8813 101.529 17.7798 101.702 18.6516 101.546C19.5234 101.391 20.3066 100.918 20.85 100.219L29.7947 87.4501L22.7297 84.3076Z" stroke="#818E95" stroke-width="1.22131" stroke-linecap="round" stroke-linejoin="round"/>
<path d="M61.22 95.0474C61.22 95.0474 39.7681 100.114 27.9277 88.1778L31.422 84.124L61.5216 92.9121L61.22 95.0474Z" fill="#DBDDE4"/>
<path d="M61.22 95.0474C61.22 95.0474 39.7681 100.114 27.9277 88.1778L31.422 84.124L61.5216 92.9121L61.22 95.0474Z" stroke="#818E95" stroke-width="1.22131" stroke-linecap="round" stroke-linejoin="round"/>
<path d="M43.1816 87.4531C43.1816 87.4531 43.6449 96.1252 55.5811 95.8855L43.1816 87.4531Z" stroke="#818E95" stroke-width="1.22131" stroke-linecap="round" stroke-linejoin="round"/>
<path opacity="0.3" d="M55.5811 95.8855C43.6441 96.1244 43.1816 87.4531 43.1816 87.4531L60.2937 94.7509L58.6875 95.6885L55.5811 95.8855Z" fill="#818E95"/>
<path d="M93.4806 57.4648C91.8482 63.7608 84.4811 88.6275 69.1209 92.5295L49.459 86.0137L70.5214 55.3272C73.8495 52.0683 77.4438 48.6973 78.9424 47.6266C80.066 46.8278 82.2606 46.0086 84.4343 45.3285C87.4635 44.3818 90.4557 43.7002 90.4557 43.7002L91.1358 46.163L93.2566 53.8434C93.2566 53.8434 93.3448 55.2751 93.4806 57.4648Z" fill="#DBDDE4"/>
<path opacity="0.3" d="M94.0831 51.5718L93.8351 56.0158C93.8351 56.0158 93.7187 56.5388 93.4787 57.4611C91.8462 63.7571 84.4792 88.6238 69.119 92.5259L49.457 86.01L70.5195 55.3236L77.9363 44.5166L84.4316 45.3249L91.1331 46.1593L93.1949 46.4161L94.0831 51.5718Z" fill="#818E95"/>
<path d="M93.8343 56.0155C93.8343 56.0155 86.7331 88.0533 69.1193 92.5293L49.4551 86.012L77.9348 44.5186L93.1937 46.4203L94.0807 51.5749L93.8343 56.0155Z" stroke="#818E95" stroke-width="1.22131" stroke-linecap="round" stroke-linejoin="round"/>
<path d="M91.1343 48.202L62.9707 37.7077L75.5604 28.0653C75.5604 28.0653 83.1937 26.3043 83.7026 26.625C84.2115 26.9456 100.955 32.8247 100.955 32.8247L91.1343 48.202Z" fill="#D5D7D8"/>
<path d="M91.1343 48.202L62.9707 37.7077L75.5604 28.0653C75.5604 28.0653 83.1937 26.3043 83.7026 26.625C84.2115 26.9456 100.955 32.8247 100.955 32.8247L91.1343 48.202Z" stroke="#818E95" stroke-width="1.22131" stroke-linecap="round" stroke-linejoin="round"/>
<path d="M56.1672 88.2341C63.149 85.2674 65.7415 72.2019 65.7415 72.2019L59.3515 61.3881C59.3515 61.3881 43.3767 50.9664 43.182 50.9132C42.9873 50.8599 39.8433 52.853 39.8433 52.853L36.2645 55.9646L33.1719 70.9962L42.7883 83.7985L56.1672 88.2341Z" fill="white"/>
<path d="M47.9625 85.5147C51.1856 75.8674 45.214 68.9853 35.0586 70.6866L30.5176 71.4302L30.9706 79.8816L47.9625 85.5147Z" fill="#ACB4BE"/>
<path d="M65.7422 72.2021C65.7422 72.2021 63.1497 85.2692 56.168 88.2344L65.7422 72.2021Z" stroke="#818E95" stroke-width="1.4248" stroke-linecap="round" stroke-linejoin="round"/>
<path d="M86.4764 99.9489C86.476 100.313 86.3897 100.672 86.2246 100.997C86.0596 101.321 85.8203 101.602 85.5263 101.817C85.2322 102.032 84.8917 102.175 84.5323 102.233C84.1728 102.292 83.8046 102.265 83.4576 102.155L49.1878 91.2008L46.0487 90.197L14.7792 80.2037C14.435 80.0997 14.1151 79.9281 13.8382 79.699C13.5612 79.4698 13.3328 79.1876 13.1664 78.869C12.9999 78.5504 12.8987 78.2017 12.8688 77.8435C12.8388 77.4853 12.8807 77.1247 12.9919 76.7828C13.1032 76.441 13.2815 76.1248 13.5166 75.8528C13.7516 75.5808 14.0386 75.3585 14.3606 75.1988C14.6827 75.0392 15.0335 74.9455 15.3922 74.9232C15.751 74.9009 16.1107 74.9504 16.45 75.0689L47.6097 85.3985L50.2623 86.2779L84.8877 97.7547C85.3495 97.907 85.7516 98.201 86.0368 98.5949C86.322 98.9888 86.4759 99.4626 86.4764 99.9489Z" fill="#D5D7D8"/>
<path opacity="0.3" d="M86.4757 99.9482C86.4753 100.312 86.389 100.671 86.224 100.996C86.0589 101.321 85.8196 101.602 85.5256 101.817C85.2315 102.031 84.891 102.174 84.5316 102.233C84.1721 102.291 83.804 102.264 83.4569 102.154L49.1871 91.2001L46.048 90.1963C45.733 90.0937 45.4413 89.93 45.1895 89.7146C44.9377 89.4992 44.7309 89.2363 44.5807 88.941C44.4305 88.6457 44.34 88.3236 44.3143 87.9933C44.2885 87.663 44.3281 87.3308 44.4308 87.0158C44.5334 86.7008 44.6971 86.409 44.9125 86.1573C45.1279 85.9055 45.3907 85.6986 45.6861 85.5485C45.9814 85.3983 46.3034 85.3078 46.6338 85.282C46.9641 85.2563 47.2963 85.2959 47.6113 85.3985L50.2639 86.2779L84.8893 97.7547C85.3506 97.9074 85.7521 98.2014 86.0368 98.5951C86.3216 98.9889 86.4752 99.4623 86.4757 99.9482Z" fill="#818E95"/>
<path d="M13.0467 76.7534C12.93 77.0934 12.8823 77.4532 12.9065 77.8119C12.9307 78.1705 13.0262 78.5207 13.1875 78.8419C13.3488 79.1632 13.5726 79.449 13.8458 79.6826C14.119 79.9162 14.4361 80.0929 14.7784 80.2024L83.4576 102.152C84.0312 102.335 84.6537 102.288 85.1928 102.019C85.7318 101.751 86.1449 101.282 86.3441 100.714C86.4457 100.424 86.4886 100.117 86.4703 99.8108C86.452 99.5043 86.3728 99.2045 86.2374 98.9289C86.102 98.6533 85.9131 98.4074 85.6817 98.2056C85.4503 98.0038 85.1811 97.8501 84.8896 97.7534L16.4497 75.0676C15.7748 74.8441 15.0389 74.8957 14.4018 75.2113C13.7647 75.5269 13.2778 76.081 13.0467 76.7534Z" stroke="#818E95" stroke-width="1.22131" stroke-linecap="round" stroke-linejoin="round"/>
<path d="M74.9987 74.6275C74.1338 79.1058 65.9912 83.5331 59.0684 81.5994C52.1456 79.6657 52.8964 73.3552 53.7435 71.692C54.5905 70.0287 57.3709 71.2355 57.3709 71.2355L62.6046 70.2668C52.691 65.6664 44.2537 60.2783 40.4269 52.4229C40.7381 52.2012 40.9195 52.0829 40.9195 52.0829C37.8113 45.9192 36.539 40.6187 42.8106 38.8721L72.4709 60.6282C72.4709 60.6282 75.864 70.1492 74.9987 74.6275Z" fill="#ACB4BE"/>
<path opacity="0.6" d="M43.0666 40.1572C38.6959 40.9746 39.2802 45.8035 41.107 51.6381C41.107 51.6381 38.6134 44.8884 38.5369 44.5168C38.4605 44.1452 39.5803 41.0004 39.5803 41.0004L41.8194 39.6795L42.3793 39.209L43.0666 40.1572Z" fill="white"/>
<path d="M57.3728 71.236C57.3728 71.236 54.5932 70.031 53.745 71.6924C52.8968 73.3538 52.1475 79.6649 59.0699 81.599C65.9923 83.5331 74.1357 79.1055 75.0006 74.6272C75.8655 70.1489 72.4732 60.6302 72.4732 60.6302L42.8129 38.874C36.5397 40.6198 37.8128 45.9197 40.9218 52.0841C40.9218 52.0841 37.529 54.2901 34.6113 57.7673C34.6113 57.7673 41.5476 61.8717 45.9921 64.5016C50.4365 67.1315 52.9283 68.606 57.3728 71.236Z" stroke="#818E95" stroke-width="1.4248" stroke-linecap="round" stroke-linejoin="round"/>
<path d="M68.5929 24.1084C71.9493 20.7521 71.9493 15.3104 68.5929 11.9541C65.2366 8.59771 59.7949 8.59772 56.4385 11.9541C53.0822 15.3104 53.0822 20.7521 56.4385 24.1084C59.7949 27.4648 65.2366 27.4648 68.5929 24.1084Z" fill="#ACB4BE"/>
<path opacity="0.3" d="M71.1107 18.0287C71.1107 22.7759 67.2635 26.6247 62.5148 26.6247C62.4109 26.6247 62.3094 26.6247 62.2074 26.6186C65.7923 25.5848 68.4121 22.2826 68.4121 18.3623C68.4121 13.7193 64.7296 9.93517 60.125 9.77428C60.9017 9.54967 61.7062 9.43597 62.5148 9.43653C67.2635 9.43462 71.1107 13.2815 71.1107 18.0287Z" fill="#818E95"/>
<path opacity="0.6" d="M55.2165 18.6456C55.2163 20.1511 55.6116 21.6303 56.3629 22.935C57.1142 24.2397 58.1952 25.3241 59.4974 26.0796C56.2386 24.8579 53.9199 21.7131 53.9199 18.0287C53.9199 13.2819 57.7672 9.43459 62.514 9.43459C64.0337 9.43171 65.5268 9.83356 66.8397 10.5988C65.872 10.2356 64.8466 10.05 63.8129 10.0511C59.0669 10.0523 55.2165 13.8995 55.2165 18.6456Z" fill="white"/>
<path d="M68.5929 24.1084C71.9493 20.7521 71.9493 15.3104 68.5929 11.9541C65.2366 8.59771 59.7949 8.59772 56.4385 11.9541C53.0822 15.3104 53.0822 20.7521 56.4385 24.1084C59.7949 27.4648 65.2366 27.4648 68.5929 24.1084Z" stroke="#818E95" stroke-width="1.4248" stroke-linecap="round" stroke-linejoin="round"/>
<path d="M62.9715 21.6379C64.7129 21.6379 66.1246 20.0226 66.1246 18.0299C66.1246 16.0372 64.7129 14.4219 62.9715 14.4219C61.2301 14.4219 59.8184 16.0372 59.8184 18.0299C59.8184 20.0226 61.2301 21.6379 62.9715 21.6379Z" fill="white"/>
<path d="M62.9715 21.6379C64.7129 21.6379 66.1246 20.0226 66.1246 18.0299C66.1246 16.0372 64.7129 14.4219 62.9715 14.4219C61.2301 14.4219 59.8184 16.0372 59.8184 18.0299C59.8184 20.0226 61.2301 21.6379 62.9715 21.6379Z" stroke="#818E95" stroke-width="1.22131" stroke-linecap="round" stroke-linejoin="round"/>
<path d="M89.1972 41.3719C94.6704 41.3719 99.1073 36.935 99.1073 31.4618C99.1073 25.9887 94.6704 21.5518 89.1972 21.5518C83.724 21.5518 79.2871 25.9887 79.2871 31.4618C79.2871 36.935 83.724 41.3719 89.1972 41.3719Z" fill="#ACB4BE"/>
<path opacity="0.3" d="M99.1071 31.4639C99.1071 36.9376 94.6714 41.3729 89.1978 41.3729C84.6891 41.3729 80.8844 38.3643 79.6855 34.2443C80.5955 35.5679 81.814 36.6501 83.2357 37.3974C84.6575 38.1447 86.2398 38.5346 87.846 38.5336C93.3197 38.5336 97.7572 34.0979 97.7572 28.6242C97.7589 27.6846 97.626 26.7496 97.3624 25.8477C98.5027 27.4982 99.1115 29.4578 99.1071 31.4639Z" fill="#818E95"/>
<path opacity="0.6" d="M98.6213 28.3883C97.0356 25.0298 93.6177 22.705 89.6563 22.705C84.1827 22.705 79.747 27.1426 79.747 32.6163C79.7456 33.661 79.9106 34.6993 80.2358 35.6922C79.6106 34.3701 79.2872 32.9255 79.2891 31.463C79.2891 25.9894 83.7247 21.5537 89.1984 21.5537C93.5995 21.553 97.3284 24.4212 98.6213 28.3883Z" fill="white"/>
<path d="M89.1972 41.3719C94.6704 41.3719 99.1073 36.935 99.1073 31.4618C99.1073 25.9887 94.6704 21.5518 89.1972 21.5518C83.724 21.5518 79.2871 25.9887 79.2871 31.4618C79.2871 36.935 83.724 41.3719 89.1972 41.3719Z" stroke="#818E95" stroke-width="1.4248" stroke-linecap="round" stroke-linejoin="round"/>
<path d="M89.1971 35.5188C91.4374 35.5188 93.2536 33.8387 93.2536 31.7662C93.2536 29.6937 91.4374 28.0137 89.1971 28.0137C86.9568 28.0137 85.1406 29.6937 85.1406 31.7662C85.1406 33.8387 86.9568 35.5188 89.1971 35.5188Z" fill="white"/>
<path opacity="0.3" d="M93.1954 31.1261C92.4647 30.4605 91.4609 30.0493 90.3537 30.0493C88.1123 30.0493 86.2969 31.7286 86.2969 33.8007C86.2964 34.0166 86.3168 34.232 86.3578 34.4439C85.6066 33.7642 85.1406 32.8156 85.1406 31.7651C85.1406 29.6929 86.9564 28.0137 89.1975 28.0137C91.2027 28.0137 92.8675 29.359 93.1954 31.1261Z" fill="#818E95"/>
<path d="M89.1971 35.5188C91.4374 35.5188 93.2536 33.8387 93.2536 31.7662C93.2536 29.6937 91.4374 28.0137 89.1971 28.0137C86.9568 28.0137 85.1406 29.6937 85.1406 31.7662C85.1406 33.8387 86.9568 35.5188 89.1971 35.5188Z" stroke="#818E95" stroke-width="1.22131" stroke-linecap="round" stroke-linejoin="round"/>
<path d="M87.369 45.2598C87.2895 45.5427 87.2081 45.8219 87.1229 46.0965C86.2697 48.8754 85.1279 51.2773 83.7758 53.2822C79.0309 60.3092 71.6577 62.4973 64.7368 59.1693C55.6464 54.7952 47.3673 51.6132 43.8049 42.4836C41.6749 37.0202 42.5999 32.4217 45.5781 28.6699C47.5749 26.1543 50.4938 24.019 54.0299 22.2621L53.6693 21.9578C53.6693 21.9578 53.7325 21.9069 53.8546 21.8133C55.4018 20.6308 66.402 12.7328 76.7815 18.7865C87.9756 25.3175 91.0371 32.1243 87.369 45.2598Z" fill="white"/>
<path opacity="0.3" d="M87.1244 46.0977C87.0572 46.3158 86.988 46.5313 86.9168 46.7443C86.8312 47.0106 86.7395 47.2715 86.6479 47.5302C86.5931 47.6823 86.5379 47.8314 86.479 47.982C86.4409 48.0878 86.3995 48.1939 86.3588 48.2977C86.0494 49.0896 85.715 49.8441 85.3554 50.5612C85.3064 50.6608 85.2558 50.7605 85.2033 50.8605C85.1299 51.0028 85.0546 51.1454 84.9792 51.2858C84.9039 51.4261 84.8271 51.5668 84.7472 51.7041C84.6738 51.8365 84.5951 51.9666 84.5213 52.0971C84.5171 52.105 84.511 52.113 84.5069 52.1214C84.4308 52.2538 84.3501 52.3819 84.271 52.5101C84.1919 52.6383 84.1079 52.7726 84.0246 52.9011C83.9413 53.0297 83.8599 53.1556 83.7743 53.2815C79.0294 60.3085 71.6562 62.4967 64.7354 59.1686C55.6647 54.8063 47.4046 51.6266 43.8281 42.5472C48.0478 48.3791 54.9097 51.1534 62.311 54.7116C69.6678 58.2489 77.5373 55.5526 82.2171 47.4305C81.5736 46.8214 80.8996 46.2451 80.1978 45.7041C78.9621 47.5381 77.3174 48.899 75.4548 49.5639C74.6161 49.8645 73.732 50.0189 72.8411 50.0203C71.182 50.0203 69.5251 49.481 68.0045 48.4228C67.9987 48.4193 67.9932 48.4152 67.9881 48.4107C65.0594 46.2202 63.457 43.7472 63.2208 41.0604C63.0561 39.1692 63.6011 37.1948 64.8065 35.241C64.1188 33.9888 63.1295 33.2479 61.796 32.9836C59.7094 35.5951 57.1937 36.9099 54.2829 36.9099C53.573 36.9078 52.8651 36.8349 52.1696 36.6924C52.1472 36.6882 52.1251 36.6821 52.1027 36.676C48.058 35.371 45.8695 33.0246 45.593 29.7C45.5651 29.3584 45.5596 29.0153 45.5766 28.673C47.5735 26.1574 50.4923 24.0221 54.0284 22.2652L53.6678 21.9609C53.6678 21.9609 53.731 21.91 53.8531 21.8164L63.0173 28.2915C63.2087 28.4269 63.3685 28.6023 63.4855 28.8054C63.6026 29.0086 63.6741 29.2348 63.6951 29.4683C64.886 29.5722 66.4614 30.25 67.2434 32.2772C67.6304 32.0116 68.0874 31.8663 68.5567 31.8596C69.0261 31.8528 69.487 31.9849 69.8815 32.2392L81.0749 39.4918C81.313 39.647 81.5179 39.8479 81.6776 40.083C81.8373 40.3181 81.9487 40.5825 82.0053 40.861C82.842 41.5368 83.6046 42.2051 84.2931 42.8659C85.4224 43.9503 86.3611 45.021 87.1244 46.0977Z" fill="#818E95"/>
<path opacity="0.3" d="M87.3689 45.2589C87.2894 45.5419 87.208 45.8211 87.1228 46.0957C86.3594 45.0189 85.4207 43.9482 84.293 42.8627C84.5273 42.1994 84.7438 41.5114 84.9426 40.7989C86.6584 34.6555 86.9007 29.8984 85.5287 25.9043C89.2885 30.7759 89.7689 36.663 87.3689 45.2589Z" fill="#818E95"/>
<path d="M65.9418 40.7646C65.9418 40.7646 64.0754 45.926 70.123 48.676C76.1706 51.4259 78.3592 45.1646 76.578 42.264L65.9418 40.7646Z" fill="#818E95"/>
<path d="M47.7233 27.8545C47.7233 27.8545 44.9753 31.5352 47.7233 33.8679C50.4714 36.2006 55.4913 34.7324 56.7689 32.7751C58.0465 30.8178 47.7233 27.8545 47.7233 27.8545Z" fill="#818E95"/>
<path d="M53.669 21.9587C53.669 21.9587 65.5858 12.2559 76.7834 18.7874C87.981 25.3188 91.0406 32.1244 87.3724 45.2599C83.7043 58.3954 73.8319 63.5442 64.7415 59.1721C55.651 54.7999 47.3673 51.6145 43.8068 42.4864C40.2464 33.3583 45.2244 26.6405 54.0319 22.2642L53.669 21.9587Z" stroke="#818E95" stroke-width="1.4248" stroke-linecap="round" stroke-linejoin="round"/>
<path d="M58.7497 64.1297L56.7978 64.7063L50.4588 44.715C50.3147 44.2599 50.3341 43.7688 50.5136 43.3264C50.6932 42.8841 51.0215 42.5184 51.442 42.2925L53.8443 41.002H55.6111L56.1322 42.5371L52.7611 44.3852L58.188 62.2781L58.7497 64.1297Z" fill="white"/>
<path opacity="0.3" d="M58.1884 62.277L56.8389 61.3892C56.8389 61.3892 52.0145 45.8404 51.6889 44.5472C51.3634 43.254 52.6254 43.1631 53.6694 42.5694C54.7135 41.9757 54.4412 41.4337 54.4412 41.4337L54.4164 41.002H55.6115L56.1326 42.5371L52.7615 44.3852L58.1884 62.277Z" fill="#818E95"/>
<path d="M56.1324 42.5336L52.7613 44.3821L58.7511 64.1273L56.7988 64.7047L50.4591 44.7122C50.3147 44.2571 50.334 43.7659 50.5135 43.3234C50.6931 42.881 51.0216 42.5152 51.4423 42.2894L53.8442 41L56.1324 42.5336Z" stroke="#818E95" stroke-width="0.814335" stroke-linejoin="round"/>
<path d="M52.6211 41.6562C52.6211 41.6562 54.2125 42.1275 54.0132 43.6957L52.6211 41.6562Z" stroke="#818E95" stroke-width="0.814335" stroke-linecap="round" stroke-linejoin="round"/>
<path d="M50.459 44.7143C50.459 44.7143 51.5449 44.0792 52.9164 45.097L50.459 44.7143Z" stroke="#818E95" stroke-width="0.814335" stroke-linecap="round" stroke-linejoin="round"/>
<path d="M51.4961 47.9813C51.4961 47.9813 52.5409 46.9376 53.669 47.3727L51.4961 47.9813Z" stroke="#818E95" stroke-width="0.814335" stroke-linecap="round" stroke-linejoin="round"/>
<path d="M19.7839 89.4106C19.6758 89.2269 19.5904 89.0307 19.5295 88.8264C17.7993 83.1264 23.5536 82.3634 23.5536 82.3634C21.9801 72.9995 25.789 71.1168 25.789 71.1168C25.789 71.1168 29.06 68.5212 31.4212 68.1143L34.426 77.2477L34.4728 77.3922C38.2649 88.3703 22.4974 94.0943 19.7839 89.4106Z" fill="#ACB4BE"/>
<path opacity="0.6" d="M31.7442 69.0899C29.5028 69.8148 26.8757 71.8969 26.8757 71.8969C26.8757 71.8969 23.0672 73.78 24.6407 83.1435C24.6407 83.1435 18.886 83.9069 20.6162 89.6065C20.7274 89.9781 20.9169 90.3217 21.1719 90.614C20.3701 90.2519 19.7859 89.6631 19.5314 88.8264C17.8012 83.1264 23.5556 82.3634 23.5556 82.3634C21.9821 72.9995 25.7909 71.1168 25.7909 71.1168C25.7909 71.1168 29.0619 68.5212 31.4232 68.1143L31.7442 69.0899Z" fill="white"/>
<path d="M34.4755 77.3923C35.9425 79.989 35.8745 83.4658 34.2173 85.9986C32.0759 89.095 28.4933 91.1539 24.7993 91.6822C22.6838 91.9838 19.8441 91.589 18.9446 89.3012C18.6201 88.3583 18.4368 87.3941 18.5167 86.3561C18.6825 83.7282 21.0331 82.0326 23.4613 81.6565L22.8527 82.4807C22.7006 81.4986 22.5465 80.2035 22.4879 79.223C22.4815 78.8696 22.4716 78.2196 22.4655 77.8605L22.5035 77.0774C22.6241 74.7789 23.3658 71.7494 25.4729 70.4775C26.5984 69.5628 29.251 67.7835 31.2996 67.4115C32.2292 67.2723 32.4787 68.6111 31.5567 68.8127C30.6115 68.9938 29.6682 69.4593 28.8113 69.9446C27.8448 70.4794 26.9244 71.1701 26.0347 71.8011C25.8446 71.9267 25.6403 72.1461 25.4851 72.3158C24.5449 73.4568 24.1467 75.0003 23.985 76.4525C23.9203 76.8557 23.9203 77.4692 23.8899 77.8845C23.9002 78.2226 23.9029 78.8221 23.9108 79.1534C23.9603 79.6988 23.9869 80.2457 24.0539 80.7889L24.2577 82.2426C24.2842 82.4313 24.236 82.6229 24.1234 82.7767C24.0108 82.9304 23.8428 83.0342 23.6549 83.0661C22.1916 83.322 20.6208 84.1447 20.1176 85.608C19.8156 86.4927 19.8958 87.4192 20.1404 88.3465C20.7349 90.9736 24.5784 90.4677 26.5764 89.8299C28.4895 89.2091 30.3152 88.1749 31.7069 86.7129C32.9294 85.3725 33.9358 83.8024 34.3896 82.0345C34.7802 80.5215 34.7372 78.9449 34.4763 77.3912L34.4755 77.3923Z" fill="#818E95"/>
<path d="M23.3752 81.6823C25.1385 81.9585 26.9011 82.4301 28.4366 83.3308C26.7843 82.8949 25.0469 82.9101 23.3752 83.1071C22.292 83.1973 22.2912 81.5926 23.3752 81.6823Z" fill="#818E95"/>
<path d="M21.8169 91.2627C20.6074 89.9858 20.2533 87.8673 20.9018 86.2462C20.9779 86.0941 21.0627 85.9195 21.1422 85.7734C21.0448 86.6745 21.1243 87.5512 21.4427 88.3834C21.7298 89.1905 22.2212 89.9258 22.6275 90.6655C22.8986 91.1783 22.2212 91.6712 21.8169 91.2631V91.2627Z" fill="#818E95"/>
<path d="M26.3674 91.0501C24.3009 90.2894 23.781 87.6242 24.6014 85.7734C24.7398 87.4797 25.2225 89.0175 26.6644 90.0368C26.6965 90.0591 26.7273 90.0834 26.7565 90.1095L26.8112 90.6967C26.8156 90.7526 26.8062 90.8086 26.7839 90.86C26.7616 90.9113 26.727 90.9564 26.6832 90.9913C26.6394 91.0262 26.5876 91.0498 26.5326 91.06C26.4775 91.0703 26.4208 91.0669 26.3674 91.0501Z" fill="#818E95"/>
<rect x="44.0391" y="61.1895" width="12.325" height="4.01283" transform="rotate(30.7363 44.0391 61.1895)" fill="white"/>
<path opacity="0.3" d="M19.7852 89.4133C25.8533 88.9633 31.4369 87.1536 34.1359 77.1914C34.1359 77.1914 34.2477 77.2119 34.4291 77.2504L34.4759 77.3949C38.2661 88.373 22.4986 94.0969 19.7852 89.4133Z" fill="#818E95"/>
<path d="M37.7989 72.5769C33.4898 73.4581 28.8423 69.2507 28.8423 69.2507C26.7051 70.2868 25.7892 71.1175 25.7892 71.1175C25.0095 69.2956 24.3819 67.5653 23.9936 65.9755C23.2222 62.8345 23.385 60.2474 25.148 58.6126C26.0722 57.7557 27.316 57.3243 28.5757 57.3426L30.9799 57.3772C33.3514 53.2694 36.1907 53.4322 38.2937 54.4458C40.1259 55.3275 41.5142 56.9375 42.1897 58.8579C42.3589 59.336 42.5031 59.8042 42.6274 60.2652C44.4493 67.0541 41.4997 71.8184 37.7989 72.5769Z" fill="#ACB4BE"/>
<path opacity="0.6" d="M42.789 60.9182C42.7399 60.7634 42.687 60.6067 42.6322 60.45C41.9564 58.5327 40.5681 56.9204 38.734 56.0379C36.631 55.0262 33.7917 54.8634 31.4221 58.9689L29.0183 58.9343C27.7563 58.9184 26.5144 59.3478 25.5883 60.2047C23.8539 61.8147 23.6705 64.3452 24.3974 67.4189C23.2107 63.6264 23.1209 60.4896 25.1486 58.6106C26.0728 57.7537 27.3166 57.3224 28.5763 57.3406L30.9805 57.3753C33.352 53.2675 36.1914 53.4302 38.2943 54.4439C40.1265 55.3255 41.5148 56.9356 42.1903 58.856C42.4306 59.5309 42.6305 60.2195 42.789 60.9182Z" fill="white"/>
<path d="M28.8424 69.2499C28.8424 69.2499 33.4904 73.4566 37.799 72.5746C41.7512 71.7656 44.8469 66.3897 42.1906 58.8553C41.5139 56.9364 40.1268 55.326 38.2931 54.4432C36.189 53.4307 33.3485 53.2675 30.98 57.3749L28.5762 57.3407C27.3153 57.3224 26.0723 57.7526 25.1477 58.6103C22.4925 61.0731 23.4696 65.6952 25.7894 71.1152C25.7894 71.1159 26.7052 70.2845 28.8424 69.2499Z" stroke="#818E95" stroke-width="1.4248" stroke-linecap="round" stroke-linejoin="round"/>
<path d="M31.6263 57.6794C31.6198 57.7612 31.5635 57.9418 31.5434 58.0293C31.2688 58.9969 31.0565 59.9691 31.0379 60.9961C31.0082 61.8975 31.1003 62.8217 31.2444 63.722L31.4221 64.6391C30.4837 62.9515 29.8862 61.0672 29.9006 59.1156C29.9006 58.4762 29.9786 57.8098 30.2608 57.2226C30.284 57.1747 30.3015 57.1438 30.3369 57.0761C30.3655 57.023 30.4141 56.9833 30.4719 56.9658C30.5297 56.9483 30.5921 56.9545 30.6454 56.983C30.6536 56.9875 30.6616 56.9924 30.6693 56.9978L31.6271 57.6824L31.6263 57.6794Z" fill="#818E95"/>
<path d="M58.1605 44.5694C58.1148 44.2986 57.8468 43.8954 57.7214 43.6296C57.604 43.3854 56.2558 43.2482 56.072 43.031C56.072 43.031 56.7944 42.4671 56.2689 42.1412C55.7434 41.8154 54.9868 41.3434 54.3869 41.1035C53.787 40.8635 53.1626 40.6508 52.5296 40.4495L52.5211 40.4467C52.4904 40.4369 52.4617 40.4182 52.4399 40.3936C52.4181 40.369 52.4043 40.3401 52.401 40.3115C52.3976 40.283 52.4048 40.2565 52.4213 40.2365C52.4379 40.2165 52.4629 40.2042 52.4921 40.2016C53.1314 40.1432 53.796 40.211 54.4703 40.3624C55.1446 40.5138 55.8328 40.7651 56.4927 41.1428C56.8284 41.3335 57.1466 41.5581 57.4397 41.8113C57.7444 42.0759 58.0063 42.3802 58.2124 42.709C58.626 43.379 58.7484 44.1567 58.4199 44.684C58.4069 44.7042 58.3863 44.7184 58.3609 44.7247C58.3355 44.7309 58.3066 44.7289 58.2784 44.7188C58.2502 44.7087 58.2241 44.6912 58.2037 44.6686C58.1833 44.646 58.1697 44.6196 58.1649 44.5931L58.1605 44.5694Z" fill="#423636"/>
<path d="M28.2152 69.5869L27.0117 65.9268L29.4722 68.9163C30.147 69.8607 28.6237 70.6732 28.2171 69.5869H28.2152Z" fill="#818E95"/>
<path d="M40.1828 66.2036C40.3216 67.7524 39.3772 69.103 38.0733 69.2198C36.7695 69.3366 35.601 68.1761 35.4607 66.6269C35.3203 65.0778 36.2975 64.0656 37.6006 63.9485C38.9036 63.8314 40.0439 64.6544 40.1828 66.2036Z" fill="white"/>
<path d="M36.5984 60.6872C37.2368 60.4417 37.4791 59.5269 37.1395 58.6438C36.8 57.7607 36.0072 57.2437 35.3688 57.4892C34.7304 57.7346 34.4881 58.6495 34.8277 59.5326C35.1672 60.4157 35.9599 60.9326 36.5984 60.6872Z" fill="white"/>
<path d="M34.0327 63.2564C34.6025 63.0374 34.7891 62.1439 34.4496 61.2608C34.1101 60.3777 33.3729 59.8394 32.8032 60.0584C32.2334 60.2775 32.0467 61.171 32.3862 62.0541C32.7258 62.9372 33.4629 63.4755 34.0327 63.2564Z" fill="white"/>
<path d="M40.0976 61.979C40.6964 61.8601 41.0322 61.0113 40.8478 60.0833C40.6634 59.1554 40.0285 58.4996 39.4298 58.6185C38.8311 58.7375 38.4952 59.5863 38.6796 60.5142C38.864 61.4422 39.4989 62.098 40.0976 61.979Z" fill="white"/>
<path opacity="0.3" d="M37.7994 72.5764C33.4904 73.4577 28.8429 69.2502 28.8429 69.2502C26.7057 70.2863 25.7898 71.117 25.7898 71.117C25.0101 69.2951 24.3825 67.5649 23.9941 65.975C24.0634 66.0788 24.1368 66.1967 24.2121 66.3333C25.9933 69.5393 27.0621 67.1476 26.8076 64.778C26.5532 62.4084 31.8283 64.9754 31.8283 64.9754C33.6498 72.7209 43.4983 69.2278 42.574 60.2998L42.6269 60.2617C44.4499 67.0537 41.5003 71.818 37.7994 72.5764Z" fill="#818E95"/>
<path d="M64.2824 61.0645C65.7277 71.194 52.9292 72.3442 52.9787 61.8853C52.9787 61.8853 54.8568 60.594 57.3828 62.22C59.9087 63.846 63.9728 62.5201 64.2824 61.0645Z" fill="#DBDDE4"/>
<path d="M64.2824 61.0661C62.5328 59.0624 58.6532 59.8258 57.3828 62.2216C59.6105 63.3532 62.9618 63.004 64.2824 61.0661Z" fill="#DBDDE4"/>
<path d="M64.2824 61.0645C65.7277 71.194 52.9292 72.3442 52.9787 61.8853C52.9787 61.8853 54.8568 60.594 57.3828 62.22C59.9087 63.846 63.9728 62.5201 64.2824 61.0645Z" stroke="#818E95" stroke-width="1.07602" stroke-linecap="round" stroke-linejoin="round"/>
<path d="M64.2824 61.0661C62.5328 59.0624 58.6532 59.8258 57.3828 62.2216C59.6105 63.3532 62.9618 63.004 64.2824 61.0661Z" stroke="#818E95" stroke-width="1.07602" stroke-linecap="round" stroke-linejoin="round"/>
<path d="M68.0069 58.0586C69.4906 56.5749 69.4906 54.1693 68.0069 52.6855C66.5232 51.2018 64.1175 51.2018 62.6338 52.6855C61.1501 54.1693 61.1501 56.5749 62.6338 58.0586C64.1175 59.5423 66.5232 59.5424 68.0069 58.0586Z" fill="#DBDDE4"/>
<path d="M68.0069 58.0586C69.4906 56.5749 69.4906 54.1693 68.0069 52.6855C66.5232 51.2018 64.1175 51.2018 62.6338 52.6855C61.1501 54.1693 61.1501 56.5749 62.6338 58.0586C64.1175 59.5423 66.5232 59.5424 68.0069 58.0586Z" stroke="#818E95" stroke-width="1.01782" stroke-linecap="round" stroke-linejoin="round"/>
<path d="M67.014 57.0662C67.9496 56.1306 67.9496 54.6136 67.014 53.678C66.0784 52.7423 64.5614 52.7423 63.6258 53.678C62.6901 54.6136 62.6901 56.1306 63.6258 57.0662C64.5614 58.0018 66.0784 58.0018 67.014 57.0662Z" fill="#DBDDE4"/>
<path d="M67.014 57.0662C67.9496 56.1306 67.9496 54.6136 67.014 53.678C66.0784 52.7423 64.5614 52.7423 63.6258 53.678C62.6901 54.6136 62.6901 56.1306 63.6258 57.0662C64.5614 58.0018 66.0784 58.0018 67.014 57.0662Z" stroke="#818E95" stroke-width="0.610846" stroke-linecap="round" stroke-linejoin="round"/>
<path d="M66.9745 53.6416C66.9745 53.6416 65.3078 56.0184 63.8477 57.261L66.9745 53.6416Z" stroke="#818E95" stroke-width="0.575854" stroke-linecap="round" stroke-linejoin="round"/>
<path d="M63.3184 54.0596C63.442 54.1193 64.6416 55.9256 67.3569 56.6334L63.3184 54.0596Z" stroke="#818E95" stroke-width="0.575854" stroke-linecap="round" stroke-linejoin="round"/>
<path opacity="0.5" d="M52.5249 55.9649L64.4581 56.0212C64.638 56.022 64.8129 56.0808 64.9568 56.1888C65.1007 56.2969 65.2059 56.4484 65.2568 56.621C66.9772 62.596 66.6714 67.0681 63.8165 69.6492C61.7074 71.5559 58.6482 71.918 56.0333 70.8017C51.533 68.8801 50.379 63.7933 51.6973 56.6434C51.7338 56.4512 51.8366 56.278 51.9879 56.1539C52.1392 56.0299 52.3293 55.963 52.5249 55.9649Z" fill="#DBDDE4"/>
<path opacity="0.3" d="M63.8151 69.649C61.7076 71.5573 58.6469 71.9194 56.0343 70.8042C55.5389 70.5952 55.0671 70.334 54.627 70.0252C57.0741 70.8144 59.7963 70.3618 61.7255 68.6179C64.5112 66.0992 64.8679 61.7773 63.2849 56.0176L64.4606 56.0233C64.6407 56.0242 64.8157 56.0831 64.9596 56.1914C65.1035 56.2997 65.2086 56.4515 65.2593 56.6242C66.9778 62.5962 66.6712 67.0687 63.8151 69.649Z" fill="#818E95"/>
<path d="M52.5249 55.9649L64.4581 56.0212C64.638 56.022 64.8129 56.0808 64.9568 56.1888C65.1007 56.2969 65.2059 56.4484 65.2568 56.621C66.9772 62.596 66.6714 67.0681 63.8165 69.6492C61.7074 71.5559 58.6482 71.918 56.0333 70.8017C51.533 68.8801 50.379 63.7933 51.6973 56.6434C51.7338 56.4512 51.8366 56.278 51.9879 56.1539C52.1392 56.0299 52.3293 55.963 52.5249 55.9649Z" stroke="#818E95" stroke-width="1.07602" stroke-linecap="round" stroke-linejoin="round"/>
<path opacity="0.7" d="M56.9711 61.931C57.4507 63.9647 57.7443 65.6356 56.3891 65.9555C55.0339 66.2754 53.546 64.8856 53.066 62.8518C52.586 60.8181 53.2965 58.9106 54.6517 58.5919C56.0069 58.2731 56.4914 59.8972 56.9711 61.931Z" fill="white"/>
<path opacity="0.5" d="M60.7695 71.2373C60.6322 74.0105 57.2395 73.6118 57.373 71.2373C58.5878 71.4954 59.72 71.4954 60.7695 71.2373Z" fill="#DBDDE4"/>
<path d="M60.7695 71.2373C60.6322 74.0105 57.2395 73.6118 57.373 71.2373C58.5878 71.4954 59.72 71.4954 60.7695 71.2373Z" stroke="#818E95" stroke-width="1.07602" stroke-linecap="round" stroke-linejoin="round"/>
<path d="M53.6843 73.9763C54.2548 74.699 54.7671 75.5168 55.4339 76.1656C56.1155 76.8457 56.9823 77.3542 57.9518 77.4938C57.4363 77.6123 56.9002 77.6096 56.3859 77.4858C55.0809 77.1606 53.9235 76.2919 53.143 75.209C52.9847 74.9845 52.8496 74.7444 52.7399 74.4925C52.4968 73.8896 53.3104 73.4518 53.6843 73.9763Z" fill="#818E95"/>
<path d="M62.2589 70.1093C64.0884 68.5061 66.8901 68.287 69.1619 68.894C69.6625 69.0234 70.2071 69.2314 70.6746 69.4372C70.3178 69.4083 69.9702 69.3611 69.6217 69.333C69.4418 69.325 69.0132 69.306 68.8409 69.2949C68.6823 69.3014 68.2323 69.3079 68.0676 69.3101C67.895 69.3254 67.4712 69.363 67.3069 69.3752C67.0646 69.4159 66.7976 69.4513 66.5591 69.4984C65.2876 69.7567 64.0644 70.2633 62.9549 70.9297C62.3916 71.3294 61.7637 70.5847 62.2604 70.1074L62.2589 70.1093Z" fill="#818E95"/>
<path d="M61.6151 37.5808L61.5969 37.5864C61.6307 37.6963 61.6424 37.8116 61.6315 37.926C61.6207 38.0404 61.5873 38.1515 61.5335 38.253C61.4796 38.3544 61.4062 38.4443 61.3176 38.5174C61.229 38.5905 61.1269 38.6454 61.0171 38.679C59.8659 39.0244 58.9441 39.055 58.2934 38.9913L58.2934 38.9913C57.9592 38.9603 57.6393 38.8411 57.3662 38.646C57.0932 38.4509 56.8768 38.1869 56.7392 37.8808C56.1245 36.4969 56.1558 35.3746 56.2842 34.6872L56.2842 34.6872C56.3054 34.5722 56.3493 34.4626 56.4132 34.3648C56.4771 34.2669 56.5599 34.1828 56.6567 34.1172C56.7534 34.0516 56.8623 34.0059 56.9768 33.9828C57.0914 33.9596 57.2094 33.9595 57.3241 33.9823L57.3241 33.9824C58.0961 34.1332 59.0252 34.5844 59.8313 35.2236C60.6375 35.8629 61.3185 36.6884 61.597 37.5865L61.6151 37.5808ZM61.6151 37.5808C61.6496 37.6931 61.6616 37.811 61.6505 37.9278C61.6394 38.0447 61.6053 38.1582 61.5503 38.2619C61.4952 38.3655 61.4203 38.4574 61.3297 38.5321C61.2392 38.6068 61.1348 38.6629 61.0225 38.6972L57.3278 33.9637C58.8789 34.2668 61.0552 35.7749 61.6151 37.5808Z" fill="#423636" stroke="#423636" stroke-width="0.0380353"/>
<path d="M55.8906 40.9154L57.6463 38.4473" stroke="#423636" stroke-width="1.22131" stroke-linecap="round" stroke-linejoin="round"/>
<path d="M68.469 45.7763C73.6037 49.3516 79.5985 46.1851 81.4991 39.5427C81.5864 39.2306 81.5713 38.8988 81.4562 38.5958C81.3411 38.2929 81.1319 38.0349 80.8593 37.8596L69.6652 30.6063C69.3149 30.3807 68.8964 30.2853 68.483 30.3369C68.0695 30.3885 67.6873 30.5837 67.4032 30.8885C62.7618 35.8323 62.4073 41.2421 68.469 45.7763Z" fill="#DBDDE4"/>
<path opacity="0.3" d="M81.4999 39.5391C79.5981 46.1812 73.6061 49.3465 68.4702 45.772C66.9925 44.6667 65.8975 43.5108 65.1523 42.3218C65.7989 43.0772 66.5954 43.8158 67.5543 44.5324C72.689 48.1077 78.683 44.9417 80.584 38.2996C80.6401 38.1067 80.6554 37.9042 80.6289 37.7051L80.8609 37.8572C81.133 38.0326 81.3418 38.2905 81.4568 38.5932C81.5718 38.8958 81.5869 39.2273 81.4999 39.5391Z" fill="#818E95"/>
<path opacity="0.6" d="M68.2427 31.3721C63.6024 36.3144 63.2456 41.7249 69.3077 46.2602C69.3837 46.3154 69.4644 46.366 69.542 46.4192C69.17 46.2294 68.8116 46.0144 68.469 45.7757C62.4073 41.2407 62.7614 35.8321 67.404 30.8875C67.6883 30.583 68.0705 30.3881 68.4839 30.3368C68.8973 30.2855 69.3155 30.381 69.6656 30.6068L70.122 30.9039C69.7971 30.7911 69.4464 30.7753 69.1127 30.8584C68.779 30.9416 68.4767 31.12 68.2427 31.3721Z" fill="white"/>
<path d="M52.0296 19.0465L62.7792 26.6421C62.9805 26.7838 63.1228 26.9944 63.1793 27.234C63.2357 27.4736 63.2023 27.7256 63.0854 27.9422C60.4381 32.7901 56.894 34.8437 52.4039 33.9483C48.8761 32.8103 46.5925 30.8336 46.3183 27.504C46.1779 25.8114 46.6279 24.1189 47.5118 22.6697C48.36 21.2784 49.2645 20.0506 50.2808 19.1446C50.5183 18.933 50.8205 18.8081 51.1381 18.7903C51.4557 18.7725 51.77 18.8628 52.0296 19.0465Z" fill="#DBDDE4"/>
<path opacity="0.3" d="M63.0847 27.9408C60.4382 32.7895 56.8945 34.8434 52.404 33.9477C49.7393 33.0888 47.785 31.7515 46.8691 29.714C47.9258 31.1 49.5887 32.079 51.6954 32.7591C56.1859 33.6548 59.73 31.6028 62.3784 26.7541C62.4326 26.6547 62.4691 26.5465 62.486 26.4346L62.7793 26.6422C62.9806 26.7836 63.1229 26.994 63.1792 27.2334C63.2355 27.4728 63.2019 27.7245 63.0847 27.9408Z" fill="#818E95"/>
<path opacity="0.6" d="M52.3678 19.2857C52.1752 19.2664 51.9807 19.2875 51.7967 19.3475C51.6127 19.4076 51.4432 19.5053 51.2991 19.6345C50.2835 20.5405 49.3775 21.7679 48.5308 23.1604C47.6473 24.6095 47.1973 26.3013 47.3381 27.9947C47.5476 30.5271 48.9196 32.2755 51.1161 33.4683C48.3274 32.2839 46.5602 30.4091 46.3202 27.504C46.1799 25.8107 46.6295 24.1212 47.513 22.6697C48.3597 21.2795 49.2657 20.0499 50.2812 19.1439C50.5191 18.9326 50.8214 18.8079 51.1391 18.7903C51.4567 18.7726 51.771 18.8629 52.0309 19.0465L52.3678 19.2857Z" fill="white"/>
<path d="M72.9516 44.8216C71.917 44.8216 70.8897 44.4755 69.8973 43.7947C67.7183 42.1557 66.5346 40.4248 66.3791 38.6493C66.1916 36.5102 67.5228 34.4403 68.8156 32.9668L78.9414 39.5271C77.8182 42.7221 75.4714 44.8228 72.9516 44.8228V44.8216Z" fill="#423636"/>
<path d="M72.249 35.1875L66.4102 38.9024L67.4523 41.3705L74.6836 36.7652L72.249 35.1875Z" fill="#007AFF"/>
<path d="M60.2886 27.8698C58.6177 30.4489 56.6798 31.7068 54.3932 31.7068C53.9322 31.705 53.4724 31.6614 53.0193 31.5767C52.9052 31.5379 52.7933 31.4998 52.6835 31.4626C52.1327 31.2685 51.6 31.0267 51.0913 30.7399C50.7257 30.5326 50.3832 30.2869 50.0697 30.007C49.5079 29.5041 49.1842 28.98 48.9967 28.4661C48.8627 28.0916 48.7805 27.7006 48.7525 27.3038C48.6609 26.1821 48.9602 24.9893 49.5996 23.943C50.2059 22.9434 50.7787 22.1515 51.3317 21.543L54.6925 23.9164L56.5387 25.2233L57.4569 25.8725L58.8452 26.8519L60.2886 27.8698Z" fill="#423636"/>
<path d="M68.3262 42.4181L76.1846 37.7383L77.9369 38.8736L69.8974 43.7912L68.3262 42.4181Z" fill="#007AFF"/>
<path d="M87.8627 49.0177L87.1849 51.3059C86.9772 52.0038 86.3013 52.4743 85.5787 52.3868C85.068 52.3255 84.7329 52.0719 84.5734 51.6261C84.4429 51.264 84.4878 50.8628 84.6548 50.517L85.7376 48.2653C85.7376 48.2653 85.2774 47.5347 84.3106 46.4438C83.0643 45.0445 81.673 43.7814 80.1602 42.6757L81.5526 39.0342C82.1059 39.4759 82.6371 39.9243 83.1463 40.3795C84.8704 41.9165 86.32 43.5307 87.3682 45.2567C87.7094 45.8141 87.9297 46.4368 88.0149 47.0847C88.1001 47.7326 88.0482 48.3911 87.8627 49.0177Z" fill="#DBDDE4"/>
<path d="M68.469 45.7763C73.6037 49.3516 79.5985 46.1851 81.4991 39.5427C81.5864 39.2306 81.5713 38.8988 81.4562 38.5958C81.3411 38.2929 81.1319 38.0349 80.8593 37.8596L69.6652 30.6063C69.3149 30.3807 68.8964 30.2853 68.483 30.3369C68.0695 30.3885 67.6873 30.5837 67.4032 30.8885C62.7618 35.8323 62.4073 41.2421 68.469 45.7763Z" stroke="#818E95" stroke-width="1.01782" stroke-linecap="round" stroke-linejoin="round"/>
<path d="M72.9516 44.8216C71.917 44.8216 70.8897 44.4755 69.8973 43.7947C67.7183 42.1557 66.5346 40.4248 66.3791 38.6493C66.1916 36.5102 67.5228 34.4403 68.8156 32.9668L78.9414 39.5271C77.8182 42.7221 75.4714 44.8228 72.9516 44.8228V44.8216Z" stroke="#423636" stroke-width="1.01782" stroke-linecap="round" stroke-linejoin="round"/>
<path d="M56.5362 25.22L50.0671 30.0037C49.5053 29.5008 49.1817 28.9767 48.9941 28.4629L54.6899 23.9131L56.5362 25.22Z" fill="#007AFF"/>
<path d="M58.8437 26.8478L52.682 31.4603C52.1313 31.2662 51.5985 31.0244 51.0898 30.7377L57.4554 25.8691L58.8437 26.8478Z" fill="#007AFF"/>
<path d="M81.5522 39.0342C83.9781 40.974 86.01 43.0218 87.3716 45.2552C87.7119 45.813 87.9315 46.4359 88.0161 47.0838C88.1008 47.7316 88.0486 48.3901 87.8631 49.0165L87.1845 51.304C86.9772 52.0019 86.3025 52.4724 85.5798 52.3857C85.0691 52.3241 84.7338 52.0705 84.5738 51.625C84.4445 51.2633 84.4893 50.862 84.6555 50.5159L85.738 48.2642C85.738 48.2642 83.9926 45.4922 80.1602 42.673L81.5522 39.0342Z" stroke="#818E95" stroke-width="1.01782" stroke-linecap="round" stroke-linejoin="round"/>
<path d="M52.0296 19.0465L62.7792 26.6421C62.9805 26.7838 63.1228 26.9944 63.1793 27.234C63.2357 27.4736 63.2023 27.7256 63.0854 27.9422C60.4381 32.7901 56.894 34.8437 52.4039 33.9483C48.8761 32.8103 46.5925 30.8336 46.3183 27.504C46.1779 25.8114 46.6279 24.1189 47.5118 22.6697C48.36 21.2784 49.2645 20.0506 50.2808 19.1446C50.5183 18.933 50.8205 18.8081 51.1381 18.7903C51.4557 18.7725 51.77 18.8628 52.0296 19.0465Z" stroke="#818E95" stroke-width="1.01782" stroke-linecap="round" stroke-linejoin="round"/>
<path d="M60.2886 27.8698C58.6177 30.4489 56.6798 31.7068 54.3932 31.7068C53.9322 31.705 53.4724 31.6614 53.0193 31.5767C52.9052 31.5379 52.7933 31.4998 52.6835 31.4626C52.1327 31.2685 51.6 31.0267 51.0913 30.7399C50.7257 30.5326 50.3832 30.2869 50.0697 30.007C49.5079 29.5041 49.1842 28.98 48.9967 28.4661C48.8627 28.0916 48.7805 27.7006 48.7525 27.3038C48.6609 26.1821 48.9602 24.9893 49.5996 23.943C50.2059 22.9434 50.7787 22.1515 51.3317 21.543L54.6925 23.9164L56.5387 25.2233L57.4569 25.8725L58.8452 26.8519L60.2886 27.8698Z" stroke="#423636" stroke-width="1.01782" stroke-linecap="round" stroke-linejoin="round"/>
<path d="M65.6241 33.1191C64.7934 31.404 63.4721 30.4186 61.6562 30.1728C62.188 29.4653 62.6662 28.719 63.0868 27.9402C63.0868 27.9402 66.2604 27.4727 67.0595 31.2629L65.6241 33.1191Z" fill="#DBDDE4"/>
<path d="M65.6241 33.1191C64.7934 31.404 63.4721 30.4186 61.6562 30.1728C62.188 29.4653 62.6662 28.719 63.0868 27.9402C63.0868 27.9402 66.2604 27.4727 67.0595 31.2629L65.6241 33.1191Z" stroke="#818E95" stroke-width="1.01782" stroke-linecap="round" stroke-linejoin="round"/>
<path opacity="0.3" d="M64.1466 28.2934C64.1466 28.2934 63.1162 29.8582 64.0576 30.7231C64.9989 31.588 66.3602 29.9217 66.3602 29.9217L66.9075 31.283L65.7897 32.7842C64.6559 31.5778 63.4806 30.6242 62.2402 30.0746L63.2086 28.0645L64.1466 28.2934Z" fill="#818E95"/>
<path opacity="0.3" d="M87.8629 49.0181L87.1851 51.3063C86.9774 52.0042 86.3015 52.4747 85.5788 52.3872C85.0682 52.3259 84.7331 52.0723 84.5736 51.6265C84.4431 51.2644 84.488 50.8632 84.655 50.5174L85.7378 48.2657C85.7378 48.2657 85.2776 47.5351 84.3107 46.4442C84.7672 43.7875 83.1465 40.3799 83.1465 40.3799C84.8706 41.9169 86.3201 43.5311 87.3684 45.2571C87.7096 45.8145 87.9299 46.4372 88.0151 47.0851C88.1003 47.733 88.0484 48.3915 87.8629 49.0181Z" fill="#818E95"/>
<path opacity="0.3" d="M63.208 14.4334C63.208 14.4334 58.3596 13.0017 57.3418 19.6176L62.0582 17.5819C62.0582 17.5819 60.9316 16.2378 63.208 14.4334Z" fill="#818E95"/>
<path d="M40.5577 51.4721L44.8732 49.7441L41.2838 52.6983C41.136 52.8194 40.9462 52.877 40.756 52.8585C40.5659 52.8401 40.3908 52.7471 40.269 52.5998C39.9575 52.2347 40.1115 51.6432 40.5577 51.4721Z" fill="#818E95"/>
<path d="M103.684 89.4411C103.301 89.8055 102.792 90.0081 102.263 90.0067C101.34 90.0067 100.444 89.3962 100.218 88.3681L100.12 87.9243L97.7973 77.3638L94.5826 54.3905L94.082 52.1148L98.7638 47.7891L98.8513 48.2002L99.7854 52.6123L100.976 58.2385C100.976 58.2385 100.993 58.3119 101.021 58.45L104.973 85.3318C105.129 86.0697 105.093 86.8355 104.867 87.5552C104.641 88.2749 104.234 88.9244 103.684 89.4411Z" fill="#D5D7D8"/>
<path d="M98.768 47.7891L104.977 85.3325C105.132 86.0703 105.096 86.8358 104.87 87.5553C104.644 88.2748 104.237 88.924 103.688 89.4404C102.508 90.5491 100.569 89.9493 100.221 88.3674L94.084 52.1156L98.768 47.7891Z" stroke="#818E95" stroke-width="1.22131" stroke-linecap="round" stroke-linejoin="round"/>
<path d="M95.7793 52.3223L101.482 86.9462C101.482 86.9462 102.412 90.6736 104.372 88.2162L95.7793 52.3223Z" stroke="#818E95" stroke-width="0.814335" stroke-linecap="round" stroke-linejoin="round"/>
<path opacity="0.3" d="M96.6877 67.9502C96.8482 68.7178 96.9562 69.3427 97.0236 69.8474L94.584 54.3914L98.8527 48.2012L99.7868 52.6133C99.7868 52.6133 95.177 60.7201 96.6877 67.9502Z" fill="#818E95"/>
<path opacity="0.3" d="M103.685 89.4411C103.302 89.8056 102.793 90.0081 102.264 90.0067C101.34 90.0067 100.445 89.3962 100.219 88.3681L100.121 87.9243C100.239 87.8166 100.359 87.7128 100.485 87.6131C104.53 84.4049 101.382 60.2019 101.022 58.4492L104.974 85.331C105.13 86.0691 105.094 86.835 104.868 87.5549C104.642 88.2747 104.235 88.9244 103.685 89.4411Z" fill="#818E95"/>
<path d="M100.954 32.8247L51.8923 109.652C51.6746 109.993 51.5304 110.375 51.4691 110.775C51.4078 111.175 51.4307 111.584 51.5363 111.974C51.6418 112.365 51.8278 112.729 52.0823 113.043C52.3367 113.358 52.6541 113.616 53.0139 113.801C53.6532 114.129 54.3914 114.209 55.0861 114.025C55.7807 113.84 56.3825 113.406 56.7753 112.804L106.593 36.4669C106.847 36.0792 107.017 35.6433 107.093 35.1867C107.169 34.73 107.151 34.2625 107.037 33.8135C106.924 33.3645 106.72 32.9438 106.436 32.5778C106.153 32.2118 105.797 31.9083 105.39 31.6867C104.644 31.2794 103.771 31.1704 102.948 31.3817C102.125 31.5929 101.412 32.1086 100.954 32.8247Z" fill="#D5D7D8"/>
<path opacity="0.3" d="M106.594 36.4654L56.776 112.805C56.5216 113.196 56.1768 113.519 55.7708 113.749C55.3648 113.978 54.9096 114.106 54.4436 114.122C53.9776 114.139 53.5146 114.042 53.0937 113.842C52.6728 113.641 52.3063 113.342 52.0254 112.97C52.2497 113.023 52.4795 113.05 52.71 113.051C53.1938 113.051 53.67 112.931 54.0955 112.7C54.5209 112.47 54.8822 112.137 55.1466 111.732L104.964 35.3951C105.357 34.7936 105.546 34.0818 105.505 33.3645C105.463 32.6471 105.192 31.9621 104.732 31.4102C105.234 31.5585 105.694 31.8219 106.076 32.1796C106.458 32.5372 106.751 32.9792 106.932 33.4701C107.113 33.9611 107.177 34.4876 107.119 35.0076C107.06 35.5277 106.881 36.0269 106.596 36.4654H106.594Z" fill="#818E95"/>
<path d="M100.954 32.8247L51.8923 109.652C51.6746 109.993 51.5304 110.375 51.4691 110.775C51.4078 111.175 51.4307 111.584 51.5363 111.974C51.6418 112.365 51.8278 112.729 52.0823 113.043C52.3367 113.358 52.6541 113.616 53.0139 113.801C53.6532 114.129 54.3914 114.209 55.0861 114.025C55.7807 113.84 56.3825 113.406 56.7753 112.804L106.593 36.4669C106.847 36.0792 107.017 35.6433 107.093 35.1867C107.169 34.73 107.151 34.2625 107.037 33.8135C106.924 33.3645 106.72 32.9438 106.436 32.5778C106.153 32.2118 105.797 31.9084 105.39 31.6867C104.644 31.2794 103.771 31.1704 102.948 31.3817C102.125 31.5929 101.412 32.1086 100.954 32.8247Z" stroke="#818E95" stroke-width="1.22131" stroke-linecap="round" stroke-linejoin="round"/>
<path d="M106.45 32.6195C106.043 32.4475 105.606 32.359 105.164 32.3594C104.6 32.359 104.044 32.5009 103.549 32.772C103.054 33.0431 102.635 33.4346 102.331 33.9105L53.2697 110.739C52.9887 111.178 52.8313 111.685 52.8141 112.207C52.7969 112.728 52.9205 113.244 53.1719 113.701L106.45 32.6195Z" stroke="#818E95" stroke-width="1.01782" stroke-linecap="round" stroke-linejoin="round"/>
<path d="M96.855 47.9644C97.2151 47.9644 97.507 47.5526 97.507 47.0447C97.507 46.5368 97.2151 46.125 96.855 46.125C96.495 46.125 96.2031 46.5368 96.2031 47.0447C96.2031 47.5526 96.495 47.9644 96.855 47.9644Z" fill="#818E95"/>
<path d="M66.6285 94.7486C66.9885 94.7486 67.2804 94.3368 67.2804 93.8289C67.2804 93.3209 66.9885 92.9092 66.6285 92.9092C66.2684 92.9092 65.9766 93.3209 65.9766 93.8289C65.9766 94.3368 66.2684 94.7486 66.6285 94.7486Z" fill="#818E95"/>
<path d="M50.2625 86.2775L47.6088 85.3966C47.0413 85.2086 46.4256 85.2281 45.8712 85.4517C45.3167 85.6752 44.8596 86.0882 44.5812 86.6172C44.4096 86.9434 44.3115 87.3032 44.2939 87.6714C44.2763 88.0395 44.3395 88.4071 44.4792 88.7482C44.6188 89.0893 44.8315 89.3957 45.1022 89.6458C45.373 89.8959 45.6952 90.0837 46.0463 90.1959L49.1842 91.1989L50.2625 86.2775Z" stroke="#818E95" stroke-width="1.22131" stroke-linecap="round" stroke-linejoin="round"/>
<path d="M47.6979 88.93C48.2365 88.93 48.6731 88.5388 48.6731 88.0563C48.6731 87.5738 48.2365 87.1826 47.6979 87.1826C47.1593 87.1826 46.7227 87.5738 46.7227 88.0563C46.7227 88.5388 47.1593 88.93 47.6979 88.93Z" fill="#818E95"/>
<path opacity="0.3" d="M37.4602 87.451C37.4602 87.451 35.102 82.3923 39.9618 82.8609L35.0484 81.166C35.2892 83.501 34.7202 85.0981 33.3262 85.9425L37.4602 87.451Z" fill="#818E95"/>
<path opacity="0.3" d="M67.6928 60.2549C67.6928 60.2549 73.8975 69.8249 69.962 74.9331C66.0264 80.0412 55.1164 76.275 53.3113 73.1709C53.3113 73.1709 52.3543 76.445 55.8486 79.4642C59.3429 82.4835 62.9437 82.2807 64.7523 81.9046C66.5608 81.5284 70.9121 79.3627 70.9121 79.3627L75.1412 73.0317C75.1412 73.0317 73.8233 63.0569 72.6222 61.0658L67.6928 60.2549Z" fill="#818E95"/>
<path opacity="0.3" d="M29.4141 70.1825C29.4141 70.1825 31.6201 74.4718 36.6442 74.932C41.6683 75.3922 44.5042 69.4929 43.5506 65.9268C41.235 72.7765 36.6914 74.5992 29.4141 70.1825Z" fill="#818E95"/>
<path opacity="0.3" d="M54.5559 78.7286C54.5559 78.7286 49.164 87.819 34.7285 78.2314L35.5596 81.1697L55.9157 88.116L60.0353 85.2714L61.6632 82.3202C61.6632 82.3202 57.5744 82.4191 54.5559 78.7286Z" fill="#818E95"/>
<path d="M26.2379 92.5283L56.2435 102.837L52.8124 108.21L20.8867 96.8674V94.289L26.2379 92.5283Z" fill="#D5D7D8"/>
<path d="M37.1875 87.4033C37.1875 87.4033 37.5496 93.4418 44.2894 95.6897L37.1875 87.4033Z" stroke="#818E95" stroke-width="1.01782" stroke-linecap="round" stroke-linejoin="round"/>
<path d="M26.2379 92.5283L56.2435 102.837L52.8124 108.21L20.8867 96.8674V94.289L26.2379 92.5283Z" stroke="#818E95" stroke-width="1.22131" stroke-linecap="round" stroke-linejoin="round"/>
<path d="M20.8867 94.2881L54.2193 105.823" stroke="#818E95" stroke-width="1.22131" stroke-linecap="round" stroke-linejoin="round"/>
<path opacity="0.3" d="M21.1415 90.6129L16.4826 98.2017C16.4826 98.2017 15.771 100.522 16.9253 101.251C18.0797 101.981 20.3656 100.738 20.4706 100.635C20.5756 100.532 22.642 97.6609 22.642 97.6609L24.9496 98.4695C24.9496 98.4695 23.7234 93.5333 29.7938 94.0681L26.2383 92.5276L26.9088 90.5791L22.8124 91.0564L21.1415 90.6129Z" fill="#818E95"/>
<path opacity="0.3" d="M43.7331 90.6127C38.5858 89.0153 33.2087 87.0907 32.3769 91.6701L29.25 89.6398L33.796 86.1455L43.3972 89.3005L43.7331 90.6127Z" fill="#818E95"/>
<path opacity="0.6" d="M59.5407 36.5742C59.7048 36.3873 59.427 35.875 58.9202 35.4299C58.4134 34.9848 57.8695 34.7755 57.7054 34.9624C57.5412 35.1493 57.8191 35.6616 58.3259 36.1067C58.8327 36.5518 59.3766 36.7611 59.5407 36.5742Z" fill="white"/>
</svg>
