<svg width="90" height="90" viewBox="0 0 90 90" fill="none" xmlns="http://www.w3.org/2000/svg">
<path d="M59.0481 26.3439C56.0204 23.2767 56.3524 20.9297 57.2585 19.4306C58.4029 17.5367 60.3201 15.4339 63.0862 15.7897C67.0261 16.2952 69.6219 19.8941 68.258 23.7881C67.4433 26.1149 65.934 27.3955 64.5512 28.0984C62.9981 28.8892 61.2909 28.6154 59.0481 26.3423" fill="#ACB4BE"/>
<g opacity="0.2">
<path d="M58.7618 26.2358C61.0852 28.4743 62.8535 28.744 64.4623 27.9658C65.5433 27.4416 66.6998 26.5939 67.5645 25.2246C66.478 25.569 65.1268 25.6657 63.9709 24.7444C61.7526 22.9714 60.2027 19.8336 57.1619 19.0415C57.0745 19.1708 56.9897 19.2989 56.9076 19.4258C55.9695 20.9023 55.6261 23.2157 58.7618 26.2363" fill="#818E95"/>
</g>
<g opacity="0.3">
<path d="M55.918 21.2772C57.1127 19.2186 59.2849 16.6378 62.5369 17.0367C65.9387 17.454 68.4178 19.8878 68.5454 22.8893C69.3187 19.3848 66.7305 16.302 62.9451 15.8383C59.0217 15.3589 56.7452 19.4215 55.918 21.277" fill="white"/>
</g>
<path d="M55.8803 21.0101C56.0289 20.3997 56.2683 19.8207 56.5559 19.2663C56.8434 18.7119 57.1962 18.1911 57.5896 17.7003C57.984 17.2015 58.4286 16.7473 58.9159 16.3454C59.1654 16.1437 59.4273 15.9589 59.6999 15.792C59.9776 15.6298 60.2638 15.4779 60.5678 15.3646C61.1748 15.1276 61.8178 15.0042 62.4667 15C62.6281 15.0049 62.7902 15.0014 62.9497 15.0208L63.1899 15.0432L63.4222 15.0784C63.7322 15.1262 64.0392 15.193 64.3416 15.2786C64.9489 15.451 65.5334 15.6995 66.0821 16.0187C66.6337 16.3412 67.1408 16.7386 67.5899 17.2005C68.4821 18.1291 69.1209 19.3485 69.3047 20.66C69.4084 21.3122 69.3915 21.9797 69.2925 22.6264C69.1981 23.2759 68.982 23.8977 68.7357 24.4819C68.4778 25.0698 68.1594 25.6275 67.7861 26.1452C67.4038 26.6581 66.9647 27.1232 66.4778 27.531C65.5047 28.347 64.3559 28.9058 63.1619 29.2344C63.0466 29.2661 62.9238 29.2492 62.8206 29.1874C62.7173 29.1256 62.6421 29.024 62.6114 28.905C62.5807 28.7859 62.5971 28.6592 62.6569 28.5526C62.7167 28.446 62.8151 28.3683 62.9304 28.3366H62.9333C64.0178 28.0381 65.0494 27.5329 65.9123 26.8094C66.343 26.4485 66.7316 26.0372 67.0703 25.5837C67.4018 25.1226 67.6849 24.6263 67.9147 24.1034C68.1379 23.5708 68.3242 23.0358 68.4046 22.477C68.4889 21.9212 68.5043 21.3548 68.4159 20.8028C68.2572 19.6948 67.711 18.6663 66.9407 17.8707C66.162 17.0757 65.1605 16.5196 64.093 16.229C63.5581 16.0889 62.9997 15.9919 62.4715 15.9925C62.2052 15.9944 61.9396 16.0212 61.6779 16.0725C61.4154 16.1222 61.1578 16.1967 60.9085 16.2951C59.9007 16.6796 59.0182 17.425 58.2898 18.3077C57.5631 19.2016 56.9616 20.2028 56.2911 21.2027C56.2606 21.2479 56.2157 21.2806 56.1642 21.2953C56.1128 21.3099 56.058 21.3055 56.0094 21.2828C55.9607 21.2601 55.9213 21.2205 55.898 21.171C55.8747 21.1214 55.8689 21.065 55.8816 21.0115" fill="#818E95"/>
<path d="M33.0509 26.3439C36.2668 23.2775 35.9149 20.9297 34.9522 19.4306C33.7362 17.5367 31.6991 15.4339 28.7603 15.7897C24.5738 16.2952 21.816 19.8941 23.2648 23.7881C24.1305 26.1149 25.7342 27.3955 27.2034 28.0984C28.8536 28.8892 30.6675 28.6154 33.0509 26.3423" fill="#ACB4BE"/>
<g opacity="0.2">
<path d="M32.7988 26.2358C30.4756 28.4743 28.7071 28.744 27.0982 27.9658C26.0173 27.4416 24.8608 26.5939 23.9961 25.2246C25.0826 25.569 26.4338 25.6657 27.5897 24.7444C29.808 22.9714 31.3582 19.8336 34.399 19.0415C34.4864 19.1708 34.571 19.2989 34.653 19.4258C35.5911 20.9023 35.9345 23.2157 32.7988 26.2363" fill="#818E95"/>
</g>
<g opacity="0.3">
<path d="M35.6433 21.2772C34.4488 19.2186 32.2764 16.6378 29.0246 17.0367C25.6226 17.454 23.1435 19.8878 23.0158 22.8893C22.2426 19.3848 24.8307 16.302 28.6162 15.8383C32.5395 15.3589 34.8163 19.4215 35.6433 21.277" fill="white"/>
</g>
<path d="M35.2049 21.2011C34.5346 20.2007 33.9329 19.1995 33.2066 18.3061C32.4779 17.4234 31.5953 16.678 30.5881 16.2935C30.3387 16.1951 30.0811 16.1205 29.8185 16.0709C29.5568 16.0197 29.2913 15.9929 29.025 15.9909C28.496 15.9909 27.9384 16.0873 27.4039 16.2274C26.3362 16.5191 25.335 17.0741 24.5582 17.8707C23.7878 18.6663 23.2424 19.6949 23.0832 20.8029C22.9948 21.3546 23.0099 21.9227 23.0943 22.4769C23.1786 23.031 23.3611 23.5713 23.5844 24.1036C23.8142 24.6265 24.0972 25.1227 24.4286 25.5839C24.7672 26.0375 25.1557 26.449 25.5863 26.8099C26.4478 27.5331 27.4809 28.0389 28.5653 28.3369H28.5682C28.6835 28.3686 28.7818 28.4463 28.8416 28.5528C28.9014 28.6594 28.9177 28.7861 28.887 28.9051C28.8564 29.0241 28.7811 29.1257 28.6779 29.1874C28.5748 29.2492 28.452 29.2661 28.3368 29.2344C27.1426 28.9066 25.9939 28.3473 25.0208 27.5312C24.5341 27.1233 24.0951 26.6583 23.7126 26.1454C23.3394 25.6276 23.0211 25.07 22.7631 24.4821C22.5171 23.8979 22.3011 23.276 22.2077 22.6265C22.1085 21.9798 22.0916 21.312 22.1953 20.6601C22.3804 19.3491 23.0181 18.1283 23.9102 17.2005C24.3592 16.7386 24.8663 16.3411 25.4178 16.0187C25.9665 15.6996 26.551 15.451 27.1582 15.2786C27.4604 15.1929 27.7673 15.126 28.0773 15.0784L28.3095 15.0434L28.5497 15.021C28.7084 15.0016 28.8716 15.0049 29.0327 15C29.6813 15.0037 30.3241 15.1264 30.9312 15.3624C31.2351 15.4758 31.5213 15.6276 31.799 15.7899C32.0715 15.9572 32.3333 16.1424 32.5829 16.3443C33.07 16.7464 33.5146 17.2005 33.9091 17.6992C34.3021 18.1908 34.6574 18.7098 34.9427 19.2653C35.2281 19.8208 35.4696 20.399 35.6183 21.0091C35.6312 21.0627 35.6254 21.1193 35.6021 21.169C35.5788 21.2187 35.5393 21.2584 35.4906 21.2811C35.4419 21.3038 35.3869 21.3082 35.3354 21.2935C35.2839 21.2787 35.239 21.2457 35.2086 21.2003" fill="#818E95"/>
<path d="M64.4135 30.75C64.5193 29.9573 64.5723 29.1587 64.5722 28.3593C64.5722 18.2405 56.1289 10.0083 45.7505 10.0083C35.3722 10.0083 26.9289 18.2405 26.9289 28.3593C26.9288 29.1587 26.9818 29.9573 27.0875 30.75H25.2699C25.1734 29.9566 25.125 29.1583 25.125 28.3593C25.125 17.2706 34.3777 8.25 45.75 8.25C57.1223 8.25 66.375 17.2711 66.375 28.3593C66.3752 29.1583 66.3268 29.9566 66.2301 30.75H64.4135Z" fill="#BFBFBF"/>
<path d="M66.3742 28.3583C66.3742 28.563 66.3705 28.7677 66.3655 28.9713C66.347 29.567 66.301 30.1617 66.2304 30.75H64.4127C64.492 30.1628 64.5407 29.5668 64.5619 28.9713C64.5682 28.7679 64.5719 28.563 64.5719 28.3596C64.5719 18.2424 56.1294 10.0109 45.7503 10.0109C35.3711 10.0109 26.9289 18.2409 26.9289 28.3583C26.9289 28.5617 26.9326 28.7666 26.9387 28.97C26.9598 29.5657 27.0095 30.1617 27.0878 30.7487H25.2704C25.1982 30.1615 25.1525 29.5668 25.1337 28.97C25.1287 28.7664 25.125 28.5617 25.125 28.357C25.125 17.2698 34.3774 8.25 45.75 8.25C57.1226 8.25 66.375 17.2701 66.375 28.357" fill="#BFBFBF"/>
<path d="M66.375 29.7794C66.375 30.605 66.327 31.43 66.2311 32.25H64.4135C64.4664 31.8333 64.5079 31.4127 64.534 30.991C64.56 30.5878 64.5728 30.184 64.5727 29.7794C64.5727 29.5692 64.569 29.3603 64.5626 29.1525C64.569 28.9421 64.5727 28.7308 64.5727 28.5204C64.5727 18.0649 56.13 9.55811 45.7507 9.55811C35.3713 9.55811 26.9289 18.0646 26.9289 28.5204C26.9289 28.7308 26.9326 28.9421 26.9387 29.1525C26.9326 29.3603 26.9289 29.5692 26.9289 29.7794C26.9289 30.1838 26.9417 30.5876 26.9673 30.991C26.9937 31.4127 27.0344 31.8333 27.0878 32.25H25.2704C25.1734 31.4301 25.1249 30.6051 25.125 29.7794C25.125 29.5705 25.1276 29.3614 25.1337 29.1539C25.4643 17.9836 34.5852 9 45.7507 9C56.9161 9 66.036 17.9847 66.3663 29.1539C66.3726 29.3614 66.375 29.5705 66.375 29.7794Z" fill="#B5B5B5"/>
<path d="M66.1845 31.5H63.5149L63.5796 30.9918C63.6806 30.1972 63.7312 29.3967 63.7313 28.5954C63.7313 18.455 55.6655 10.2051 45.7513 10.2051C35.8371 10.2051 27.7711 18.455 27.7711 28.5954C27.7711 29.3967 27.8217 30.1972 27.9227 30.9918L27.9877 31.5H25.3162L25.2699 31.103C25.1735 30.2707 25.1251 29.4334 25.125 28.5954C25.125 16.963 34.3778 7.5 45.75 7.5C57.1222 7.5 66.375 16.9638 66.375 28.5954C66.3749 29.4335 66.3266 30.2709 66.2301 31.1032L66.1845 31.5ZM64.5105 30.6001H65.3991C65.463 29.9384 65.4956 29.2647 65.4956 28.5956C65.4956 17.4595 56.6383 8.40019 45.7505 8.40019C34.8627 8.40019 26.0054 17.4601 26.0054 28.5956C26.0054 29.2645 26.038 29.9368 26.1019 30.6001H26.9919C26.9246 29.9341 26.8908 29.2651 26.8907 28.5956C26.8907 17.9587 35.3529 9.30515 45.751 9.30515C56.1492 9.30515 64.6111 17.9587 64.6111 28.5956C64.6111 29.265 64.5775 29.9339 64.5105 30.5998V30.6001Z" fill="#818E95"/>
<path d="M56.0862 14.0252C49.6483 10.0582 42.6056 10.0558 36.1638 14.0252C35.4253 14.4803 34.4639 14.2225 34.0544 13.4499C33.8879 13.135 33.7213 12.8201 33.5544 12.5053C33.1849 11.8068 33.4019 10.932 34.0604 10.5053C41.7902 5.49863 50.4572 5.49783 58.1895 10.5053C58.8483 10.932 59.0651 11.8062 58.6955 12.5053L58.1955 13.4499C57.7868 14.2225 56.8247 14.4803 56.0862 14.0252Z" fill="#A5A5A5"/>
<g opacity="0.7">
<path d="M58.5244 12.4801C58.4217 12.1443 58.2025 11.8562 57.9063 11.6676C50.1571 6.72352 41.4682 6.72483 33.7213 11.6676C33.4252 11.8566 33.2056 12.1445 33.1017 12.4801C33.0036 12.1665 33.0111 11.8293 33.123 11.5203C33.2349 11.2113 33.4451 10.9476 33.7213 10.7696C41.4682 5.82682 50.1561 5.82551 57.9063 10.7696C58.1827 10.9474 58.393 11.2112 58.5047 11.5203C58.6164 11.8294 58.6233 12.1667 58.5244 12.4801Z" fill="white"/>
</g>
<path d="M58.6952 12.648C58.5294 12.9374 58.3623 13.2259 58.1965 13.5143C58.0994 13.682 57.9667 13.8294 57.8063 13.9476C57.6459 14.0659 57.4614 14.1524 57.2639 14.2019C57.0665 14.2514 56.8603 14.2628 56.6579 14.2356C56.4555 14.2083 56.2612 14.1429 56.0869 14.0432C49.6479 10.4022 42.6056 10.4001 36.1643 14.0432C35.99 14.1429 35.7957 14.2083 35.5933 14.2356C35.3909 14.2628 35.1847 14.2514 34.9872 14.2019C34.7898 14.1524 34.6052 14.0659 34.4449 13.9476C34.2845 13.8294 34.1518 13.682 34.0547 13.5143C33.8875 13.2259 33.7217 12.9374 33.5546 12.648C33.4254 12.4249 33.3639 12.1732 33.3766 11.9199C33.3894 11.6667 33.476 11.4215 33.6271 11.2106C33.7695 11.4576 33.912 11.7052 34.0547 11.9534C34.4637 12.6619 35.4258 12.8987 36.1643 12.4811C42.6056 8.83914 49.6479 8.84012 56.0869 12.4811C56.8254 12.8987 57.7867 12.6619 58.1965 11.9534C58.3388 11.7052 58.4812 11.4576 58.6238 11.2106C58.7746 11.4216 58.8608 11.6669 58.8734 11.9201C58.886 12.1733 58.8244 12.4249 58.6952 12.648Z" fill="#848484"/>
<path d="M35.052 15C34.8802 15.0001 34.7092 14.9773 34.5434 14.9322C34.2902 14.8641 34.0538 14.7446 33.8487 14.5811C33.6436 14.4176 33.4742 14.2136 33.351 13.9818L32.8547 13.0542C32.378 12.1653 32.6658 11.0469 33.5095 10.507C37.4091 8.01408 41.5269 6.75 45.7494 6.75C49.9718 6.75 54.0904 8.01382 57.9903 10.507C58.8342 11.0467 59.122 12.1653 58.6454 13.0542L58.1479 13.9818C58.0249 14.2136 57.8555 14.4175 57.6505 14.581C57.4454 14.7445 57.2089 14.8639 56.9559 14.932C56.7002 15.0011 56.4332 15.0175 56.1709 14.9804C55.9087 14.9432 55.6568 14.8531 55.4303 14.7156C49.1879 10.9194 42.3121 10.9194 36.0695 14.7156C35.7626 14.9018 35.4107 15.0002 35.052 15ZM45.7491 7.61601C41.7629 7.61601 37.7782 8.82821 33.9845 11.2534C33.5287 11.5448 33.3745 12.1509 33.6331 12.6335L34.1295 13.562C34.1961 13.6876 34.2877 13.7981 34.3988 13.8866C34.5098 13.9751 34.6379 14.0398 34.7749 14.0766C34.9146 14.1152 35.0607 14.1245 35.2041 14.1041C35.3476 14.0837 35.4853 14.034 35.6087 13.958C42.1471 9.98149 49.349 9.98149 55.8876 13.958C56.0109 14.034 56.1484 14.0837 56.2916 14.1041C56.4348 14.1246 56.5807 14.1153 56.7202 14.0769C56.8572 14.0401 56.9853 13.9755 57.0964 13.887C57.2074 13.7984 57.2991 13.6879 57.3656 13.5623L57.863 12.6348C58.1216 12.1522 57.9671 11.5461 57.5116 11.2547C53.7197 8.82977 49.7343 7.61601 45.7491 7.61601Z" fill="#818E95"/>
<path d="M47.625 52.69C56.6585 52.7589 65.6121 58.9278 65.9594 58.8395C66.3068 58.7512 68.3642 55.7368 68.6448 53.443C68.7784 52.3616 75.8343 51.7345 76.0751 54.2777C76.3158 56.8209 75.9147 66.0209 69.6209 68.3265C61.9752 71.1265 57.5434 64.2904 57.5434 64.2904" fill="#ACB4BE"/>
<path d="M47.625 52.69C56.6585 52.7589 65.6121 58.9278 65.9594 58.8395C66.3068 58.7512 68.3642 55.7368 68.6448 53.443C68.7784 52.3616 75.8343 51.7345 76.0751 54.2777C76.3158 56.8209 75.9147 66.0209 69.6209 68.3265C61.9752 71.1265 57.5434 64.2904 57.5434 64.2904" fill="#ACB4BE"/>
<g opacity="0.2">
<path d="M73.7053 64.6403C72.7462 66.3941 71.3688 67.8761 69.4087 68.636C61.9088 71.5455 57.5631 64.4422 57.5631 64.4422L47.832 52.3882C51.1827 52.4144 54.521 53.3488 57.3959 54.493C57.3959 54.493 61.4194 66.2675 68.3081 66.1572C70.3728 66.1249 72.2537 65.5588 73.7053 64.6395" fill="#818E95"/>
</g>
<path d="M65.8885 69.75C63.6115 69.75 61.7826 68.8766 60.4985 67.9708C58.4472 66.5242 57.3482 64.7306 57.3024 64.655C57.2722 64.6051 57.252 64.5498 57.243 64.4921C57.234 64.4344 57.2363 64.3755 57.2499 64.3187C57.2634 64.2619 57.2878 64.2083 57.3218 64.1611C57.3558 64.1139 57.3987 64.0738 57.448 64.0434C57.4973 64.0129 57.5521 63.9925 57.6092 63.9834C57.6663 63.9743 57.7246 63.9766 57.7808 63.9903C57.8369 64.0039 57.8899 64.0287 57.9367 64.063C57.9834 64.0974 58.023 64.1407 58.0532 64.1905C58.0633 64.2073 59.1175 65.9203 61.0266 67.2583C63.5457 69.0242 66.302 69.3392 69.2192 68.1953C71.7013 67.222 73.4631 64.9012 74.4557 61.2972C75.28 58.3051 75.2989 55.2663 75.1938 54.0776C75.1299 53.3573 74.3097 53.0049 73.6327 52.8356C71.665 52.3442 69.1617 52.8751 68.8663 53.2561C68.5955 55.4973 66.6494 59.0078 65.9449 59.1994C65.7018 59.2653 65.57 59.1871 64.5448 58.5761C61.9387 57.023 55.0147 52.8931 48.0633 52.8366C47.9466 52.8361 47.8348 52.7888 47.7526 52.7051C47.6704 52.6213 47.6245 52.508 47.625 52.39C47.6255 52.272 47.6723 52.1591 47.7552 52.076C47.8381 51.9929 47.9502 51.9465 48.0669 51.947H48.0706C55.2571 52.0056 62.3304 56.2226 64.9932 57.8103C65.286 57.9848 65.5675 58.1525 65.7477 58.2522C66.2623 57.6242 67.7689 55.1166 67.9964 53.1218C68.1295 51.9565 70.9179 51.7375 71.9762 51.7505C74.4189 51.7825 75.9501 52.6229 76.0718 53.9991C76.3483 57.1242 75.7414 66.5932 69.5387 69.0255C68.2227 69.5412 67.0018 69.75 65.8885 69.75Z" fill="#818E95"/>
<path d="M64.1984 61.0836C64.6219 60.6582 64.9721 60.1585 65.2928 59.6377C65.6135 59.1168 65.9027 58.5697 66.1885 58.0173C66.2179 57.9603 66.2583 57.9094 66.3076 57.8677C66.3569 57.826 66.414 57.7943 66.4757 57.7743C66.5375 57.7544 66.6026 57.7466 66.6674 57.7514C66.7322 57.7562 66.7954 57.7735 66.8534 57.8024C66.9114 57.8312 66.963 57.871 67.0054 57.9195C67.0478 57.968 67.08 58.0243 67.1003 58.085C67.1206 58.1458 67.1285 58.2099 67.1236 58.2737C67.1187 58.3374 67.1011 58.3996 67.0718 58.4567C67.062 58.4757 67.051 58.494 67.039 58.5116C66.6774 59.0331 66.3059 59.5536 65.8998 60.0553C65.4938 60.557 65.0506 61.0416 64.5251 61.4481C64.4757 61.4863 64.4134 61.5045 64.3508 61.4991C64.2883 61.4937 64.2301 61.465 64.1882 61.419C64.1463 61.373 64.1237 61.313 64.1251 61.2512C64.1264 61.1894 64.1516 61.1304 64.1955 61.0862L64.1984 61.0836Z" fill="#818E95"/>
<path d="M43.125 52.5C40.1184 52.7498 34.271 53.3782 28.0498 57.631C22.0649 61.7226 14.4547 69.6231 19.0167 74.0982C22.4888 77.5039 25.8949 74.7399 27.1405 73.7885C28.3861 72.837 31.4164 64.5998 35.2765 63.3413" fill="#ACB4BE"/>
<path d="M22.4508 76.5C21.1974 76.5 19.8216 76.043 18.4368 74.7237C17.2735 73.6157 16.7557 72.2503 16.898 70.6651C17.2799 66.4104 22.6197 61.0751 27.7423 57.6747C34.4506 53.2216 40.712 52.7168 43.3859 52.5015C43.445 52.4967 43.5046 52.5034 43.5611 52.5213C43.6177 52.5391 43.6701 52.5677 43.7154 52.6054C43.7606 52.6431 43.7979 52.6892 43.825 52.741C43.8522 52.7928 43.8686 52.8494 43.8735 52.9075C43.8783 52.9656 43.8715 53.024 43.8533 53.0795C43.8352 53.135 43.806 53.1865 43.7676 53.2309C43.7292 53.2753 43.6823 53.3119 43.6294 53.3385C43.5766 53.3652 43.519 53.3813 43.4598 53.3861C40.8569 53.5949 34.761 54.0872 28.2492 58.41C23.3038 61.6926 18.1549 66.779 17.7991 70.7429C17.6802 72.0673 18.0948 73.161 19.0666 74.0868C22.2543 77.1231 25.366 74.8057 26.6947 73.8162L26.7925 73.7436C27.1282 73.4943 27.7672 72.3685 28.4441 71.1769C30.1172 68.23 32.4087 64.1943 35.2525 63.294C35.3666 63.2579 35.4907 63.2677 35.5974 63.3214C35.7042 63.375 35.7848 63.4681 35.8216 63.5801C35.8585 63.6921 35.8484 63.8139 35.7938 63.9187C35.7391 64.0234 35.6443 64.1026 35.5301 64.1387C33.0254 64.9317 30.743 68.9499 29.2342 71.6089C28.3348 73.1934 27.8032 74.1067 27.338 74.4515L27.2415 74.5235C26.3694 75.173 24.587 76.5 22.4508 76.5Z" fill="#818E95"/>
<path d="M26.1682 69.75C26.9965 70.7777 29.7411 73.8833 26.7918 74.8283C23.539 75.8702 23.6252 71.8307 23.6252 71.8307" fill="#818E95"/>
<path d="M26.1753 75.75C25.6775 75.75 25.2393 75.5979 24.8642 75.2941C23.593 74.2645 23.6234 71.8632 23.6254 71.7617C23.6277 71.6386 23.6745 71.5215 23.7555 71.4363C23.8364 71.351 23.945 71.3045 24.0572 71.3071C24.1694 71.3096 24.2761 71.361 24.3538 71.4498C24.4315 71.5386 24.4738 71.6577 24.4715 71.7808C24.4623 72.341 24.6054 73.9322 25.3675 74.5482C25.7656 74.8703 26.3199 74.9055 27.0137 74.6538C27.5597 74.4556 27.8773 74.1684 27.9843 73.7758C28.2924 72.6476 26.9291 70.7578 26.347 69.9507C26.2945 69.8778 26.246 69.8106 26.2029 69.75C26.1338 69.653 26.1027 69.5298 26.1165 69.4076C26.1302 69.2853 26.1876 69.1741 26.2761 69.0983C26.3645 69.0225 26.4768 68.9884 26.5882 69.0035C26.6996 69.0185 26.801 69.0815 26.8701 69.1786C26.9122 69.2378 26.9595 69.3034 27.0107 69.3746C27.7862 70.4495 29.2296 72.4505 28.7951 74.0433C28.6055 74.7379 28.0955 75.2403 27.2795 75.5362C26.8851 75.6789 26.5171 75.7502 26.1753 75.75Z" fill="#818E95"/>
<path d="M61.4759 78H30.0257C28.5722 71.8871 31.3785 65.2647 33.5557 61.3285C34.7575 59.158 35.7682 57.8043 35.7682 57.8043L45.7505 51.75L55.7331 57.803C55.7331 57.803 56.7426 59.1567 57.9443 61.3272C60.1212 65.2634 62.9278 71.8858 61.4743 77.9987" fill="white"/>
<path d="M58.125 61.6929C54.6297 62.9891 50.3608 63.75 45.75 63.75C41.1392 63.75 36.8703 62.9891 33.375 61.6929C34.594 59.4751 35.6194 58.0919 35.6194 58.0919L45.75 50.25L55.8803 58.0919C55.8803 58.0919 56.9057 59.4751 58.1247 61.6929" fill="#ACB4BE"/>
<path d="M58.6813 73.5H33.5685C33.4445 73.5 33.3218 73.5265 33.2074 73.578C33.0929 73.6296 32.9889 73.7051 32.9012 73.8003C32.8136 73.8955 32.7441 74.0085 32.6967 74.1329C32.6493 74.2573 32.625 74.3906 32.625 74.5252V74.7248C32.625 74.8594 32.6493 74.9927 32.6967 75.1171C32.7441 75.2415 32.8136 75.3545 32.9012 75.4497C32.9889 75.5449 33.0929 75.6204 33.2074 75.672C33.3218 75.7235 33.4445 75.75 33.5685 75.75H58.6813C58.9316 75.75 59.1716 75.642 59.3486 75.4497C59.5256 75.2575 59.625 74.9967 59.625 74.7248V74.5252C59.625 74.2533 59.5256 73.9925 59.3486 73.8003C59.1716 73.608 58.9316 73.5 58.6813 73.5Z" fill="#6B6B6B"/>
<path d="M58.2451 76.5H33.2546C32.8888 76.4996 32.5381 76.3512 32.2795 76.0875C32.0208 75.8238 31.8753 75.4662 31.875 75.0933V74.907C31.8753 74.534 32.0208 74.1764 32.2794 73.9127C32.5381 73.6489 32.8888 73.5005 33.2546 73.5H58.2451C58.611 73.5004 58.9618 73.6488 59.2205 73.9126C59.4792 74.1763 59.6247 74.534 59.625 74.907V75.0933C59.6247 75.4663 59.4792 75.8239 59.2205 76.0876C58.9617 76.3513 58.611 76.4997 58.2451 76.5ZM33.2546 74.3989C33.1226 74.3991 32.996 74.4527 32.9026 74.548C32.8092 74.6432 32.7567 74.7723 32.7566 74.907V75.0933C32.7567 75.2279 32.8092 75.357 32.9026 75.4523C32.996 75.5475 33.1226 75.6011 33.2546 75.6013H58.2451C58.3772 75.6012 58.5038 75.5476 58.5972 75.4524C58.6906 75.3571 58.7431 75.228 58.7432 75.0933V74.907C58.7431 74.7723 58.6906 74.6432 58.5972 74.5479C58.5038 74.4527 58.3772 74.3991 58.2451 74.3989H33.2546Z" fill="#818E95"/>
<path d="M52.875 75H38.625V75.75H52.875V75Z" fill="#DBDDE4"/>
<path d="M53.1736 76.5H38.3264C38.2067 76.5 38.0919 76.4463 38.0072 76.3506C37.9226 76.255 37.875 76.1253 37.875 75.99V74.76C37.875 74.6247 37.9226 74.495 38.0072 74.3994C38.0919 74.3037 38.2067 74.25 38.3264 74.25H53.1736C53.2933 74.25 53.4081 74.3037 53.4928 74.3994C53.5774 74.495 53.625 74.6247 53.625 74.76V75.99C53.625 76.1253 53.5774 76.255 53.4928 76.3506C53.4081 76.4463 53.2933 76.5 53.1736 76.5ZM38.7778 75.48H52.7219V75.27H38.7778V75.48Z" fill="#818E95"/>
<path d="M51.6877 53.25C57.2348 52.4468 62.432 51.6784 64.7248 46.9264C66.4187 43.4148 65.2022 39.8572 65.202 39.8505C65.1579 39.6407 66.0522 25.0034 54.6236 19.8723C51.4013 18.4257 48.3729 18.0374 45.386 18C42.3994 18.0348 39.3705 18.4206 36.147 19.8644C24.7139 24.9857 25.5947 39.6241 25.5507 39.8336C25.5507 39.839 24.3306 43.3969 26.0217 46.91C28.31 51.664 33.5064 52.4368 39.053 53.2449L51.6877 53.25Z" fill="white"/>
<g opacity="0.2">
<path d="M65.3476 47.0001C63.0292 51.8637 57.7725 52.65 52.1632 53.472C52.1632 53.472 49.0516 54.1627 45.622 54.1627C42.1925 54.1627 39.3868 53.4665 39.3868 53.4665C33.7775 52.6393 28.5237 51.8488 26.2094 46.9833C25.2446 44.9548 25.2168 42.9114 25.3762 41.5156C25.4969 42.5014 25.7745 43.4616 26.1984 44.3598C27.941 48.0232 31.3823 49.9612 35.3704 51.0488C37.427 51.6092 39.5527 51.8752 41.684 51.876L45.6103 52.0351L49.9423 51.8797C52.089 51.8797 54.2313 51.6176 56.3009 51.0454C60.2382 49.9592 63.5967 48.0245 65.3356 44.3769C65.7749 43.4475 66.0581 42.4521 66.1738 41.4307C66.345 42.8288 66.3377 44.9215 65.3476 46.9993" fill="#818E95"/>
</g>
<path d="M42.9666 53.9957C41.8756 53.9614 40.7956 53.8526 39.7197 53.7183C38.6439 53.584 37.5693 53.4164 36.4932 53.2333C35.4163 53.0463 34.3382 52.8283 33.2721 52.5275C32.2061 52.2266 31.1522 51.842 30.1581 51.3056C29.1641 50.7692 28.2388 50.075 27.4832 49.2137C27.1048 48.7851 26.7683 48.3213 26.4784 47.8286C26.187 47.3384 25.9409 46.8226 25.743 46.2878C25.5464 45.7529 25.396 45.2022 25.2936 44.6416C25.1939 44.083 25.1383 43.5173 25.1274 42.95C25.1159 42.3846 25.146 41.8191 25.2172 41.2581C25.2528 40.9779 25.2986 40.6987 25.3545 40.4205C25.3834 40.2816 25.4134 40.1429 25.4485 40.0039L25.5032 39.7953L25.5331 39.6896L25.5491 39.6362L25.5577 39.6088L25.562 39.5951C25.5579 39.6084 25.5544 39.622 25.5517 39.6356C25.5481 39.6535 25.5458 39.6717 25.5447 39.6899L25.5533 39.6307C25.5492 39.6471 25.5466 39.6638 25.5455 39.6806C25.5455 39.7064 25.5455 39.6821 25.5455 39.685V39.662V39.6003V39.4691L25.5437 39.203C25.5437 39.0254 25.5449 38.8476 25.5473 38.6697C25.5533 38.3144 25.5669 37.9592 25.586 37.6044C25.6249 36.8952 25.6883 36.1881 25.776 35.483C25.9494 34.0708 26.2283 32.6737 26.6105 31.3032C26.9959 29.9324 27.4946 28.5889 28.1301 27.3063C28.7656 26.0238 29.5335 24.8012 30.4506 23.6937C31.3666 22.5808 32.4254 21.5938 33.5997 20.7583C34.7713 19.9241 36.0619 19.2513 37.3923 18.7394C38.0585 18.4793 38.7376 18.2532 39.4268 18.062C40.1162 17.874 40.8146 17.7206 41.5194 17.6025C42.9295 17.3644 44.3453 17.2668 45.7709 17.25C47.1965 17.2689 48.6118 17.3711 50.0211 17.6116C50.7253 17.7315 51.4231 17.8866 52.1119 18.0764C52.8003 18.2689 53.4784 18.4964 54.1435 18.758C55.4721 19.2725 56.7599 19.9478 57.9284 20.7836C59.0993 21.6204 60.1549 22.6081 61.0677 23.7211C61.9814 24.8293 62.7491 26.0506 63.3786 27.3329C64.0082 28.6152 64.5066 29.9579 64.8891 31.3278C65.2685 32.6973 65.5446 34.0933 65.7151 35.5042C65.8016 36.2085 65.8661 36.9151 65.9049 37.6238C65.9243 37.9778 65.9375 38.3324 65.9443 38.6876C65.9474 38.8652 65.949 39.0429 65.949 39.2206L65.9477 39.4864V39.6173V39.6793V39.703C65.9477 39.7005 65.9477 39.7247 65.9477 39.6997C65.9468 39.6842 65.9442 39.6688 65.9402 39.6537L65.9485 39.7095C65.9475 39.6922 65.9453 39.6749 65.942 39.6579C65.9405 39.6462 65.9301 39.6127 65.9325 39.6204L65.9369 39.6341L65.9454 39.6615L65.9616 39.7152L65.9918 39.8206C66.0115 39.8908 66.0298 39.9605 66.0471 40.0303C66.0824 40.1695 66.1132 40.3087 66.1421 40.4484C66.1992 40.7275 66.2455 41.0079 66.2809 41.2896C66.3531 41.8534 66.3838 42.4217 66.3728 42.99C66.3626 43.5605 66.3069 44.1293 66.2063 44.6909C66.1033 45.2551 65.9519 45.8093 65.7538 46.3474C65.5529 46.8853 65.3038 47.404 65.0097 47.897C64.7163 48.3929 64.3749 48.8587 63.9904 49.2878C63.2217 50.1488 62.2837 50.8459 61.2801 51.3764C60.7797 51.6404 60.2632 51.8726 59.7337 52.0716C59.2066 52.2689 58.6715 52.4363 58.1333 52.583C57.0572 52.8756 55.9703 53.0874 54.8854 53.2684C52.7138 53.6246 50.5554 53.9107 48.3609 53.9998C48.3064 54.002 48.253 53.9838 48.2111 53.9489C48.1692 53.914 48.1417 53.8649 48.1338 53.8109C48.126 53.7569 48.1384 53.7019 48.1687 53.6565C48.199 53.6112 48.245 53.5786 48.2979 53.5652H48.2992C49.3637 53.2971 50.4369 53.0933 51.513 52.91C52.5891 52.7266 53.6614 52.5752 54.7274 52.387C55.7935 52.1987 56.8505 51.9818 57.8791 51.692C58.9077 51.4022 59.9074 51.0381 60.833 50.5492C61.7586 50.0603 62.5996 49.4345 63.2883 48.6656C63.9775 47.8905 64.5193 46.9959 64.8871 46.0259C65.0692 45.5395 65.2093 45.0383 65.3058 44.528C65.4005 44.0145 65.4544 43.4944 65.4671 42.9724C65.4794 42.4483 65.4529 41.9239 65.3876 41.4037C65.3553 41.1437 65.3135 40.8846 65.2621 40.6289C65.2363 40.5013 65.2082 40.3738 65.1767 40.2482L65.1282 40.0615L65.1023 39.9701L65.0889 39.9257L65.0825 39.904L65.0791 39.8934C65.0791 39.8973 65.0685 39.8593 65.0657 39.8438C65.061 39.823 65.0576 39.8018 65.0556 39.7805L65.0634 39.8363C65.0588 39.8107 65.0556 39.7848 65.0538 39.7588C65.052 39.7229 65.0538 39.7364 65.0538 39.7229V39.6808V39.6119L65.0556 39.4807L65.0574 39.2224L65.0543 38.7059C65.0492 38.3615 65.0376 38.0172 65.0195 37.6728C64.9831 36.9851 64.9253 36.2978 64.8388 35.6142C64.6718 34.2474 64.4025 32.8952 64.0332 31.5687C63.6618 30.2462 63.1814 28.9551 62.5756 27.7294C61.9698 26.5036 61.2385 25.3425 60.3712 24.2944C59.5071 23.2437 58.5081 22.3115 57.4003 21.5222C56.2927 20.7337 55.0852 20.1018 53.8072 19.6074C53.1712 19.3585 52.5229 19.1421 51.8649 18.9589C51.2055 18.7786 50.5375 18.6314 49.8634 18.5178C48.5162 18.2885 47.135 18.1911 45.7662 18.1748C44.3982 18.1919 43.0165 18.2903 41.6701 18.5204C40.9964 18.6342 40.3288 18.7818 39.6699 18.9626C39.0123 19.1459 38.3644 19.3627 37.7288 19.6121C36.4517 20.1062 35.246 20.7389 34.141 21.5274C33.0344 22.3154 32.0366 23.246 31.1733 24.2952C30.3073 25.3425 29.5758 26.5013 28.9723 27.7263C28.3688 28.9512 27.8882 30.2394 27.517 31.5605C27.1482 32.8854 26.8792 34.2361 26.7125 35.6013C26.6264 36.2841 26.5653 36.9695 26.529 37.6573C26.5104 38.0008 26.4978 38.3444 26.4913 38.6881L26.4864 39.2046V39.4629V39.5941V39.662V39.7043C26.4864 39.7185 26.4864 39.7043 26.4864 39.7415C26.4847 39.7692 26.4814 39.7968 26.4766 39.8242L26.4848 39.765C26.4826 39.7873 26.479 39.8095 26.4742 39.8314C26.4711 39.8482 26.4593 39.8869 26.4598 39.8831L26.4567 39.8934L26.45 39.9146L26.4366 39.9585L26.4107 40.0486L26.3617 40.233C26.3302 40.3572 26.3023 40.4833 26.2757 40.6098C26.2241 40.8632 26.181 41.1196 26.1467 41.3774C26.0795 41.8928 26.0503 42.4124 26.0592 42.9321C26.0676 43.45 26.1167 43.9664 26.2061 44.4766C26.2972 44.984 26.4316 45.4826 26.6079 45.967C26.7851 46.4509 27.006 46.9177 27.2677 47.3616C27.5268 47.8053 27.828 48.2231 28.167 48.6091C28.8417 49.3826 29.6729 50.0138 30.5864 50.5099C31.4999 51.006 32.4939 51.3753 33.5137 51.6664C34.5336 51.9575 35.5841 52.1744 36.6429 52.3614C37.1723 52.4551 37.7046 52.5406 38.2384 52.6233C38.7722 52.7059 39.3083 52.785 39.8429 52.8784C40.9115 53.0639 41.9762 53.2754 43.0301 53.561C43.0823 53.5754 43.1274 53.6083 43.1569 53.6537C43.1864 53.699 43.1983 53.7536 43.1903 53.8071C43.1823 53.8606 43.155 53.9093 43.1136 53.9441C43.0721 53.9788 43.0194 53.9972 42.9653 53.9957" fill="#818E95"/>
<path d="M53.625 19.5C52.9334 17.9739 56.2097 18.283 55.8518 16.8781C55.5914 15.8564 51.371 14.1747 48.4551 17.1347C48.4012 16.5077 48.3922 15.8778 48.4281 15.2496C48.4981 13.9637 48.3291 12.9114 47.7725 12.7726C46.6454 12.4924 44.8672 14.864 41.1474 17.1996C39.7076 18.1029 36.9218 19.4471 35.625 19.898L45.7213 26.25L53.625 19.5Z" fill="white"/>
<g opacity="0.4">
<path d="M56.0182 17.4389C54.948 16.4515 51.3604 15.4922 48.7773 18.1385C48.723 17.4934 48.7142 16.8452 48.751 16.1989C48.8218 14.8757 48.6491 13.7929 48.0826 13.6498C46.9333 13.3614 45.1207 15.802 41.3279 18.2056C40.2532 18.8871 38.4389 19.8121 37.0263 20.4396L35.7812 19.6483C37.1036 19.1841 39.9442 17.8007 41.411 16.8717C45.2043 14.4686 47.0164 12.0267 48.166 12.3159C48.7332 12.4592 48.906 13.542 48.8341 14.8649C48.7975 15.5113 48.8067 16.1595 48.8617 16.8046C51.8338 13.7588 56.1372 15.4896 56.4022 16.5404C56.4992 16.9239 56.3199 17.2038 56.0188 17.4387" fill="white"/>
</g>
<path d="M53.5255 19.7773C53.4315 19.635 53.372 19.4715 53.3521 19.3007C53.3337 19.1079 53.3713 18.9138 53.46 18.7428C53.5393 18.5885 53.6449 18.4499 53.7717 18.3337C53.8812 18.2296 53.9994 18.1354 54.1249 18.0523C54.3517 17.9025 54.586 17.7649 54.8268 17.6401C55.0512 17.518 55.2698 17.4017 55.4389 17.2733C55.5138 17.2192 55.5818 17.1555 55.6411 17.0838C55.6771 17.042 55.7015 16.9909 55.7115 16.936C55.7143 16.9129 55.7143 16.8894 55.7115 16.8663C55.7087 16.8434 55.7034 16.8209 55.6959 16.7992C55.6638 16.7401 55.6223 16.687 55.573 16.642C55.4401 16.5094 55.2486 16.3799 55.0476 16.2736C54.8399 16.1643 54.6237 16.0733 54.4011 16.0013C53.9463 15.8534 53.4748 15.7666 52.9984 15.7429C52.5233 15.7199 52.0473 15.7617 51.5829 15.8674C51.1205 15.9748 50.6752 16.1487 50.26 16.3839C49.8431 16.6258 49.4583 16.9221 49.1154 17.2654L49.1067 17.274C49.0484 17.3322 48.9753 17.3723 48.8959 17.3897C48.8164 17.407 48.7337 17.401 48.6574 17.3723C48.5812 17.3435 48.5143 17.2932 48.4646 17.2272C48.4149 17.1611 48.3844 17.082 48.3765 16.9989C48.3561 16.7777 48.3459 16.5783 48.338 16.37C48.3301 16.1617 48.327 15.9565 48.3276 15.75C48.3281 15.5435 48.3332 15.3367 48.3418 15.13L48.3551 14.8321C48.3589 14.7359 48.3607 14.6402 48.3617 14.5438C48.364 14.1638 48.3454 13.7839 48.2758 13.4432C48.2419 13.2758 48.1911 13.1162 48.1304 13.0127C48.1103 12.975 48.0839 12.9412 48.0524 12.9128C48.0458 12.908 48.0388 12.9039 48.0315 12.9005C48.0269 12.9005 48.0299 12.8992 48.0195 12.8969C48.0095 12.8944 47.9995 12.8926 47.9894 12.8914C47.9085 12.8788 47.782 12.9018 47.64 12.9632C47.4852 13.0322 47.3368 13.1153 47.1964 13.2116C46.8947 13.4128 46.5938 13.657 46.2941 13.9031C45.6948 14.401 45.0939 14.9251 44.4747 15.4256C43.8554 15.9261 43.2204 16.4148 42.5649 16.8734C42.2356 17.1027 41.9084 17.3246 41.5639 17.5403C41.2193 17.7559 40.8753 17.9546 40.5292 18.149C39.8339 18.536 39.1304 18.9028 38.4187 19.2496C38.063 19.4243 37.7036 19.5929 37.3404 19.7553C36.9764 19.9181 36.611 20.0753 36.2241 20.2163C36.1697 20.2393 36.1114 20.2508 36.0526 20.25C35.9939 20.2491 35.9359 20.236 35.8822 20.2115C35.8285 20.1869 35.7802 20.1514 35.7403 20.107C35.7004 20.0627 35.6696 20.0105 35.65 19.9536C35.6303 19.8966 35.6221 19.8362 35.6259 19.7759C35.6297 19.7157 35.6453 19.6568 35.6719 19.603C35.6985 19.5491 35.7355 19.5014 35.7806 19.4626C35.8257 19.4239 35.878 19.395 35.9343 19.3777H35.9372C36.2866 19.2506 36.6421 19.0984 36.994 18.9406C37.346 18.7829 37.698 18.6178 38.0469 18.4467C38.7452 18.106 39.4363 17.7462 40.1142 17.3689C40.4527 17.1794 40.787 16.9842 41.1124 16.7817C41.4379 16.5791 41.76 16.3603 42.0768 16.1391C42.7126 15.6937 43.3305 15.222 43.9368 14.7291C44.543 14.2362 45.1355 13.7226 45.7501 13.2116C46.0595 12.9569 46.3727 12.7019 46.7259 12.4658C46.9108 12.3394 47.1067 12.2309 47.311 12.1414C47.5277 12.051 47.7932 11.9708 48.1016 12.0104C48.1396 12.0151 48.1781 12.0227 48.2156 12.0313C48.2588 12.0421 48.3014 12.0556 48.3431 12.0717C48.4266 12.1054 48.5052 12.1508 48.5767 12.2064C48.6976 12.3042 48.7992 12.4248 48.8761 12.5617C49.0136 12.8054 49.0751 13.0363 49.123 13.2598C49.2133 13.7068 49.2294 14.1324 49.2281 14.5535C49.2281 14.6583 49.225 14.7631 49.2207 14.868L49.2072 15.1711C49.199 15.3651 49.1939 15.5595 49.1939 15.7544C49.1939 15.9494 49.1965 16.1436 49.2036 16.3378C49.2108 16.5319 49.2217 16.7308 49.2381 16.909L48.4964 16.6438C49.2495 15.804 50.2646 15.1743 51.3676 14.9096C51.9172 14.7754 52.4825 14.7224 53.0466 14.7524C53.6098 14.779 54.1667 14.8856 54.7015 15.0689C54.9733 15.1619 55.2369 15.2782 55.4896 15.4167C55.7447 15.5608 55.9974 15.7227 56.2331 15.967C56.2955 16.0321 56.3528 16.1022 56.4044 16.1766C56.4663 16.2638 56.5167 16.3591 56.5542 16.4599C56.5905 16.5638 56.6131 16.6723 56.6215 16.7824C56.6298 16.8924 56.6234 17.0031 56.6024 17.1113C56.5596 17.3192 56.4655 17.5123 56.3292 17.6721C56.2182 17.8028 56.0912 17.9182 55.9512 18.0154C55.6962 18.1935 55.448 18.3172 55.2081 18.4325C54.9681 18.5478 54.7352 18.6466 54.5248 18.7543C54.4207 18.8096 54.3208 18.8623 54.2335 18.9205C54.156 18.9709 54.0847 19.0309 54.0211 19.0989C53.9691 19.1548 53.9326 19.2241 53.9155 19.2994C53.8959 19.3798 53.9017 19.4828 53.9216 19.5957L53.9249 19.6138C53.934 19.6649 53.9257 19.7177 53.9012 19.7632C53.8768 19.8087 53.8378 19.8441 53.7909 19.8635C53.744 19.8828 53.692 19.885 53.6437 19.8694C53.5955 19.8539 53.5539 19.8218 53.5261 19.7784" fill="#818E95"/>
<path d="M38.2508 43.6247C39.6435 43.3006 42.3486 42.2946 42.3747 38.8055C42.3977 35.7787 41.0227 34.7979 38.0677 34.0026C34.9927 33.1752 31.6233 34.442 29.5897 36.902C28.1407 38.6545 27.7909 41.6064 28.4336 42.8312C29.7037 45.2523 37.0596 43.9019 38.2508 43.6247Z" fill="#ACB4BE"/>
<path d="M53.2492 43.6247C51.8565 43.3006 49.1514 42.2946 49.1253 38.8055C49.1023 35.7787 50.4773 34.7979 53.4323 34.0026C56.5073 33.1752 59.8767 34.442 61.9103 36.902C63.3593 38.6545 63.7091 41.6064 63.0664 42.8312C61.7963 45.2523 54.4404 43.9019 53.2492 43.6247Z" fill="#ACB4BE"/>
<g opacity="0.5">
<path d="M46.6779 41.5524C46.6779 41.9031 46.0703 42.0606 45.6231 42.0604C45.1759 42.0601 44.5684 41.9031 44.5684 41.5524C44.5684 41.3726 45.6234 41.3726 45.6234 41.3726C45.6234 41.3726 46.6779 41.3726 46.6779 41.5524Z" fill="white"/>
</g>
<path d="M35.6819 29.5387C36.0879 28.8425 39.7662 29.5417 40.4234 30.2012C41.2399 31.0198 40.9417 32.3844 39.5896 32.2393C37.9691 32.0655 35.193 30.3758 35.6819 29.5387Z" fill="#ACB4BE"/>
<path d="M56.56 29.5387C56.096 28.8425 51.8925 29.5417 51.141 30.2012C50.208 31.0198 50.5488 32.3844 52.094 32.2393C53.9461 32.0655 57.1186 30.3758 56.56 29.5387Z" fill="#ACB4BE"/>
<path d="M40.125 38.4266C40.125 40.3998 38.7824 42 37.124 42C35.4657 42 34.125 40.3998 34.125 38.4266C34.125 37.4902 34.4265 36.6368 34.923 36L40.0982 37.9472C40.1166 38.1063 40.1256 38.2664 40.125 38.4266Z" fill="#423636"/>
<path d="M38.625 39.7501C38.625 40.5789 38.1215 41.25 37.5 41.25C36.8785 41.25 36.375 40.5784 36.375 39.7501C36.375 38.9219 36.8785 38.25 37.5 38.25C38.1215 38.25 38.625 38.9216 38.625 39.7501Z" fill="white"/>
<g opacity="0.35">
<path d="M36.441 37.6173C36.441 37.968 36.2273 38.2524 35.9636 38.2524C35.7 38.2524 35.4863 37.968 35.4863 37.6173C35.4863 37.2666 35.7 36.9819 35.9636 36.9819C36.2273 36.9819 36.441 37.2666 36.441 37.6173Z" fill="white"/>
</g>
<path d="M33.4297 35.5095C33.5867 35.4076 33.7609 35.3513 33.9337 35.3092C34.106 35.2743 34.2804 35.2546 34.4554 35.2502C34.7958 35.2468 35.1358 35.2794 35.4709 35.3475C36.134 35.4754 36.7657 35.7029 37.3779 35.9705C37.9866 36.2432 38.5756 36.5696 39.1396 36.9465L39.3468 37.0853C39.3932 37.1185 39.4415 37.148 39.4914 37.1737C39.5127 37.1846 39.5345 37.1942 39.5567 37.2023C39.5841 37.2118 39.6121 37.2198 39.6403 37.2267C39.6974 37.2405 39.7552 37.2495 39.8135 37.2536C39.9346 37.2587 40.0558 37.2559 40.1766 37.245C40.2396 37.2387 40.3066 37.2352 40.3752 37.2252C40.4599 37.2075 40.5456 37.1974 40.6317 37.1949H40.6335C40.6774 37.195 40.7205 37.2087 40.7581 37.2345C40.7957 37.2603 40.8264 37.2973 40.8469 37.3414C40.8675 37.3855 40.877 37.4351 40.8746 37.4849C40.8722 37.5347 40.858 37.5828 40.8333 37.6241C40.7834 37.705 40.7273 37.7807 40.6655 37.8502C40.5921 37.9269 40.5108 37.9932 40.4233 38.0476C40.2447 38.1573 40.0477 38.2229 39.8452 38.2402C39.7432 38.2508 39.6406 38.2528 39.5383 38.2462C39.4879 38.2431 39.4355 38.2373 39.3843 38.2296C39.3277 38.221 39.2716 38.2085 39.2162 38.1924C39.1136 38.1627 39.0132 38.1236 38.9161 38.0757L38.6931 37.9704C38.1094 37.6988 37.5263 37.4267 36.9542 37.1405C36.3822 36.8544 35.8081 36.5757 35.2361 36.3107C34.9496 36.1805 34.6625 36.0549 34.373 35.9484C34.0834 35.842 33.7934 35.7544 33.4889 35.7407H33.4806C33.4568 35.7395 33.4339 35.7296 33.4154 35.7124C33.3969 35.6952 33.3838 35.6716 33.3782 35.6453C33.3725 35.6189 33.3745 35.5912 33.3839 35.5662C33.3933 35.5413 33.4095 35.5205 33.4302 35.5069" fill="#423636"/>
<path d="M51.3753 38.4266C51.3753 40.3998 52.7181 42 54.3761 42C56.0341 42 57.375 40.3998 57.375 38.4266C57.375 37.4902 57.0732 36.6368 56.5771 36L51.4018 37.9472C51.3834 38.1063 51.3744 38.2664 51.375 38.4266" fill="#423636"/>
<path d="M52.875 39.7501C52.875 40.5789 53.5463 41.25 54.375 41.25C55.2037 41.25 55.875 40.5784 55.875 39.7501C55.875 38.9219 55.2037 38.25 54.375 38.25C53.5463 38.25 52.875 38.9216 52.875 39.7501Z" fill="white"/>
<g opacity="0.35">
<path d="M55.3359 37.6173C55.3359 37.968 55.5496 38.2524 55.813 38.2524C56.0764 38.2524 56.2903 37.968 56.2903 37.6173C56.2903 37.2666 56.0767 36.9819 55.813 36.9819C55.5493 36.9819 55.3359 37.2666 55.3359 37.6173Z" fill="white"/>
</g>
<path d="M58.7487 35.7407C58.4138 35.7545 58.0954 35.844 57.7763 35.9485C57.4573 36.0529 57.1421 36.1805 56.8273 36.3107C56.1981 36.5751 55.5683 36.8544 54.9372 37.1405C54.306 37.4267 53.6652 37.6974 53.0246 37.9704L52.7796 38.076C52.6726 38.1237 52.5621 38.1626 52.4492 38.1924C52.3884 38.2085 52.3266 38.221 52.2643 38.2296C52.2089 38.2373 52.1515 38.2428 52.0953 38.2462C51.9827 38.2528 51.8699 38.2508 51.7577 38.2402C51.5349 38.223 51.3183 38.1573 51.1218 38.0476C51.0256 37.9932 50.9362 37.9269 50.8554 37.8502C50.7873 37.7808 50.7255 37.7052 50.6708 37.6241C50.6437 37.5828 50.628 37.5347 50.6254 37.4849C50.6228 37.4351 50.6333 37.3855 50.6559 37.3414C50.6785 37.2973 50.7122 37.2603 50.7536 37.2345C50.795 37.2087 50.8423 37.195 50.8906 37.1949H50.8923C50.9871 37.1973 51.0815 37.2074 51.1748 37.2252C51.2501 37.2353 51.3239 37.2387 51.3932 37.245C51.5259 37.256 51.6592 37.2589 51.7923 37.2536C51.8563 37.2496 51.92 37.2406 51.9827 37.2267C52.0138 37.2198 52.0445 37.2118 52.075 37.2023C52.0994 37.1943 52.1233 37.1848 52.1465 37.1737C52.2015 37.148 52.2548 37.1185 52.3059 37.0853L52.5338 36.9465C53.154 36.5696 53.8018 36.2432 54.4712 35.9702C55.1445 35.7029 55.8397 35.4755 56.5687 35.3476C56.9373 35.2793 57.3114 35.2467 57.686 35.2503C57.8783 35.2545 58.0701 35.2742 58.2595 35.3092C58.4502 35.3501 58.6417 35.4065 58.8138 35.5081C58.8367 35.5216 58.8547 35.5424 58.8651 35.5674C58.8755 35.5924 58.8778 35.6202 58.8715 35.6467C58.8653 35.6731 58.8508 35.6967 58.8304 35.714C58.81 35.7312 58.7847 35.7411 58.7584 35.7421L58.7487 35.7407Z" fill="#423636"/>
<path d="M48.375 45C48.375 45 48.0098 43.5 46.3521 43.5C44.6944 43.5 43.125 45 43.125 45" fill="white"/>
<path d="M48.9027 44.9447C48.7433 44.7921 48.5566 44.6581 48.3483 44.5469C48.1554 44.4459 47.9441 44.3681 47.7214 44.3162C47.2853 44.2162 46.802 44.1992 46.307 44.2413C45.812 44.2833 45.3097 44.3875 44.8079 44.5206C44.3061 44.6537 43.8016 44.816 43.297 44.9899L43.2902 44.9922C43.2657 45.0006 43.2383 45.0023 43.2124 44.9969C43.1866 44.9915 43.1638 44.9795 43.1479 44.9627C43.1321 44.9459 43.124 44.9254 43.1251 44.9046C43.1262 44.8837 43.1364 44.8638 43.1539 44.8481C43.538 44.5038 43.9989 44.2287 44.5062 44.0029C45.0134 43.7771 45.5776 43.609 46.1841 43.536C46.492 43.4978 46.8048 43.49 47.1152 43.5126C47.4385 43.537 47.7533 43.6075 48.0438 43.7206C48.6318 43.9541 49.0837 44.3966 49.1248 44.8942C49.1262 44.9134 49.1197 44.9324 49.1063 44.9486C49.0929 44.9648 49.0734 44.9774 49.0503 44.9844C49.0273 44.9914 49.002 44.9927 48.9781 44.9879C48.9541 44.9831 48.9327 44.9726 48.9169 44.9578L48.9027 44.9447Z" fill="#423636"/>
<path d="M46.1213 41.7824L45.9362 43.3061C45.9297 43.36 45.9075 43.4092 45.8735 43.4448C45.8395 43.4804 45.7961 43.5 45.7511 43.5C45.7062 43.5 45.6628 43.4804 45.6288 43.4448C45.5948 43.4092 45.5725 43.36 45.566 43.3061L45.3807 41.7824C45.372 41.7227 45.3733 41.6615 45.3844 41.6023C45.3956 41.5432 45.4165 41.4874 45.4458 41.4382C45.475 41.389 45.5122 41.3474 45.555 41.3159C45.5978 41.2844 45.6453 41.2637 45.6949 41.2548C45.7444 41.246 45.7949 41.2493 45.8434 41.2645C45.8918 41.2798 45.9373 41.3066 45.977 41.3435C46.0167 41.3804 46.05 41.4266 46.0747 41.4793C46.0995 41.5321 46.1152 41.5903 46.1211 41.6505C46.1263 41.6943 46.1263 41.7387 46.1211 41.7824" fill="#423636"/>
<path d="M48.3745 40.7275C48.3745 41.1588 47.715 41.5393 47.1102 41.7978C46.8046 41.931 46.4663 42.0003 46.1232 42C45.7801 41.9997 45.442 41.9298 45.1368 41.796C44.5325 41.5367 43.8742 41.1551 43.875 40.7238C43.875 39.4229 48.375 39.4266 48.375 40.7275" fill="#423636"/>
<g opacity="0.5">
<path d="M46.808 40.5061C46.808 40.6563 46.5386 40.7887 46.2914 40.8784C46.0308 40.9727 45.7454 40.9727 45.4849 40.8784C45.2377 40.7882 44.9685 40.6553 44.9688 40.5051C44.9688 40.0524 46.8085 40.0543 46.808 40.5069" fill="white"/>
</g>
<path d="M30.2086 70.3995C30.4431 69.3041 30.7512 68.226 31.131 67.1726C31.5031 66.1147 31.9325 65.0765 32.3946 64.0514C32.8566 63.0263 33.356 62.0165 33.89 61.0235C34.1557 60.5265 34.4298 60.0336 34.7123 59.545C34.9919 59.0561 35.2867 58.5696 35.5848 58.0973L35.5889 58.0911C35.6199 58.0438 35.6315 57.9864 35.6215 57.9307C35.6114 57.875 35.5804 57.8254 35.5349 57.7921C35.4894 57.7588 35.4329 57.7444 35.3772 57.752C35.3214 57.7595 35.2707 57.7883 35.2356 57.8325C34.5019 58.7268 33.8532 59.6694 33.2465 60.6463C32.6408 61.6245 32.087 62.6342 31.5876 63.6714C31.0868 64.7105 30.6491 65.7792 30.277 66.8717C29.9056 67.9657 29.587 69.0808 29.3544 70.2178C29.1099 71.3561 28.956 72.5123 28.8944 73.6753C28.8598 74.3669 28.8715 75.06 28.9294 75.75H29.845C29.6952 73.9734 29.8419 72.1637 30.2086 70.3995Z" fill="#818E95"/>
<path d="M62.6034 73.6745C62.5351 72.5114 62.3642 71.3551 62.0924 70.2166C61.8354 69.0789 61.4797 67.9642 61.0671 66.8697C60.6532 65.7769 60.1674 64.7075 59.6124 63.6673C59.0589 62.6299 58.4444 61.62 57.7717 60.6421C57.0959 59.6657 56.375 58.7229 55.5562 57.8309C55.5169 57.7873 55.4607 57.759 55.3991 57.7518C55.3375 57.7446 55.2752 57.759 55.225 57.7921C55.1748 57.8252 55.1405 57.8745 55.1291 57.9298C55.1177 57.9851 55.1302 58.0422 55.1639 58.0895L55.1682 58.0954C55.3318 58.3297 55.4974 58.5727 55.659 58.8134C55.8206 59.0542 55.9756 59.3011 56.1338 59.5447C56.4464 60.0339 56.7525 60.5272 57.0474 61.024C57.6413 62.0165 58.1958 63.0255 58.7111 64.051C59.227 65.0747 59.7044 66.1134 60.1184 67.1709C60.5401 68.2247 60.8824 69.3032 61.1428 70.3989C61.5508 72.1631 61.7118 73.9729 61.549 75.75H62.564C62.6288 75.0598 62.642 74.3663 62.6034 73.6745Z" fill="#818E95"/>
<path d="M62.346 75.75H5.625C5.625 75.75 10.797 78.7041 29.8543 79.8252C30.1485 79.8424 30.4456 79.8593 30.7457 79.8757C35.0092 80.1086 39.9429 80.25 45.6395 80.25C51.3361 80.25 56.2808 80.1083 60.5566 79.8755C60.8537 79.8595 61.147 79.843 61.4365 79.8258C80.5567 78.7052 85.875 75.75 85.875 75.75H62.346Z" fill="#D5D7D8"/>
<path d="M86.1801 76.5H6.06995C5.95194 76.5 5.83877 76.4605 5.75532 76.3902C5.67188 76.3198 5.625 76.2245 5.625 76.125C5.625 76.0255 5.67188 75.9302 5.75532 75.8598C5.83877 75.7895 5.95194 75.75 6.06995 75.75H86.1801C86.2981 75.75 86.4112 75.7895 86.4947 75.8598C86.5781 75.9302 86.625 76.0255 86.625 76.125C86.625 76.2245 86.5781 76.3198 86.4947 76.3902C86.4112 76.4605 86.2981 76.5 86.1801 76.5Z" fill="#818E95"/>
<path d="M67.875 39.0764L67.818 39.6338C67.6313 41.4427 67.0069 43.1788 65.9987 44.6919C64.9905 46.2049 63.6289 47.4493 62.0319 48.3174L58.4747 50.25L58.125 49.607L61.6822 47.6741C63.1753 46.8634 64.4483 45.7004 65.3907 44.2861C66.333 42.8718 66.9164 41.2488 67.0901 39.5579L67.1481 39L67.875 39.0764Z" fill="#BFBFBF"/>
<path d="M67.875 39.079L67.794 39.6552C67.6452 40.7143 67.295 41.7532 66.7533 42.7422C66.3731 42.7457 65.9929 42.7486 65.625 42.75C66.2236 41.7406 66.6062 40.6705 66.7597 39.5768L66.8422 39L67.875 39.079Z" fill="#999999"/>
<path d="M66.9917 39.4915L67.3833 39.5318L67.343 39.9224C67.1589 41.7156 66.5398 43.4367 65.5396 44.9366C64.5394 46.4365 63.1881 47.6699 61.6031 48.5296L58.17 50.3926L57.9824 50.0468L61.4152 48.1838C62.9442 47.3547 64.2477 46.1652 65.2127 44.7186C66.1776 43.2719 66.7748 41.6117 66.9524 39.8821L66.9925 39.4915M66.5927 39L66.5066 39.8363C66.3365 41.4935 65.7644 43.0842 64.84 44.4704C63.9156 45.8566 62.6667 46.9963 61.2018 47.7908L57.375 49.8674L57.9906 51L61.8163 48.9247C63.4656 48.0303 64.8716 46.7471 65.9124 45.1865C66.9532 43.6259 67.5973 41.8351 67.7888 39.9693L67.875 39.1333L66.5927 39Z" fill="#818E95"/>
<path d="M69.5296 38.0947L67.9048 38.2466C67.492 38.2852 67.1249 37.9906 67.0773 37.5901C66.5672 33.7819 65.5948 30.0439 64.18 26.4518C64.0259 26.0758 64.2062 25.6511 64.5892 25.4992L66.0983 24.9026C67.4391 24.4012 68.8266 25.1929 69.2902 26.4398C70.3074 29.3292 71.0782 32.2929 71.5951 35.3018C71.7971 36.6111 70.9594 37.934 69.5298 38.0942" fill="#BFBFBF"/>
<path d="M67.904 38.2457C68.5534 38.1854 68.8791 38.1541 69.5285 38.0936C70.9587 37.9344 71.7962 36.6129 71.5955 35.3068C71.3757 34.0408 71.1141 32.7906 70.8106 31.5561C70.6426 32.5546 69.8825 33.4093 68.7506 33.5357C68.0999 33.5965 67.775 33.6262 67.1256 33.6858C66.7127 33.7251 66.3461 33.4313 66.2975 33.031C65.955 30.4834 65.4044 27.9654 64.651 25.5C64.6308 25.507 64.6096 25.5155 64.5887 25.525C64.2062 25.6751 64.0254 26.1005 64.1805 26.4745C65.5947 30.0596 66.5666 33.7902 67.0764 37.5907C67.1253 37.991 67.4919 38.2847 67.905 38.2467" fill="#ACB4BE"/>
<path d="M68.2102 39C67.6185 39 67.1008 38.5346 67.0313 37.9152C66.5353 33.9708 65.5875 30.0991 64.2074 26.3792C63.9717 25.7686 64.2588 25.0643 64.8521 24.8154L66.3367 24.1917C66.6743 24.0557 67.0356 23.9908 67.3985 24.001C67.7615 24.0113 68.1187 24.0964 68.4485 24.2512C69.1869 24.5947 69.7722 25.2543 70.0542 26.061C71.0642 29.1058 71.8288 32.2294 72.3404 35.4008C72.4644 36.2553 72.2514 37.1176 71.7577 37.774C71.5389 38.0674 71.264 38.3127 70.9496 38.495C70.6352 38.6773 70.2878 38.7928 69.9284 38.8347H69.9201L68.3224 38.9937C68.2848 38.9976 68.2473 39 68.2102 39ZM67.3231 24.889C67.0968 24.8902 66.8728 24.9346 66.6626 25.02L65.1861 25.6405C65.0317 25.705 64.9597 25.8936 65.024 26.0597C66.4298 29.8479 67.395 33.7908 67.8999 37.8078C67.9208 37.9912 68.0713 38.1222 68.2375 38.1078L69.8311 37.9493C70.0736 37.9216 70.308 37.8437 70.5199 37.7204C70.7317 37.5971 70.9166 37.4309 71.063 37.2321C71.4139 36.7659 71.5644 36.1489 71.4759 35.5389C70.9726 32.4198 70.2206 29.3476 69.2273 26.3529C69.0268 25.7791 68.6098 25.3048 68.0849 25.0619C67.8461 24.9492 67.5863 24.8901 67.3231 24.8885V24.889Z" fill="#818E95"/>
<path d="M66.783 39.7463C67.4981 39.6758 67.8548 39.6394 68.5699 39.5688C70.1426 39.3825 71.0646 37.8386 70.8421 36.3115C70.6439 35.09 70.4135 33.882 70.1508 32.6875C70.0542 32.2478 69.9534 31.8096 69.8485 31.373C69.5612 30.1725 69.2386 28.9793 68.8807 27.7933C68.6994 27.1853 68.5081 26.5782 68.3067 25.972C67.7964 24.517 66.2705 23.5927 64.7955 24.1782C64.1319 24.4574 63.8001 24.5958 63.136 24.8739C62.7143 25.0506 62.5161 25.5468 62.6854 25.9855C63.0535 26.9803 63.3933 27.9782 63.7046 28.9793C64.0801 30.1872 64.4148 31.4031 64.7087 32.6269C64.8086 33.0399 64.9036 33.4536 64.9937 33.868C65.3595 35.5476 65.6512 37.2469 65.8721 38.9795C65.9256 39.4479 66.3283 39.791 66.7828 39.746" fill="#DBDDE4"/>
<g opacity="0.5">
<path d="M64.5283 32.6509C65.9096 32.5872 68.1295 32.3308 69.7903 31.3875C69.4962 30.178 69.1659 28.9759 68.7995 27.781C67.3964 27.7548 65.399 27.9542 63.5 28.9762C63.8844 30.1932 64.2272 31.418 64.5283 32.6509Z" fill="white"/>
</g>
<g opacity="0.5">
<path d="M62.85 27.0398C62.753 26.6304 62.9549 26.201 63.348 26.0395C64.028 25.7593 64.3677 25.6202 65.0473 25.3386C66.4279 24.7995 67.852 25.5323 68.4858 26.7832C68.3972 26.5036 68.3057 26.2251 68.2114 25.9478C67.6892 24.4823 66.1267 23.551 64.6167 24.141C63.9373 24.4225 63.5976 24.5617 62.9174 24.8419C62.4859 25.0199 62.2831 25.5198 62.4563 25.9617C62.5908 26.3203 62.7226 26.6799 62.8495 27.0398" fill="white"/>
</g>
<g opacity="0.7">
<path d="M66.0702 39.661C65.8552 38.1179 65.5826 36.6016 65.2505 35.1002C64.6725 32.4899 63.9147 29.9227 62.9824 27.417C63.7213 29.5409 64.3348 31.7064 64.8199 33.9023C65.1944 35.5942 65.493 37.3061 65.7192 39.0516C65.7328 39.1719 65.7709 39.2882 65.8313 39.3931C65.8917 39.4981 65.973 39.5895 66.0702 39.6618" fill="white"/>
</g>
<g opacity="0.7">
<path d="M62.8868 27.1598C62.9191 27.2455 62.9513 27.3312 62.9825 27.4175C62.9386 27.2917 62.8943 27.1659 62.8496 27.04C62.8588 27.0809 62.8713 27.1209 62.8868 27.1598Z" fill="white"/>
</g>
<path d="M66.7005 39.7457C67.43 39.6783 67.7938 39.6435 68.5233 39.5761C70.1278 39.3981 71.0684 37.9226 70.8414 36.4632C70.6393 35.2959 70.4042 34.1415 70.1362 33C70.1268 33.0955 69.9249 34.7505 67.7379 35.223C66.0642 35.5847 65.3493 34.9949 64.875 34.1289C65.2482 35.7339 65.5457 37.3579 65.7712 39.0137C65.8257 39.4613 66.2366 39.7892 66.7002 39.7462" fill="#BFBFBF"/>
<path d="M66.7012 40.5C66.0216 40.5 65.4291 39.983 65.3494 39.2946C64.7557 34.724 63.6214 30.2377 61.9697 25.9272C61.6987 25.2482 62.0291 24.466 62.7086 24.1896L64.4832 23.4678C64.8797 23.3132 65.3038 23.2395 65.73 23.2512C66.1561 23.2629 66.5754 23.3597 66.9625 23.5358C67.8315 23.9268 68.5201 24.6786 68.851 25.598C70.0585 29.1192 70.9727 32.7318 71.5843 36.3997C71.7302 37.373 71.4798 38.3555 70.9001 39.103C70.6431 39.4365 70.3204 39.7153 69.9512 39.9226C69.5821 40.1298 69.1742 40.2613 68.7522 40.3089H68.7434L66.8325 40.493C66.7868 40.4978 66.7436 40.5 66.7012 40.5ZM65.6409 24.1645C65.3632 24.1653 65.0881 24.2176 64.83 24.3186L63.0633 25.0372C62.8507 25.1238 62.7497 25.3748 62.8384 25.5969C64.5178 29.9779 65.6711 34.5377 66.2748 39.1831C66.3021 39.426 66.5118 39.6017 66.74 39.5798L68.6463 39.3963C69.4192 39.3062 69.8954 38.8836 70.1592 38.5441C70.5881 37.9926 70.772 37.2624 70.6639 36.5411C70.0612 32.9273 69.1608 29.3679 67.9716 25.8983C67.7253 25.2188 67.2163 24.6592 66.5758 24.3704C66.2827 24.2369 65.9639 24.1669 65.6409 24.1654V24.1645Z" fill="#818E95"/>
<path d="M21.9707 38.0947L23.5953 38.2466C24.0079 38.2852 24.375 37.9906 24.4229 37.5901C24.9328 33.7819 25.9052 30.0438 27.3201 26.4518C27.4739 26.0758 27.2939 25.6511 26.9109 25.4992L25.4016 24.9026C24.0608 24.4012 22.6734 25.1929 22.2098 26.4398C21.1924 29.3291 20.4215 32.2929 19.9049 35.3018C19.7029 36.6111 20.5403 37.934 21.9701 38.0942" fill="#BFBFBF"/>
<path d="M23.596 38.2457C22.9466 38.1854 22.6209 38.1541 21.9715 38.0936C20.5411 37.9344 19.7036 36.6129 19.9046 35.3068C20.1244 34.0408 20.386 32.7906 20.6895 31.5561C20.8577 32.5546 21.6175 33.4093 22.7496 33.5357C23.4003 33.5965 23.7253 33.6262 24.3746 33.6858C24.7872 33.7251 25.1538 33.4313 25.2027 33.031C25.5451 30.4835 26.0956 27.9654 26.8489 25.5C26.8691 25.507 26.8903 25.5155 26.9115 25.525C27.2937 25.6751 27.4745 26.1005 27.3196 26.4745C25.9054 30.0596 24.9334 33.7902 24.4236 37.5907C24.3746 37.991 24.0083 38.2847 23.5952 38.2467" fill="#ACB4BE"/>
<path d="M23.2904 39C23.2534 39 23.2161 38.9982 23.1782 38.9945L21.572 38.8347C21.2126 38.7928 20.8652 38.6772 20.5509 38.4949C20.2365 38.3127 19.9617 38.0674 19.7429 37.774C19.2489 37.119 19.0361 36.2543 19.1591 35.4085C19.67 32.2371 20.4341 29.1134 21.4439 26.0686C21.7284 25.2547 22.3135 24.5952 23.0522 24.2517C23.3806 24.0972 23.7363 24.0119 24.0979 24.0012C24.4596 23.9904 24.8196 24.0543 25.1563 24.1891L26.6486 24.8159C27.2403 25.0648 27.5295 25.7691 27.2918 26.3859C25.9122 30.1059 24.965 33.9775 24.4693 37.9218C24.3996 38.5344 23.8827 39 23.2904 39ZM21.6695 37.949L23.2631 38.1076C23.4288 38.1241 23.5799 37.9923 23.5999 37.8141C24.1044 33.7972 25.069 29.8543 26.4741 26.066C26.541 25.8928 26.4682 25.7041 26.3143 25.6394L24.8303 25.016C24.2457 24.7836 23.7376 24.9112 23.4152 25.0622C22.8908 25.3061 22.4735 25.7793 22.2705 26.3602C21.2776 29.3549 20.526 32.427 20.0231 35.5461C19.9359 36.1487 20.0864 36.7658 20.4371 37.2319C20.5837 37.4306 20.7686 37.5967 20.9806 37.7199C21.1925 37.8431 21.427 37.9209 21.6695 37.9485V37.949Z" fill="#818E95"/>
<path d="M24.717 39.7463C24.002 39.6758 23.6453 39.6394 22.93 39.5688C21.3573 39.3825 20.4356 37.8386 20.6578 36.3115C20.8563 35.09 21.0868 33.882 21.3491 32.6875C21.4459 32.2478 21.5467 31.8096 21.6517 31.373C21.939 30.1725 22.2616 28.9793 22.6195 27.7933C22.8007 27.1853 22.992 26.5782 23.1932 25.972C23.7035 24.517 25.2296 23.5927 26.7043 24.1782C27.3681 24.4574 27.6999 24.5958 28.3641 24.8739C28.7857 25.0506 28.9839 25.5468 28.8146 25.9855C28.4461 26.9803 28.1064 27.9782 27.7954 28.9793C27.4199 30.1872 27.0851 31.4031 26.7911 32.6269C26.6912 33.0399 26.5962 33.4536 26.5061 33.868C26.1403 35.5476 25.8487 37.2469 25.628 38.9795C25.5742 39.4479 25.1715 39.791 24.7173 39.746" fill="#DBDDE4"/>
<g opacity="0.5">
<path d="M27.0335 32.6509C25.6524 32.5872 23.4325 32.3308 21.7715 31.3875C22.0659 30.178 22.3962 28.9759 22.7623 27.781C24.1657 27.7548 26.1627 27.9542 28.0618 28.9762C27.6773 30.1932 27.3346 31.418 27.0335 32.6509Z" fill="white"/>
</g>
<g opacity="0.5">
<path d="M28.7122 27.0398C28.8092 26.6304 28.6074 26.201 28.2142 26.0395C27.5343 25.7593 27.1946 25.6202 26.5149 25.3386C25.1343 24.7995 23.7102 25.5323 23.0762 26.7832C23.1649 26.5036 23.2564 26.2251 23.3506 25.9478C23.873 24.4823 25.4352 23.551 26.9453 24.141C27.6249 24.4225 27.9647 24.5617 28.6446 24.8419C29.0763 25.0199 29.2792 25.5198 29.1059 25.9617C28.9714 26.3203 28.8393 26.6799 28.7127 27.0398" fill="white"/>
</g>
<g opacity="0.7">
<path d="M25.4922 39.661C25.7071 38.1179 25.98 36.6016 26.3121 35.1002C26.89 32.4898 27.6478 29.9227 28.5802 27.417C27.8414 29.541 27.2278 31.7065 26.7425 33.9023C26.3679 35.5942 26.0694 37.3061 25.8432 39.0516C25.8296 39.1719 25.7915 39.2882 25.7311 39.3932C25.6707 39.4981 25.5894 39.5896 25.4922 39.6618" fill="white"/>
</g>
<g opacity="0.7">
<path d="M28.6755 27.1598C28.6432 27.2455 28.611 27.3312 28.5801 27.4175C28.6238 27.2917 28.6681 27.1659 28.713 27.04C28.7037 27.0809 28.6911 27.121 28.6755 27.1598Z" fill="white"/>
</g>
<path d="M24.7998 39.7457C24.0702 39.6783 23.7064 39.6435 22.9766 39.5761C21.3721 39.3981 20.4318 37.9226 20.6585 36.4632C20.861 35.2959 21.0961 34.1415 21.3637 33C21.3734 33.0955 21.5753 34.7505 23.7623 35.223C25.4358 35.5847 26.1509 34.9949 26.625 34.1289C26.2518 35.7339 25.9543 37.3579 25.7291 39.0137C25.6742 39.4613 25.2634 39.7892 24.8 39.7462" fill="#BFBFBF"/>
<path d="M25.1704 40.5C25.131 40.5 25.0916 40.4978 25.0514 40.4938L23.2795 40.309C22.8898 40.2613 22.5132 40.1299 22.1723 39.9226C21.8314 39.7154 21.5334 39.4366 21.2961 39.103C20.7596 38.3553 20.5284 37.3731 20.6621 36.4076C21.2258 32.7397 22.0687 29.127 23.1825 25.6055C23.4913 24.6789 24.127 23.9271 24.9293 23.5361C25.2854 23.3604 25.6711 23.2636 26.0632 23.2513C26.4552 23.2391 26.8456 23.3117 27.2107 23.4649L28.8567 24.1899C29.4854 24.4663 29.7886 25.2488 29.5359 25.9339C28.0113 30.2446 26.9644 34.731 26.4167 39.3016C26.3449 39.9835 25.7976 40.5 25.1704 40.5ZM23.3763 39.3969L25.136 39.5804C25.3481 39.6028 25.5403 39.4276 25.5656 39.1905C26.1219 34.5451 27.1858 29.9854 28.7357 25.6045C28.8198 25.3759 28.7263 25.1249 28.5297 25.0378L26.8912 24.316C26.2274 24.0391 25.6531 24.1924 25.2869 24.3699C24.6948 24.6587 24.2241 25.2183 23.9954 25.9051C22.898 29.375 22.0674 32.9346 21.5119 36.5487C21.4131 37.2622 21.5829 37.9921 21.9791 38.5439C22.2217 38.8839 22.6627 39.3068 23.3753 39.3969H23.3763Z" fill="#818E95"/>
<path d="M58.4815 51.0212L57.1437 51.6688C57.057 51.7108 56.962 51.7371 56.8639 51.7463C56.7658 51.7555 56.6667 51.7474 56.5721 51.7224C56.4776 51.6974 56.3895 51.6561 56.3129 51.6007C56.2362 51.5454 56.1726 51.4771 56.1255 51.3998L55.966 51.1377C55.919 51.0604 55.8894 50.9755 55.8791 50.888C55.8688 50.8005 55.8779 50.7121 55.9059 50.6277C55.9339 50.5434 55.9803 50.4648 56.0423 50.3964C56.1044 50.328 56.1809 50.2712 56.2676 50.2293L57.6057 49.5813C57.6923 49.5393 57.7874 49.5129 57.8855 49.5037C57.9835 49.4945 58.0827 49.5026 58.1772 49.5276C58.2718 49.5526 58.3599 49.5939 58.4365 49.6493C58.5132 49.7047 58.5768 49.773 58.6238 49.8503L58.784 50.1135C58.8311 50.1908 58.8606 50.2756 58.8709 50.3631C58.8812 50.4506 58.8721 50.5391 58.8441 50.6234C58.816 50.7078 58.7696 50.7864 58.7076 50.8548C58.6455 50.9231 58.5689 50.9799 58.4822 51.0219" fill="#686868"/>
<g opacity="0.5">
<path d="M58.7826 49.681L58.8964 49.8907C58.9122 49.9201 58.9264 49.9504 58.9389 49.9814C58.812 49.7991 58.6224 49.67 58.4063 49.6188C58.1902 49.5676 57.9629 49.5979 57.7677 49.7038L56.3971 50.4477C56.2019 50.5536 56.0527 50.7278 55.9779 50.9369C55.9032 51.1461 55.9083 51.3754 55.9921 51.5811C55.9731 51.5537 55.9556 51.5254 55.9397 51.4961L55.8262 51.2864C55.712 51.076 55.686 50.8289 55.754 50.5993C55.8219 50.3698 55.9783 50.1766 56.1887 50.0623L57.5596 49.3182C57.77 49.2041 58.0171 49.1782 58.2465 49.2462C58.476 49.3141 58.6691 49.4704 58.7834 49.6807" fill="white"/>
</g>
<path d="M58.6707 49.6931L58.775 49.8817C58.8796 50.0709 58.9032 50.2931 58.8408 50.4994C58.7784 50.7058 58.635 50.8793 58.4422 50.9819L57.1853 51.6513C57.0898 51.7023 56.9851 51.7343 56.8771 51.7455C56.7691 51.7567 56.6599 51.747 56.5557 51.7168C56.4515 51.6866 56.3544 51.6365 56.2699 51.5695C56.1855 51.5025 56.1153 51.4198 56.0634 51.3262L55.9594 51.1375C55.92 51.0662 55.8916 50.9897 55.875 50.9102C56.0016 51.0314 56.1645 51.1096 56.3396 51.1336C56.5148 51.1575 56.6932 51.1258 56.8488 51.0432L58.1057 50.3736C58.261 50.2906 58.3853 50.1611 58.4602 50.0039C58.5352 49.8467 58.557 49.6702 58.5224 49.5C58.5812 49.5569 58.6312 49.622 58.6707 49.6931Z" fill="#545354"/>
<path d="M56.6194 52.5C56.495 52.5 56.3712 52.4826 56.2519 52.4486C56.0896 52.4026 55.9383 52.3261 55.8068 52.2233C55.6754 52.1206 55.5664 51.9937 55.4861 51.85L55.281 51.4855C55.2004 51.3422 55.1497 51.1849 55.1321 51.0227C55.1144 50.8605 55.13 50.6965 55.178 50.54C55.226 50.3836 55.3055 50.2379 55.4119 50.1111C55.5183 49.9843 55.6495 49.879 55.7981 49.8012L57.5188 48.8999C57.819 48.7431 58.1713 48.7077 58.4986 48.8013C58.8259 48.8949 59.1013 49.1098 59.2645 49.399L59.4696 49.7635C59.6321 50.0531 59.6688 50.3931 59.5719 50.7088C59.475 51.0245 59.2522 51.2903 58.9525 51.4478L57.2319 52.3489C57.044 52.4479 56.8334 52.4998 56.6194 52.5ZM58.1319 49.3707C58.0249 49.3706 57.9197 49.3966 57.8259 49.4461L56.1053 50.3472C55.9553 50.4258 55.8439 50.5586 55.7954 50.7165C55.7469 50.8744 55.7655 51.0445 55.8469 51.1892L56.052 51.5536C56.0922 51.6254 56.1468 51.6887 56.2125 51.7401C56.2781 51.7915 56.3537 51.8298 56.4347 51.853C56.5158 51.8761 56.6008 51.8836 56.6849 51.8751C56.769 51.8665 56.8505 51.842 56.9247 51.8029L58.645 50.9019C58.795 50.8231 58.9064 50.6902 58.9549 50.5323C59.0034 50.3744 58.985 50.2044 58.9037 50.0596L58.6987 49.6954C58.6432 49.5971 58.5613 49.5151 58.4615 49.4579C58.3618 49.4008 58.2479 49.3706 58.1319 49.3707Z" fill="#371A45"/>
<path d="M23.1528 71.2508H20.3456C19.4908 71.251 18.6599 71.5245 17.982 72.0286C17.3042 72.5327 16.8172 73.2394 16.5967 74.0389L16.125 75.75H27.375L26.9033 74.0389C26.6829 73.239 26.1957 72.532 25.5175 72.0277C24.8393 71.5234 24.008 71.25 23.1528 71.25" fill="#6B6B6B"/>
<g opacity="0.2">
<path d="M26.4134 72.807C26.1471 74.5272 24.372 75.4698 22.2195 75.9736H16.4629L16.9297 74.2224C17.1478 73.4046 17.6299 72.6816 18.3011 72.166C18.9724 71.6504 19.7951 71.3709 20.6416 71.3711H23.4182C23.993 71.3712 24.5605 71.5002 25.0789 71.7487C25.5973 71.9972 26.0533 72.3589 26.4134 72.807Z" fill="#818E95"/>
</g>
<path d="M28.125 76.5H16.125L16.7267 74.2919C16.9651 73.4201 17.4903 72.6496 18.221 72.0996C18.9517 71.5497 19.8472 71.2511 20.7687 71.25H23.4805C24.402 71.2511 25.2975 71.5497 26.0282 72.0996C26.759 72.6496 27.2842 73.4201 27.5225 74.2919L28.125 76.5ZM17.2575 75.6481H26.9925L26.6829 74.5116C26.494 73.8209 26.0779 73.2105 25.4989 72.7749C24.9199 72.3393 24.2104 72.1028 23.4802 72.1021H20.7685C20.0384 72.1028 19.3289 72.3392 18.7499 72.7748C18.171 73.2105 17.7549 73.8209 17.5661 74.5116L17.2575 75.6481Z" fill="#818E95"/>
<path d="M21.75 76.5C21.6505 76.5 21.5552 76.4559 21.4848 76.3774C21.4145 76.2989 21.375 76.1924 21.375 76.0814V73.1686C21.375 73.0576 21.4145 72.9511 21.4848 72.8726C21.5552 72.7941 21.6505 72.75 21.75 72.75C21.8495 72.75 21.9448 72.7941 22.0152 72.8726C22.0855 72.9511 22.125 73.0576 22.125 73.1686V76.0814C22.125 76.1924 22.0855 76.2989 22.0152 76.3774C21.9448 76.4559 21.8495 76.5 21.75 76.5Z" fill="#818E95"/>
<path d="M22.1932 73.5H22.0559C21.9665 73.5 21.878 73.4797 21.7954 73.4403C21.7128 73.4008 21.6377 73.343 21.5745 73.27C21.5112 73.1971 21.4611 73.1105 21.4268 73.0152C21.3926 72.9199 21.375 72.8177 21.375 72.7146V71.2854C21.3751 71.0771 21.4468 70.8773 21.5745 70.73C21.7022 70.5827 21.8754 70.5 22.0559 70.5H22.1943C22.3748 70.5 22.548 70.5828 22.6756 70.73C22.8033 70.8773 22.875 71.0771 22.875 71.2854V72.7146C22.875 72.8177 22.8574 72.9199 22.8232 73.0152C22.789 73.1105 22.7389 73.1971 22.6757 73.27C22.6125 73.343 22.5374 73.4008 22.4548 73.4403C22.3722 73.4797 22.2837 73.5 22.1943 73.5" fill="#EFEFF4"/>
<path d="M22.2177 74.25H22.0309C21.6582 74.2497 21.3009 74.1015 21.0373 73.8378C20.7737 73.5742 20.6254 73.2167 20.625 72.8437V71.1565C20.6254 70.7836 20.7737 70.4261 21.0373 70.1624C21.3008 69.8987 21.6582 69.7504 22.0309 69.75H22.2191C22.5918 69.7504 22.9492 69.8987 23.2127 70.1624C23.4763 70.4261 23.6246 70.7836 23.625 71.1565V72.8437C23.6246 73.2169 23.4761 73.5746 23.2122 73.8383C22.9483 74.102 22.5906 74.2501 22.2177 74.25ZM22.0309 70.7092C21.9123 70.7094 21.7987 70.7565 21.7148 70.8404C21.631 70.9242 21.5838 71.0379 21.5836 71.1565V72.8437C21.5838 72.9623 21.631 73.076 21.7148 73.1599C21.7987 73.2437 21.9123 73.2909 22.0309 73.2911H22.2191C22.3377 73.2909 22.4513 73.2437 22.5352 73.1599C22.619 73.076 22.6662 72.9623 22.6664 72.8437V71.1565C22.6662 71.0379 22.619 70.9242 22.5352 70.8404C22.4513 70.7565 22.3377 70.7094 22.2191 70.7092H22.0309Z" fill="#818E95"/>
<path d="M15.485 73.3603C15.7463 74.8219 17.1752 75.3079 19.7063 74.8122C22.3207 74.3004 23.028 71.9686 23.028 71.9686C23.028 71.9686 24.7678 73.2962 26.1064 71.6485C27.156 70.3564 26.4435 66.9863 25.4634 66.2992C24.0563 65.3136 22.385 67.0787 22.385 67.0787C22.385 67.0787 14.3493 67.0104 15.485 73.3603Z" fill="#ACB4BE"/>
<path d="M26.1055 71.6485C24.7674 73.296 23.0272 71.9681 23.0272 71.9681C23.0272 71.9681 22.3206 74.3005 19.7064 74.8123C17.1756 75.3078 15.7459 74.8218 15.4848 73.3607C15.4191 73.0027 15.3826 72.6393 15.3757 72.2746C15.2943 67.0172 22.3847 67.0788 22.3847 67.0788C22.3847 67.0788 24.0555 65.3134 25.4631 66.2993C25.9699 66.653 26.4042 67.7238 26.5619 68.8537C26.7097 69.9114 26.6137 71.0235 26.1055 71.6485Z" fill="#ACB4BE"/>
<g opacity="0.3">
<path d="M26.3596 67.722C26.2369 67.5516 26.1053 67.4179 25.9696 67.3288C24.482 66.3548 22.7149 68.0997 22.7149 68.0997C22.7149 68.0997 16.3032 68.0473 15.4062 72.1481C15.4519 67.3131 22.4931 67.37 22.4931 67.37C22.4931 67.37 24.1822 65.7018 25.6052 66.6334C25.8914 66.8206 26.1557 67.2195 26.3596 67.722Z" fill="white"/>
</g>
<g opacity="0.2">
<path d="M26.2537 71.6885C24.9009 73.2452 23.1416 71.9904 23.1416 71.9904C23.1416 71.9904 22.4273 74.1943 19.7844 74.6779C17.2259 75.1461 15.7806 74.6868 15.5166 73.3063C15.4501 72.9681 15.4132 72.6247 15.4062 72.2801C15.8086 72.6444 16.5184 72.9107 17.753 72.7459C20.7023 72.3527 22.1665 71.9202 22.5966 69.1024C22.5966 69.1024 22.696 71.2127 24.6936 70.9755C26.0909 70.8096 26.5633 69.9816 26.7148 69.0469C26.8642 70.0463 26.7672 71.0972 26.2534 71.6877" fill="#818E95"/>
</g>
<path d="M17.871 75C15.6527 75 14.9333 74.0602 14.7491 73.1729C14.4268 71.6205 14.733 70.3139 15.66 69.289C17.5423 67.2084 21.3746 67.0017 22.2738 66.9822C22.7672 66.5862 24.4264 65.428 25.9447 66.3444C26.73 66.8182 27.1727 68.0794 27.3136 69.0154C27.4929 70.2072 27.2752 71.2309 26.7161 71.8236C25.6193 72.9864 24.2231 72.8104 23.3454 72.4365C22.9367 73.1511 21.9059 74.4589 19.7238 74.827C19.0127 74.9465 18.3993 75 17.871 75ZM15.6592 73.0122C15.8772 74.0587 17.1876 74.3864 19.5557 73.9867C21.9808 73.5777 22.662 71.7759 22.6893 71.6994C22.7123 71.6361 22.7511 71.5787 22.8025 71.5317C22.8538 71.4846 22.9164 71.4493 22.9853 71.4286C23.0541 71.4078 23.1272 71.4021 23.1988 71.412C23.2704 71.4219 23.3386 71.447 23.3977 71.4854C23.5495 71.5834 24.925 72.4179 26.0136 71.2632C26.3915 70.8615 26.5332 70.0661 26.3929 69.1321C26.2321 68.0643 25.7787 67.2666 25.434 67.0585C24.2817 66.3633 22.7928 67.6975 22.7781 67.7113C22.6914 67.7902 22.5744 67.8344 22.4525 67.8343H22.4451C22.2991 67.8343 18.1571 67.8569 16.3671 69.8379C15.6279 70.6561 15.3886 71.7245 15.6562 73.013L15.6592 73.0122Z" fill="#818E95"/>
<path d="M22.6648 69.2241C22.6726 69.5075 22.7021 69.7901 22.7531 70.0703C22.8013 70.3458 22.8772 70.6173 22.9798 70.8818C23.0819 71.1384 23.2176 71.3784 23.3893 71.5638C23.5609 71.7492 23.7649 71.8627 23.978 71.9046C24.0432 71.9165 24.1049 71.9393 24.1596 71.9717C24.2143 72.004 24.2609 72.0454 24.2966 72.0932C24.3323 72.1411 24.3565 72.1945 24.3678 72.2504C24.379 72.3063 24.3771 72.3635 24.3621 72.4188C24.3471 72.474 24.3193 72.5262 24.2804 72.5722C24.2415 72.6182 24.1922 72.6572 24.1354 72.6869C24.0787 72.7165 24.0155 72.7363 23.9497 72.745C23.8838 72.7536 23.8166 72.7511 23.7519 72.7374C23.7313 72.7333 23.7109 72.7281 23.691 72.7219L23.6733 72.7161C23.4544 72.6459 23.2526 72.542 23.0778 72.4097C22.9146 72.2859 22.7748 72.1415 22.6633 71.9815C22.4493 71.6763 22.3321 71.3591 22.2544 71.0477C22.1816 70.7417 22.1399 70.4309 22.1298 70.1189C22.1174 69.8119 22.1289 69.5045 22.1643 69.1988C22.1687 69.1434 22.1983 69.0917 22.2468 69.0546C22.2953 69.0175 22.3589 68.998 22.4241 69.0002C22.4893 69.0024 22.5509 69.0261 22.5958 69.0663C22.6407 69.1065 22.6655 69.1601 22.6648 69.2156V69.2241Z" fill="#818E95"/>
<path d="M70.8754 50.6796C70.8754 50.6796 70.7921 46.4302 72.9649 46.5009C75.0683 46.5687 74.5746 51.75 74.5746 51.75" fill="#ACB4BE"/>
<g opacity="0.3">
<path d="M74.9178 50.8122C74.8691 49.423 74.5524 47.6144 73.2376 47.5753C71.6943 47.5294 71.2718 49.4172 71.1562 50.5582L71.1137 50.5469C71.1137 50.5469 71.0293 46.6561 73.2369 46.72C74.8502 46.7667 74.9595 49.4846 74.917 50.8127" fill="white"/>
</g>
<path d="M74.8963 51.75C74.8814 51.75 74.8663 51.7493 74.8511 51.7478C74.7955 51.7422 74.7415 51.7261 74.6924 51.7003C74.6432 51.6746 74.5997 51.6398 74.5645 51.5979C74.5293 51.556 74.503 51.5078 74.4872 51.4561C74.4713 51.4044 74.4661 51.3502 74.472 51.2966C74.5549 50.5338 74.6138 48.3818 73.8979 47.593C73.7357 47.4146 73.552 47.3274 73.3197 47.3218C73.0072 47.3139 72.7481 47.4105 72.5296 47.6191C71.8372 48.2804 71.7156 49.8713 71.7277 50.4286C71.7288 50.4825 71.719 50.5361 71.6986 50.5863C71.6783 50.6365 71.6479 50.6824 71.6091 50.7213C71.5704 50.7602 71.5241 50.7914 71.4728 50.813C71.4216 50.8347 71.3664 50.8464 71.3104 50.8475C71.2544 50.8491 71.1986 50.84 71.1463 50.8206C71.094 50.8012 71.0462 50.772 71.0057 50.7347C70.9652 50.6973 70.9329 50.6526 70.9105 50.603C70.8882 50.5535 70.8763 50.5002 70.8756 50.4462C70.8734 50.3496 70.835 48.0829 71.9282 47.0372C72.3158 46.6661 72.7915 46.4855 73.3443 46.5009C73.8104 46.5142 74.2239 46.7049 74.5397 47.0531C75.6275 48.2524 75.3541 51.066 75.3193 51.3828C75.3082 51.4835 75.2589 51.5767 75.1808 51.6445C75.1027 51.7123 75.0014 51.7498 74.8963 51.75Z" fill="#818E95"/>
<path d="M75.5698 60C76.8785 54.7498 75.8592 49.787 72.6622 48.9309C70.2584 48.2867 66.6321 49.2954 66.397 53.0453C66.1663 56.7263 67.7354 59.3275 71.6462 58.7588" fill="#ACB4BE"/>
<g opacity="0.3">
<path d="M75.8887 56.1925C75.7784 53.1596 74.6528 50.7929 72.558 50.238C70.2393 49.6239 66.7416 50.5866 66.5154 54.1679C66.512 54.2159 66.5099 54.2639 66.5076 54.3105C66.4873 53.9223 66.49 53.5331 66.5154 53.1452C66.7416 49.5639 70.2393 48.6011 72.558 49.2163C74.8835 49.8336 76.0145 52.6794 75.8887 56.1925Z" fill="white"/>
</g>
<path d="M74.7884 59.4639C75.0608 58.3521 75.2342 57.2137 75.2733 56.0745C75.3124 54.9354 75.2225 53.7922 74.9202 52.7232C74.7669 52.191 74.5604 51.6786 74.2786 51.2259C73.9968 50.7733 73.6427 50.3823 73.2181 50.1109C73.0063 49.9751 72.7778 49.8688 72.5386 49.7946C72.2882 49.7211 72.0321 49.6702 71.773 49.6425C71.2465 49.5854 70.7145 49.6163 70.1977 49.734C69.6841 49.8519 69.1931 50.0561 68.7677 50.3493C68.3461 50.6413 67.9963 51.0291 67.7455 51.4824C67.6217 51.7098 67.5234 51.9507 67.4524 52.2006C67.3779 52.4542 67.3282 52.7148 67.3038 52.9784L67.2855 53.1786L67.2758 53.3889C67.2686 53.5291 67.2691 53.6677 67.2679 53.8086C67.2692 54.086 67.284 54.3632 67.3125 54.6391C67.3697 55.185 67.4806 55.7233 67.6903 56.2058C67.7916 56.4448 67.919 56.6712 68.0699 56.8809C68.2194 57.0856 68.3927 57.2708 68.586 57.4326C68.7825 57.5932 68.9979 57.7281 69.227 57.8341C69.4646 57.9408 69.7117 58.0236 69.9649 58.0814C70.4814 58.2015 71.0331 58.2206 71.594 58.2107H71.5984C71.6504 58.2097 71.7009 58.2284 71.7403 58.263C71.7797 58.2977 71.8052 58.346 71.8121 58.3987C71.8189 58.4515 71.8066 58.5049 71.7774 58.5489C71.7483 58.593 71.7043 58.6245 71.6539 58.6374C71.0799 58.786 70.472 58.8546 69.854 58.7859C69.5406 58.7517 69.2324 58.679 68.9361 58.5693C68.6316 58.4577 68.3449 58.3004 68.0855 58.1027C67.5561 57.7112 67.1646 57.1539 66.9014 56.5692C66.6382 55.9846 66.4973 55.3573 66.423 54.7392C66.3919 54.431 66.3759 54.1215 66.375 53.8117C66.3765 53.6578 66.3767 53.5038 66.3849 53.3509L66.396 53.1213L66.4178 52.8831C66.4795 52.2495 66.6627 51.6084 66.9831 51.0376C67.3059 50.4679 67.7529 49.9822 68.2893 49.6184C68.8187 49.2583 69.411 49.0191 70.0169 48.8835C70.6233 48.7499 71.2466 48.7163 71.8634 48.7839C72.1752 48.8175 72.4834 48.8793 72.7845 48.9687C73.0949 49.0652 73.3915 49.2033 73.6665 49.3795C74.217 49.7322 74.6584 50.2259 74.991 50.7634C75.3235 51.301 75.5588 51.8876 75.7296 52.4807C76.0654 53.6718 76.1563 54.8979 76.1162 56.1047C76.076 57.3115 75.8921 58.5084 75.6063 59.6737C75.5929 59.7286 75.569 59.7803 75.536 59.8257C75.5031 59.8712 75.4617 59.9096 75.4143 59.9387C75.3668 59.9678 75.3142 59.987 75.2595 59.9953C75.2048 60.0036 75.149 60.0008 75.0954 59.9871C75.0417 59.9733 74.9912 59.9489 74.9468 59.9151C74.9024 59.8814 74.8649 59.8391 74.8365 59.7905C74.808 59.7419 74.7892 59.6881 74.7811 59.6321C74.773 59.5761 74.7757 59.519 74.7892 59.4641L74.7884 59.4639Z" fill="#818E95"/>
<path d="M69.8903 51.4715C69.735 51.4667 69.5797 51.4788 69.4268 51.5075C69.2688 51.5338 69.1128 51.5722 68.9601 51.6225C68.6604 51.7176 68.3778 51.8647 68.1238 52.0577C67.8824 52.2434 67.6777 52.4771 67.5211 52.7457C67.3677 53.0114 67.2828 53.3147 67.2193 53.621L67.2138 53.6473C67.1898 53.7634 67.1232 53.8648 67.0285 53.929C66.9338 53.9932 66.8188 54.015 66.7089 53.9897C66.5989 53.9644 66.503 53.8939 66.4422 53.7939C66.3814 53.6939 66.3608 53.5724 66.3847 53.4563C66.3877 53.4426 66.3912 53.4284 66.3952 53.4152C66.5137 53.0235 66.6691 52.6378 66.9095 52.3039C67.1469 51.9759 67.4431 51.7004 67.7811 51.4931C68.1076 51.2952 68.4628 51.1556 68.8323 51.08C69.013 51.0415 69.1962 51.017 69.3802 51.0069C69.569 50.9929 69.7586 51.0003 69.9458 51.029C69.9993 51.0378 70.0477 51.0679 70.0808 51.1132C70.1139 51.1584 70.1294 51.2154 70.1239 51.2724C70.1185 51.3293 70.0926 51.3819 70.0516 51.4193C70.0106 51.4566 69.9576 51.476 69.9035 51.4733L69.8903 51.4715Z" fill="#818E95"/>
<path d="M70.6111 55.288C70.4535 55.2604 70.2933 55.2533 70.1341 55.267C69.9666 55.2785 69.8 55.303 69.6357 55.34C69.3082 55.4141 68.9887 55.5346 68.7145 55.7057C68.4404 55.8768 68.2154 56.1011 68.0912 56.3611C67.9624 56.6193 67.94 56.9152 67.9816 57.2235V57.2262C67.9977 57.3467 67.9684 57.469 67.9001 57.5664C67.8319 57.6638 67.7302 57.7282 67.6176 57.7454C67.505 57.7626 67.3906 57.7313 67.2995 57.6583C67.2085 57.5853 67.1483 57.4766 67.1322 57.3561C67.1302 57.341 67.1289 57.3254 67.1282 57.3105C67.1169 57.0754 67.1357 56.8396 67.1839 56.6099C67.2341 56.3744 67.3236 56.1505 67.4482 55.9491C67.6966 55.5448 68.0569 55.2721 68.4215 55.0948C68.7805 54.9249 69.1624 54.8171 69.5531 54.7754C69.7445 54.7529 69.9373 54.7453 70.1298 54.7528C70.3308 54.7573 70.5305 54.7891 70.7239 54.8476C70.7761 54.8648 70.8201 54.9026 70.847 54.9533C70.874 55.004 70.8818 55.0638 70.869 55.1205C70.8561 55.1772 70.8235 55.2265 70.7778 55.2584C70.7322 55.2903 70.6768 55.3023 70.6232 55.292L70.6111 55.288Z" fill="#818E95"/>
<path d="M62.1528 72H29.3472C28.8242 72 28.3226 71.7878 27.9527 71.4102C27.5829 71.0325 27.3751 70.5203 27.375 69.9861V50.7641C27.375 50.23 27.5828 49.7177 27.9527 49.3399C28.3225 48.9622 28.8242 48.75 29.3472 48.75H62.1528C62.6758 48.75 63.1775 48.9622 63.5473 49.3399C63.9172 49.7177 64.125 50.23 64.125 50.7641V69.9861C64.125 70.2506 64.074 70.5125 63.9749 70.7569C63.8758 71.0012 63.7305 71.2232 63.5473 71.4102C63.3642 71.5973 63.1468 71.7456 62.9075 71.8468C62.6682 71.948 62.4118 72 62.1528 72Z" fill="#EFEFF4"/>
<path d="M64.125 50.7637V69.9863C64.1249 70.5204 63.9171 71.0325 63.5473 71.4101C63.1775 71.7878 62.676 71.9999 62.1531 72H29.348C28.8249 72.0001 28.3232 71.7881 27.9532 71.4104C27.5832 71.0328 27.3752 70.5205 27.375 69.9863V50.7637C27.3751 50.4992 27.4262 50.2372 27.5253 49.9929C27.6245 49.7485 27.7699 49.5265 27.9531 49.3395C28.1363 49.1525 28.3538 49.0042 28.5931 48.903C28.8325 48.8019 29.089 48.7499 29.348 48.75H62.1523C62.6752 48.7501 63.1767 48.9622 63.5465 49.3399C63.9163 49.7175 64.1241 50.2296 64.1242 50.7637" fill="#DBDDE4"/>
<path d="M45.9113 54.75C45.9113 54.4582 46.0025 54.1728 46.1737 53.9286C46.3448 53.6845 46.5886 53.4924 46.875 53.3758C46.6305 53.2759 46.3633 53.2345 46.0974 53.2552C45.8315 53.276 45.5754 53.3583 45.352 53.4946C45.1287 53.631 44.9453 53.8172 44.8184 54.0364C44.6915 54.2556 44.625 54.5008 44.625 54.75C44.625 54.9992 44.6915 55.2444 44.8184 55.4636C44.9453 55.6828 45.1287 55.869 45.352 56.0054C45.5754 56.1417 45.8315 56.224 46.0974 56.2448C46.3633 56.2655 46.6305 56.2241 46.875 56.1242C46.5886 56.0076 46.3448 55.8155 46.1737 55.5714C46.0025 55.3272 45.9113 55.0418 45.9113 54.75Z" fill="#818E95"/>
<path d="M64.125 67.1613V69.9812C64.1249 70.5166 63.9171 71.0301 63.5473 71.4086C63.1775 71.7872 62.676 71.9999 62.1531 72H29.348C28.8249 72.0001 28.3232 71.7875 27.9532 71.4089C27.5832 71.0304 27.3752 70.5168 27.375 69.9812V67.1885C28.5247 68.6034 30.3295 69.921 33.0656 69.921C42.5684 69.921 42.6181 60 42.6181 60L45.7395 60.1303L48.8598 60C48.8598 60 48.9118 69.921 58.4122 69.921C61.1663 69.921 62.9753 68.5885 64.124 67.1613" fill="#DBDDE4"/>
<path d="M64.125 50.8677V52.1257C64.1251 51.8475 64.0741 51.572 63.9751 51.3149C63.876 51.0579 63.7308 50.8243 63.5476 50.6275C63.3645 50.4307 63.1471 50.2746 62.9079 50.1681C62.6686 50.0616 62.4121 50.0067 62.1531 50.0066H59.0971C59.1036 50.0555 59.1069 50.1048 59.1069 50.1542C59.1069 51.4494 56.9559 52.5 54.3036 52.5C51.6513 52.5 49.5003 51.4494 49.5003 50.1542C49.5003 50.1048 49.5037 50.0555 49.5105 50.0066H29.348C29.0889 50.0066 28.8323 50.0614 28.5929 50.1678C28.3535 50.2743 28.136 50.4304 27.9528 50.6272C27.7696 50.824 27.6243 51.0576 27.5251 51.3147C27.426 51.5718 27.375 51.8474 27.375 52.1257V50.8677C27.3751 50.5895 27.4262 50.314 27.5253 50.057C27.6245 49.8 27.7699 49.5666 27.9531 49.3699C28.1363 49.1733 28.3538 49.0173 28.5931 48.9109C28.8325 48.8046 29.089 48.7499 29.348 48.75H62.1523C62.6752 48.7501 63.1767 48.9732 63.5465 49.3703C63.9163 49.7674 64.1241 50.306 64.1242 50.8677" fill="#EFEFF4"/>
<path d="M62.4206 72H29.0792C28.4285 71.9993 27.8047 71.749 27.3446 71.304C26.8845 70.859 26.6257 70.2556 26.625 69.6262V51.1238C26.6258 50.4944 26.8846 49.8911 27.3447 49.4461C27.8047 49.0011 28.4285 48.7507 29.0792 48.75H62.4206C63.0713 48.7507 63.6951 49.001 64.1552 49.446C64.6154 49.891 64.8742 50.4944 64.875 51.1238V69.6262C64.8742 70.2556 64.6154 70.859 64.1552 71.304C63.6951 71.749 63.0713 71.9993 62.4206 72ZM29.0792 49.62C28.667 49.6205 28.2719 49.7791 27.9805 50.061C27.6891 50.3429 27.5252 50.7251 27.5247 51.1238V69.6262C27.5251 70.0249 27.689 70.4071 27.9804 70.689C28.2719 70.971 28.667 71.1295 29.0792 71.13H62.4206C62.8328 71.1296 63.228 70.9711 63.5195 70.6891C63.8109 70.4072 63.9749 70.0249 63.9753 69.6262V51.1238C63.9748 50.7251 63.8108 50.3429 63.5194 50.061C63.2279 49.779 62.8328 49.6205 62.4206 49.62H29.0792Z" fill="#818E95"/>
<path d="M48.7531 60H42.7482L40.875 75.75H50.625L48.7531 60ZM45.6859 69.4759C45.3802 69.4759 45.0815 69.3819 44.8273 69.2059C44.5732 69.0299 44.3751 68.7797 44.2582 68.487C44.1412 68.1943 44.1106 67.8722 44.1702 67.5615C44.2299 67.2507 44.377 66.9653 44.5932 66.7413C44.8093 66.5172 45.0846 66.3647 45.3844 66.3029C45.6842 66.241 45.9949 66.2728 46.2773 66.394C46.5596 66.5153 46.801 66.7206 46.9708 66.984C47.1406 67.2474 47.2312 67.5571 47.2312 67.874C47.2308 68.2987 47.0679 68.7059 46.7782 69.0062C46.4884 69.3066 46.0956 69.4755 45.6859 69.4759Z" fill="#EFEFF4"/>
<path d="M50.4606 74.25H41.0394L40.875 75.75H50.625L50.4606 74.25Z" fill="#DBDDE4"/>
<path d="M45.75 66C45.3792 66 45.0167 66.1319 44.7084 66.3791C44.4001 66.6263 44.1598 66.9776 44.0178 67.3886C43.8759 67.7997 43.8387 68.252 43.9109 68.6884C43.9832 69.1249 44.1617 69.5258 44.4238 69.8405C44.6859 70.1552 45.0199 70.3696 45.3835 70.4566C45.7471 70.5436 46.1241 70.4992 46.4667 70.3291C46.8094 70.159 47.1023 69.8709 47.3085 69.501C47.5146 69.1312 47.6248 68.6963 47.625 68.2514C47.6248 67.6546 47.4272 67.0823 47.0756 66.6602C46.7241 66.2381 46.2473 66.0007 45.75 66ZM45.7694 69.6768C45.4893 69.6768 45.2155 69.5772 44.9826 69.3904C44.7497 69.2036 44.5681 68.9382 44.4609 68.6277C44.3537 68.3171 44.3257 67.9754 44.3803 67.6457C44.435 67.316 44.5699 67.0132 44.768 66.7755C44.966 66.5378 45.2184 66.3759 45.4931 66.3103C45.7679 66.2448 46.0526 66.2784 46.3114 66.4071C46.5702 66.5357 46.7914 66.7535 46.9471 67.033C47.1027 67.3125 47.1857 67.6411 47.1857 67.9773C47.1854 68.4279 47.0361 68.8599 46.7705 69.1786C46.505 69.4972 46.145 69.6764 45.7694 69.6768Z" fill="white"/>
<path d="M48.7531 60H42.7482L40.875 75.75H40.9855L42.7482 60.9311H48.7531L50.5147 75.75H50.625L48.7531 60Z" fill="white"/>
<path d="M50.9253 76.5H40.5754C40.5116 76.5 40.4486 76.4863 40.3904 76.4598C40.3322 76.4333 40.2803 76.3945 40.238 76.3461C40.1958 76.2977 40.1641 76.2408 40.1452 76.1791C40.1263 76.1174 40.1206 76.0523 40.1284 75.9881L42.1166 59.6503C42.13 59.5398 42.1829 59.4381 42.2653 59.3644C42.3476 59.2906 42.4537 59.2499 42.5636 59.25H48.9382C49.0481 59.2499 49.1542 59.2906 49.2366 59.3644C49.3189 59.4381 49.3718 59.5398 49.3853 59.6503L51.3716 75.9881C51.3794 76.0523 51.3737 76.1174 51.3548 76.1791C51.3359 76.2408 51.3042 76.2977 51.262 76.3461C51.2197 76.3945 51.1678 76.4333 51.1096 76.4598C51.0514 76.4863 50.9883 76.5 50.9246 76.5H50.9253ZM41.0845 75.5879H50.4161L48.5401 60.1621H42.962L41.0845 75.5879ZM45.6822 69.9925C45.2687 69.9925 44.8645 69.8683 44.5207 69.6356C44.1769 69.4029 43.9089 69.0721 43.7507 68.6852C43.5924 68.2982 43.551 67.8724 43.6317 67.4616C43.7123 67.0508 43.9115 66.6734 44.2039 66.3773C44.4962 66.0811 44.8688 65.8794 45.2743 65.7977C45.6799 65.716 46.1002 65.7579 46.4823 65.9182C46.8643 66.0785 47.1908 66.3499 47.4205 66.6982C47.6503 67.0464 47.7729 67.4559 47.7729 67.8747C47.7725 68.4363 47.5521 68.9747 47.1601 69.3717C46.7681 69.7688 46.2366 69.9921 45.6822 69.9925ZM45.6822 66.6691C45.4468 66.6691 45.2166 66.7397 45.0209 66.8722C44.8251 67.0046 44.6725 67.1929 44.5824 67.4132C44.4923 67.6335 44.4687 67.8759 44.5146 68.1098C44.5604 68.3437 44.6738 68.5585 44.8402 68.7271C45.0067 68.8958 45.2187 69.0106 45.4496 69.0572C45.6805 69.1037 45.9199 69.0799 46.1373 68.9886C46.3548 68.8974 46.5407 68.7428 46.6715 68.5446C46.8023 68.3463 46.8721 68.1132 46.8721 67.8747C46.8717 67.5552 46.7462 67.2488 46.5232 67.0228C46.3001 66.7968 45.9977 66.6696 45.6822 66.6691Z" fill="#818E95"/>
<path d="M62.1119 33.5391C62.1119 33.5391 64.2174 34.7554 64.667 35.3141C65.0688 35.8138 65.5407 38.7102 64.3092 38.7735C63.3753 38.8214 63.3471 37.0455 63.083 36.681C62.8188 36.3165 61.8574 35.9079 61.8574 35.9079" fill="#DBDDE4"/>
<path d="M29.4777 33.5391C29.4777 33.5391 27.3721 34.7554 26.9228 35.3141C26.5207 35.8138 26.0489 38.7102 27.2803 38.7735C28.2143 38.8214 28.2424 37.0455 28.5066 36.681C28.7707 36.3165 29.7322 35.9079 29.7322 35.9079" fill="#DBDDE4"/>
<path d="M29.7322 35.9081C29.7322 35.9081 28.7708 36.3171 28.5059 36.6814C28.2411 37.0457 28.2134 38.8209 27.2799 38.7739C26.6668 38.7431 26.4767 38.0089 26.4888 37.2194C26.5007 36.4213 26.7206 35.5663 26.9226 35.3145C27.3726 34.7563 29.4773 33.5391 29.4773 33.5391L29.6573 35.2189L29.7322 35.9081Z" fill="#DBDDE4"/>
<g opacity="0.7">
<path d="M29.7321 35.9088C29.7321 35.9088 29.5847 35.9713 29.3887 36.0699L29.2135 34.4348C29.2135 34.4348 27.1086 35.6518 26.6588 36.2103C26.6256 36.2535 26.5973 36.3002 26.5742 36.3495C26.6597 35.8739 26.7952 35.4738 26.9225 35.3145C27.3725 34.7563 29.4772 33.5391 29.4772 33.5391L29.6572 35.2189L29.7321 35.9088Z" fill="white"/>
</g>
<path d="M29.7322 35.9085C29.7322 35.9085 28.7708 36.3176 28.5059 36.6819C28.2411 37.0461 28.2134 38.8214 27.2799 38.7744C26.6668 38.7435 26.4767 38.0094 26.4888 37.2198C26.6666 37.0446 27.0322 37.0623 27.3456 37.1073C27.8451 37.178 27.6899 36.1848 28.3356 35.7573C28.7368 35.4936 29.1858 35.3113 29.6573 35.2207L29.7322 35.9085Z" fill="#D5D7D8"/>
<g opacity="0.7">
<path d="M61.8574 35.9088C61.8574 35.9088 62.0048 35.9713 62.2008 36.0699L62.376 34.4348C62.376 34.4348 64.4809 35.6518 64.9307 36.2103C64.9639 36.2535 64.9923 36.3002 65.0153 36.3495C64.9296 35.8739 64.7943 35.4738 64.667 35.3145C64.217 34.7563 62.1121 33.5391 62.1121 33.5391L61.9321 35.2189L61.8574 35.9088Z" fill="white"/>
</g>
<path d="M61.8574 35.9085C61.8574 35.9085 62.8188 36.3176 63.0834 36.6819C63.348 37.0461 63.3759 38.8214 64.3097 38.7744C64.9228 38.7435 65.1127 38.0094 65.1008 37.2198C64.923 37.0446 64.5574 37.0623 64.244 37.1073C63.7443 37.178 63.8995 36.1848 63.254 35.7573C62.8528 35.4936 62.4038 35.3113 61.9323 35.2207L61.8574 35.9085Z" fill="#D5D7D8"/>
<path d="M64.2676 39.1725C63.3359 39.1725 63.0652 38.0662 62.9021 37.3993C62.8582 37.2193 62.7981 36.9749 62.7587 36.9112C62.6384 36.7454 62.1157 36.4504 61.7012 36.274C61.6041 36.2327 61.5273 36.1545 61.4879 36.0566C61.4484 35.9587 61.4494 35.8491 61.4907 35.7519C61.5321 35.6548 61.6103 35.578 61.7082 35.5385C61.8061 35.4991 61.9157 35.5001 62.0129 35.5414C62.1906 35.6168 63.0929 36.0153 63.4052 36.4471C63.5305 36.6199 63.5942 36.8804 63.6752 37.21C63.7904 37.6807 63.9611 38.3893 64.289 38.3758C64.3459 38.3726 64.4647 38.3665 64.568 38.1361C64.887 37.4236 64.5758 35.8357 64.3567 35.5633C64.0642 35.1988 62.702 34.3395 61.9127 33.8834C61.8213 33.8306 61.7546 33.7436 61.7273 33.6416C61.7 33.5397 61.7144 33.431 61.7672 33.3396C61.82 33.2482 61.9069 33.1815 62.0089 33.1542C62.1109 33.1269 62.2196 33.1412 62.311 33.194C62.5331 33.3223 64.4948 34.4648 64.977 35.0642C65.3561 35.5351 65.7497 37.4452 65.2947 38.4617C65.0996 38.8971 64.757 39.1491 64.3297 39.1709C64.3088 39.1718 64.2881 39.1725 64.2676 39.1725Z" fill="#818E95"/>
<path d="M27.3215 39.1727C27.301 39.1727 27.2803 39.1727 27.2592 39.1709C26.8317 39.1484 26.4892 38.8971 26.2942 38.4617C25.8392 37.4454 26.233 35.5354 26.6119 35.0642C27.094 34.4648 29.0558 33.3223 29.2779 33.194C29.3693 33.1412 29.478 33.1269 29.58 33.1542C29.6819 33.1815 29.7689 33.2482 29.8217 33.3396C29.8745 33.431 29.8889 33.5397 29.8616 33.6416C29.8343 33.7436 29.7676 33.8306 29.6761 33.8834C28.8868 34.3395 27.5254 35.1988 27.2322 35.5633C27.013 35.8357 26.7019 37.4236 27.0209 38.1361C27.1242 38.3665 27.243 38.3726 27.3001 38.3758C27.6217 38.3924 27.7985 37.6807 27.9139 37.2098C27.9947 36.8802 28.0584 36.6199 28.1839 36.4471C28.4971 36.0153 29.3989 35.6168 29.5762 35.5414C29.6734 35.5001 29.783 35.4991 29.8809 35.5385C29.9788 35.578 30.057 35.6548 30.0984 35.7519C30.1397 35.8491 30.1407 35.9587 30.1013 36.0566C30.0618 36.1545 29.985 36.2327 29.8879 36.274C29.4739 36.4504 28.9512 36.7465 28.8286 36.9146C28.7917 36.9749 28.7316 37.2202 28.6877 37.3993C28.5239 38.0662 28.2521 39.1725 27.3215 39.1727Z" fill="#818E95"/>
<path d="M63.0917 39.0562C63.044 40.1081 62.835 44.6682 56.8 45.0574C50.0703 45.4912 49.3995 39.8599 47.7753 38.5655C47.0586 37.9951 45.8565 37.9882 45.7869 37.9882H45.7838C45.7143 37.9882 44.5119 37.9951 43.7955 38.5655C42.1712 39.8604 41.5005 45.4912 34.7716 45.0574C28.7367 44.6682 28.5276 40.1074 28.4799 39.0562C28.446 38.3306 28.4799 35.0512 28.4799 35.0512C28.4788 34.6986 28.5799 34.3531 28.771 34.0568C28.9621 33.7604 29.2351 33.5257 29.5568 33.3813C35.7758 30.6363 41.2993 33.7156 43.1594 34.6352C44.0502 35.0762 44.5229 34.9747 45.7838 34.9747H45.7869C47.0469 34.9747 47.5194 35.0762 48.4113 34.6352C50.2714 33.7156 55.7947 30.6374 62.0139 33.3813C62.3359 33.5255 62.6092 33.76 62.8005 34.0564C62.9918 34.3528 63.093 34.6984 63.0917 35.0512C63.0917 35.0512 63.1245 38.3306 63.0917 39.0562Z" fill="#DBDDE4"/>
<path d="M63.0917 39.0562C63.044 40.1081 62.835 44.6682 56.8 45.0574C50.0703 45.4912 49.3995 39.8599 47.7753 38.5655C47.0586 37.9951 45.8565 37.9882 45.7869 37.9882H45.7838C45.7143 37.9882 44.5119 37.9951 43.7955 38.5655C42.1712 39.8604 41.5005 45.4912 34.7716 45.0574C28.7367 44.6682 28.5276 40.1074 28.4799 39.0562C28.446 38.3306 28.4799 35.0512 28.4799 35.0512C28.4788 34.6986 28.5799 34.3531 28.771 34.0568C28.9621 33.7604 29.2351 33.5257 29.5568 33.3813C35.7758 30.6363 41.2993 33.7156 43.1594 34.6352C44.0502 35.0762 44.5229 34.9747 45.7838 34.9747H45.7869C47.0469 34.9747 47.5194 35.0762 48.4113 34.6352C50.2714 33.7156 55.7947 30.6374 62.0139 33.3813C62.3359 33.5255 62.6092 33.76 62.8005 34.0564C62.9918 34.3528 63.093 34.6984 63.0917 35.0512C63.0917 35.0512 63.1245 38.3306 63.0917 39.0562Z" fill="#DBDDE4"/>
<g opacity="0.7">
<path d="M63.107 38.0702C63.1041 36.9965 63.0931 35.8798 63.0931 35.8798C63.0944 35.527 62.9932 35.1814 62.8019 34.885C62.6106 34.5885 62.3373 34.354 62.0153 34.2098C55.7961 31.4648 50.2728 34.5442 48.4127 35.4638C47.522 35.9045 47.0492 35.8031 45.7883 35.8031H45.7852C44.5252 35.8031 44.0527 35.9045 43.1608 35.4638C41.3007 34.5442 35.7772 31.466 29.5582 34.2098C29.2365 34.3543 28.9635 34.5889 28.7724 34.8853C28.5813 35.1817 28.4802 35.5271 28.4813 35.8798C28.4813 35.8798 28.4703 36.9863 28.4674 38.0562C28.4633 36.8293 28.4813 35.0498 28.4813 35.0498C28.4802 34.6972 28.5812 34.3518 28.7722 34.0554C28.9633 33.759 29.2361 33.5244 29.5577 33.3798C35.7767 30.6348 41.3003 33.7142 43.1603 34.6337C44.0511 35.0745 44.5238 34.973 45.7847 34.973H45.7879C47.0479 34.973 47.5204 35.0745 48.4123 34.6337C50.2724 33.7142 55.7957 30.6359 62.0149 33.3798C62.3369 33.524 62.6101 33.7585 62.8014 34.0549C62.9927 34.3514 63.0939 34.697 63.0926 35.0498C63.0926 35.0498 63.1111 36.8421 63.107 38.0702Z" fill="white"/>
</g>
<path d="M63.1064 38.1444C63.1044 38.5454 63.1006 38.8779 63.0925 39.0559C63.0448 40.108 62.8358 44.6681 56.8008 45.0571C50.0711 45.4911 49.4003 39.8596 47.7761 38.5654C47.0594 37.995 45.8573 37.9881 45.7877 37.9881H45.7846C45.7151 37.9881 44.5127 37.995 43.7963 38.5654C42.172 39.8601 41.5013 45.4911 34.7724 45.0571C28.7375 44.6681 28.5284 40.1071 28.4807 39.0559C28.4726 38.8788 28.4688 38.5494 28.4668 38.1523C28.4985 38.4817 29.6253 40.7121 30.5478 38.3951C31.2086 36.7341 31.3738 41.2555 35.7021 41.5352C38.9594 41.7451 39.5894 38.8201 40.6433 39.5635C42.3281 40.7508 42.3308 37.9552 43.1692 37.2874C43.8858 36.7173 45.7151 36.7103 45.7846 36.7103L45.7866 35.0581V36.7103C45.8561 36.7103 47.6854 36.7173 48.402 37.2874C49.2399 37.9552 49.2428 40.7508 50.9279 39.5635C51.9818 38.821 52.6118 41.746 55.8691 41.5352C60.1974 41.2555 60.3626 36.7341 61.0234 38.3951C61.954 40.731 63.0916 38.4459 63.1064 38.1444Z" fill="#D5D7D8"/>
<path d="M56.0828 45.4788C51.4478 45.4788 49.7725 42.5025 48.645 40.4996C48.2436 39.7859 47.8966 39.1698 47.5288 38.8766C47.0414 38.4885 46.1774 38.3861 45.7886 38.3861C45.3998 38.3861 44.5327 38.4885 44.0449 38.8766C43.6774 39.1691 43.3305 39.7861 42.9289 40.4996C41.8016 42.5021 40.1256 45.4786 35.4922 45.4788C35.2519 45.4788 35.0044 45.4709 34.7479 45.4543C30.6252 45.1886 28.2586 42.9226 28.0838 39.0739C28.0498 38.3458 28.0822 35.1814 28.0838 35.0464C28.0832 34.6173 28.2069 34.1973 28.44 33.837C28.6732 33.4767 29.0057 33.1917 29.3974 33.0165C35.4852 30.3309 40.975 33.0907 43.0418 34.1296C43.1489 34.1833 43.2477 34.2331 43.3377 34.2776C43.9902 34.6003 44.3671 34.5947 45.1939 34.5816C45.3719 34.5789 45.567 34.5758 45.7857 34.5758C46.0044 34.5758 46.2026 34.5789 46.3806 34.5816C47.2077 34.5944 47.585 34.6003 48.2366 34.2779C48.3266 34.2329 48.4256 34.1833 48.5327 34.1296C50.5996 33.0905 56.0893 30.3305 62.1765 33.0163C62.5691 33.1917 62.9024 33.4772 63.1358 33.8383C63.3693 34.1994 63.493 34.6205 63.4918 35.0505C63.493 35.181 63.5242 38.3461 63.4918 39.0744C63.317 42.9219 60.9505 45.189 56.828 45.4547C56.5714 45.4711 56.323 45.4791 56.0828 45.4788ZM45.7855 37.5899C45.9322 37.5899 47.2142 37.6085 48.0249 38.2538C48.5143 38.644 48.8963 39.3228 49.3389 40.1089C50.492 42.1564 52.0722 44.9638 56.776 44.6598C59.3676 44.4926 62.4982 43.3811 62.6958 39.038C62.7277 38.3315 62.6958 35.0867 62.6958 35.0541C62.6976 34.7778 62.6191 34.5068 62.4699 34.2743C62.3206 34.0417 62.107 33.8575 61.855 33.7441C56.1121 31.2104 51.0516 33.7543 48.8907 34.8406C48.7818 34.8953 48.6814 34.9457 48.5899 34.9909C47.7657 35.3988 47.2399 35.3909 46.3684 35.3772C46.1943 35.3745 46.003 35.3716 45.7891 35.3716C45.5751 35.3716 45.3807 35.3745 45.2065 35.3772C44.3351 35.3909 43.8093 35.3997 42.9849 34.9909C42.8935 34.9459 42.7932 34.8953 42.6843 34.8406C40.5243 33.7543 35.4631 31.2102 29.7196 33.7444C29.4685 33.8575 29.2556 34.041 29.1066 34.2726C28.9576 34.5042 28.8789 34.774 28.8801 35.0494C28.8801 35.0863 28.8468 38.3306 28.8801 39.0366C29.0774 43.3809 32.2081 44.492 34.7998 44.6591C39.5044 44.9615 41.0827 42.1569 42.2359 40.1083C42.6784 39.3221 43.0607 38.6433 43.5499 38.2534C44.3599 37.6085 45.6419 37.5899 45.7855 37.5899Z" fill="#818E95"/>
<path d="M35.4929 43.0008C35.3034 43.0008 35.1059 42.9943 34.9056 42.9815C31.203 42.7427 30.6369 40.7078 30.5575 38.9616C30.5408 38.5967 30.5431 37.2939 30.5507 36.1394C30.5523 35.8571 30.6428 35.5824 30.8095 35.3545C30.9762 35.1266 31.2105 34.957 31.4791 34.87C32.5555 34.5223 33.6797 34.3455 34.8109 34.3462C36.9995 34.3462 38.9219 34.9762 40.0392 35.4377C40.3548 35.5683 40.624 35.7904 40.8122 36.0754C41.0004 36.3604 41.0989 36.6952 41.0951 37.0367C41.0873 37.7738 41.0209 38.7065 40.7691 39.284C39.9656 41.1259 38.6766 43.0008 35.4929 43.0008Z" fill="#232333"/>
<path d="M35.4929 43.0008C35.3034 43.0008 35.1059 42.9943 34.9056 42.9815C31.203 42.7427 30.6369 40.7078 30.5575 38.9616C30.5408 38.5967 30.5431 37.2939 30.5507 36.1394C30.5523 35.8571 30.6428 35.5824 30.8095 35.3545C30.9762 35.1266 31.2105 34.957 31.4791 34.87C32.5555 34.5223 33.6797 34.3455 34.8109 34.3462C36.9995 34.3462 38.9219 34.9762 40.0392 35.4377C40.3548 35.5683 40.624 35.7904 40.8122 36.0754C41.0004 36.3604 41.0989 36.6952 41.0951 37.0367C41.0873 37.7738 41.0209 38.7065 40.7691 39.284C39.9656 41.1259 38.6766 43.0008 35.4929 43.0008Z" fill="#232333"/>
<path d="M41.0948 37.0373C41.087 37.7746 41.0213 38.7073 40.7695 39.2844C40.117 40.7813 39.1432 42.2994 37.0941 42.8169C36.6216 42.9364 36.0899 43.0021 35.4928 43.0021C35.3036 43.0021 35.1056 42.996 34.9055 42.9832C34.3655 42.9483 33.893 42.8756 33.4795 42.7712C31.0495 42.1572 30.6251 40.4537 30.5574 38.9624C30.5405 38.5981 30.5435 37.2954 30.5504 36.1409C30.5521 35.8585 30.6427 35.5838 30.8094 35.3558C30.9761 35.1278 31.2104 34.9582 31.479 34.871C32.4348 34.5624 33.429 34.3886 34.4328 34.3546C34.5581 34.3495 34.6846 34.3477 34.811 34.3477C35.9117 34.3477 36.9447 34.5067 37.8416 34.7239C38.5916 34.9047 39.3262 35.1439 40.0389 35.4394C40.3545 35.5697 40.6237 35.7916 40.8119 36.0764C41.0002 36.3612 41.0987 36.6959 41.0948 37.0373Z" fill="#423636"/>
<path d="M38.6072 37.8283L37.0948 42.8154C36.6223 42.9349 36.0906 43.0006 35.4934 43.0006C35.3042 43.0006 35.1062 42.9945 34.9062 42.9817C34.3662 42.9468 33.8937 42.8741 33.4801 42.7697L34.8556 38.8844H32.5723L34.4344 34.3532C34.5597 34.348 34.6861 34.3462 34.8126 34.3462C35.9133 34.3462 36.9463 34.5053 37.8431 34.7224L36.591 37.8274L38.6072 37.8283Z" fill="#007AFF"/>
<path d="M56.0789 43.0008C56.2684 43.0008 56.4659 42.9943 56.6662 42.9815C60.3688 42.7427 60.9349 40.7078 61.0143 38.9616C61.031 38.5967 61.0285 37.2939 61.0211 36.1394C61.0195 35.8571 60.9289 35.5824 60.7623 35.3545C60.5956 35.1266 60.3613 34.9571 60.0927 34.87C59.0163 34.5223 57.8919 34.3455 56.7607 34.3462C54.5723 34.3462 52.6499 34.9762 51.5326 35.4377C51.217 35.5683 50.9478 35.7904 50.7596 36.0754C50.5714 36.3604 50.4729 36.6952 50.4767 37.0367C50.4845 37.7738 50.5509 38.7065 50.8027 39.284C51.6066 41.1259 52.8952 43.0008 56.0789 43.0008Z" fill="#423636"/>
<path d="M59.2001 37.8283L57.6735 42.8602C57.3405 42.9204 57.0042 42.9609 56.6664 42.9817C56.4664 42.9945 56.2693 43.0006 56.0792 43.0006C55.3157 43.0006 54.6617 42.893 54.0958 42.7029L55.4483 38.8844H53.1641L54.9744 34.4794C55.5659 34.3919 56.163 34.3474 56.7609 34.3462C57.3527 34.3462 57.9435 34.3944 58.5274 34.4904L57.1828 37.8283H59.2001Z" fill="#007AFF"/>
<path d="M35.4923 43.3987C35.2945 43.3987 35.0873 43.3917 34.8796 43.3784C30.8163 43.1165 30.2396 40.7423 30.1595 38.9792C30.1391 38.5362 30.1476 36.8435 30.1523 36.1363C30.1539 35.7701 30.2712 35.4137 30.4875 35.1181C30.7037 34.8226 31.0079 34.603 31.3565 34.4907C32.4725 34.1306 33.6379 33.9475 34.8105 33.9478C37.0171 33.9478 38.9543 34.5577 40.1909 35.0696C40.5807 35.2295 40.9133 35.5029 41.1455 35.8544C41.3777 36.2059 41.4987 36.6192 41.4928 37.0404C41.4815 38.1139 41.3607 38.9221 41.1328 39.4427C40.3304 41.2843 38.9633 43.3984 35.4923 43.3987ZM34.8105 34.7431C33.7209 34.7429 32.6379 34.9131 31.6009 35.2476C31.4118 35.3086 31.2469 35.4279 31.1297 35.5884C31.0125 35.7488 30.9491 35.9422 30.9484 36.1408C30.9389 37.6004 30.9412 38.6478 30.9547 38.9423C31.0312 40.6208 31.5622 42.3661 34.9309 42.583C35.1226 42.5954 35.3116 42.6017 35.4934 42.6017C38.4859 42.6017 39.6559 40.8436 40.4049 39.1237C40.5849 38.7133 40.688 37.9703 40.6974 37.0312C40.7011 36.769 40.6258 36.5118 40.4814 36.293C40.3369 36.0741 40.1299 35.9039 39.8874 35.8042C38.7167 35.3209 36.8864 34.7431 34.8105 34.7431Z" fill="#423636"/>
<path d="M56.0795 43.3987C52.6087 43.3987 51.242 41.2837 50.4383 39.4427C50.2113 38.9221 50.0905 38.1139 50.0783 37.0404C50.0724 36.6192 50.1934 36.2059 50.4256 35.8544C50.6578 35.5029 50.9904 35.2295 51.3802 35.0696C52.6177 34.5577 54.554 33.9478 56.7604 33.9478C57.9331 33.9475 59.0985 34.1306 60.2146 34.4907C60.5632 34.603 60.8674 34.8226 61.0837 35.1181C61.2999 35.4137 61.4172 35.7701 61.4188 36.1363C61.4235 36.8435 61.4321 38.5362 61.4116 38.9794C61.3315 40.7423 60.7548 43.1165 56.6915 43.3784C56.4836 43.3917 56.2775 43.3987 56.0795 43.3987ZM56.7613 34.7438C54.6857 34.7438 52.8553 35.3209 51.6855 35.8051C51.443 35.9048 51.236 36.075 51.0916 36.2939C50.9471 36.5127 50.8718 36.7699 50.8755 37.0321C50.8854 37.971 50.9896 38.7139 51.168 39.1246C51.9179 40.8442 53.0884 42.6024 56.0793 42.6026C56.2593 42.6026 56.4492 42.5963 56.6418 42.5839C60.0094 42.367 60.5415 40.6217 60.6178 38.9432C60.6313 38.6487 60.6338 37.6013 60.6243 36.1417C60.6236 35.9431 60.5601 35.7497 60.4429 35.5893C60.3257 35.4289 60.1608 35.3096 59.9718 35.2485C58.9345 34.9136 57.8513 34.7431 56.7613 34.7431V34.7438Z" fill="#423636"/>
</svg>
